M48
; DRILL file {KiCad 8.0.6-8.0.6-0~ubuntu24.04.1} date 2024-10-24T15:12:12+0300
; FORMAT={-:-/ absolute / inch / decimal}
; #@! TF.CreationDate,2024-10-24T15:12:12+03:00
; #@! TF.GenerationSoftware,Kicad,Pcbnew,8.0.6-8.0.6-0~ubuntu24.04.1
; #@! TF.FileFunction,Plated,1,2,PTH
FMAT,2
INCH
; #@! TA.AperFunction,Plated,PTH,ViaDrill
T1C0.0118
; #@! TA.AperFunction,Plated,PTH,ComponentDrill
T2C0.0394
%
G90
G05
T1
X2.9827Y-3.2063
X2.9906Y-2.9724
X2.9913Y-3.0118
X3.0201Y-3.2079
X3.0256Y-2.9724
X3.0264Y-3.011
X3.0567Y-3.2177
X3.0691Y-3.1967
X3.0709Y-2.4016
X3.0917Y-3.1929
X3.1102Y-2.4016
X3.1496Y-2.4016
X3.163Y-3.1925
X3.1988Y-2.389
X3.3496Y-3.2681
X3.3583Y-3.1307
X3.3591Y-3.1004
X3.3787Y-3.2681
X3.3843Y-3.0661
X3.3906Y-3.3586
X3.4035Y-3.1882
X3.4055Y-3.2189
X3.4063Y-3.2524
X3.4169Y-3.0657
X3.4283Y-3.3586
X3.4402Y-3.1882
X3.4457Y-3.0661
X3.4579Y-3.0957
X3.4583Y-3.1256
X3.4606Y-3.163
X3.4646Y-1.9685
X3.4646Y-2.0472
X3.4646Y-2.126
X3.4646Y-2.2047
X3.4673Y-2.3665
X3.4701Y-3.3586
X3.4965Y-2.4957
X3.5055Y-3.3586
X3.5091Y-2.5441
X3.5433Y-2.2047
X3.622Y-2.2047
X3.6281Y-3.0669
X3.6496Y-2.4567
X3.6563Y-2.048
X3.6749Y-3.0677
X3.7008Y-2.2047
X3.7217Y-2.4571
X3.7218Y-3.0709
X3.9244Y-3.0075
X3.937Y-2.5591
X3.937Y-2.7165
X3.937Y-2.874
X4.0157Y-2.5591
X4.0157Y-2.7165
X4.0157Y-2.874
X4.0185Y-3.0067
X4.0945Y-2.5591
X4.0945Y-2.7165
X4.0945Y-2.874
X4.1354Y-3.0079
X4.1732Y-2.5591
X4.1732Y-2.7165
X4.1732Y-2.874
X4.2571Y-3.0039
X4.4354Y-2.374
X4.4756Y-2.5469
T2
X2.9524Y-2.4831
X2.9524Y-2.6272
X2.9543Y-2.7697
X3.3457Y-2.7016
X3.4457Y-2.7016
X3.5894Y-2.7016
X3.6894Y-2.7016
X3.8618Y-3.3201
X4.1071Y-3.3197
M30
