%TF.GenerationSoftware,KiCad,Pcbnew,8.0.6-8.0.6-0~ubuntu24.04.1*%
%TF.CreationDate,2024-10-24T15:12:09+03:00*%
%TF.ProjectId,navigator,6e617669-6761-4746-9f72-2e6b69636164,rev?*%
%TF.SameCoordinates,Original*%
%TF.FileFunction,Soldermask,Top*%
%TF.FilePolarity,Negative*%
%FSLAX46Y46*%
G04 Gerber Fmt 4.6, Leading zero omitted, Abs format (unit mm)*
G04 Created by KiCad (PCBNEW 8.0.6-8.0.6-0~ubuntu24.04.1) date 2024-10-24 15:12:09*
%MOMM*%
%LPD*%
G01*
G04 APERTURE LIST*
G04 Aperture macros list*
%AMRoundRect*
0 Rectangle with rounded corners*
0 $1 Rounding radius*
0 $2 $3 $4 $5 $6 $7 $8 $9 X,Y pos of 4 corners*
0 Add a 4 corners polygon primitive as box body*
4,1,4,$2,$3,$4,$5,$6,$7,$8,$9,$2,$3,0*
0 Add four circle primitives for the rounded corners*
1,1,$1+$1,$2,$3*
1,1,$1+$1,$4,$5*
1,1,$1+$1,$6,$7*
1,1,$1+$1,$8,$9*
0 Add four rect primitives between the rounded corners*
20,1,$1+$1,$2,$3,$4,$5,0*
20,1,$1+$1,$4,$5,$6,$7,0*
20,1,$1+$1,$6,$7,$8,$9,0*
20,1,$1+$1,$8,$9,$2,$3,0*%
%AMFreePoly0*
4,1,19,0.550000,-0.750000,0.000000,-0.750000,0.000000,-0.744911,-0.071157,-0.744911,-0.207708,-0.704816,-0.327430,-0.627875,-0.420627,-0.520320,-0.479746,-0.390866,-0.500000,-0.250000,-0.500000,0.250000,-0.479746,0.390866,-0.420627,0.520320,-0.327430,0.627875,-0.207708,0.704816,-0.071157,0.744911,0.000000,0.744911,0.000000,0.750000,0.550000,0.750000,0.550000,-0.750000,0.550000,-0.750000,
$1*%
%AMFreePoly1*
4,1,19,0.000000,0.744911,0.071157,0.744911,0.207708,0.704816,0.327430,0.627875,0.420627,0.520320,0.479746,0.390866,0.500000,0.250000,0.500000,-0.250000,0.479746,-0.390866,0.420627,-0.520320,0.327430,-0.627875,0.207708,-0.704816,0.071157,-0.744911,0.000000,-0.744911,0.000000,-0.750000,-0.550000,-0.750000,-0.550000,0.750000,0.000000,0.750000,0.000000,0.744911,0.000000,0.744911,
$1*%
G04 Aperture macros list end*
%ADD10RoundRect,0.250000X-0.450000X0.262500X-0.450000X-0.262500X0.450000X-0.262500X0.450000X0.262500X0*%
%ADD11RoundRect,0.250000X-0.262500X-0.450000X0.262500X-0.450000X0.262500X0.450000X-0.262500X0.450000X0*%
%ADD12R,1.780000X2.000000*%
%ADD13RoundRect,0.250000X-0.250000X-0.475000X0.250000X-0.475000X0.250000X0.475000X-0.250000X0.475000X0*%
%ADD14R,2.000000X1.000000*%
%ADD15R,1.000000X1.800000*%
%ADD16FreePoly0,90.000000*%
%ADD17R,1.500000X1.000000*%
%ADD18FreePoly1,90.000000*%
%ADD19RoundRect,0.250000X0.475000X-0.250000X0.475000X0.250000X-0.475000X0.250000X-0.475000X-0.250000X0*%
%ADD20RoundRect,0.150000X0.825000X0.150000X-0.825000X0.150000X-0.825000X-0.150000X0.825000X-0.150000X0*%
%ADD21RoundRect,0.200000X-0.200000X-0.275000X0.200000X-0.275000X0.200000X0.275000X-0.200000X0.275000X0*%
%ADD22RoundRect,0.350000X-1.750000X-0.350000X1.750000X-0.350000X1.750000X0.350000X-1.750000X0.350000X0*%
%ADD23RoundRect,0.200000X0.200000X0.275000X-0.200000X0.275000X-0.200000X-0.275000X0.200000X-0.275000X0*%
%ADD24RoundRect,0.200000X-0.275000X0.200000X-0.275000X-0.200000X0.275000X-0.200000X0.275000X0.200000X0*%
%ADD25C,3.200000*%
%ADD26RoundRect,0.250000X-0.475000X0.250000X-0.475000X-0.250000X0.475000X-0.250000X0.475000X0.250000X0*%
%ADD27RoundRect,0.250000X0.450000X-0.262500X0.450000X0.262500X-0.450000X0.262500X-0.450000X-0.262500X0*%
%ADD28RoundRect,0.150000X-0.587500X-0.150000X0.587500X-0.150000X0.587500X0.150000X-0.587500X0.150000X0*%
%ADD29RoundRect,0.250000X0.262500X0.450000X-0.262500X0.450000X-0.262500X-0.450000X0.262500X-0.450000X0*%
%ADD30RoundRect,0.250000X-0.625000X0.375000X-0.625000X-0.375000X0.625000X-0.375000X0.625000X0.375000X0*%
%ADD31RoundRect,0.250000X-0.400000X-0.450000X0.400000X-0.450000X0.400000X0.450000X-0.400000X0.450000X0*%
%ADD32R,1.000000X1.500000*%
%ADD33RoundRect,0.150000X-0.512500X-0.150000X0.512500X-0.150000X0.512500X0.150000X-0.512500X0.150000X0*%
%ADD34RoundRect,0.225000X0.225000X0.250000X-0.225000X0.250000X-0.225000X-0.250000X0.225000X-0.250000X0*%
%ADD35RoundRect,0.200000X0.275000X-0.200000X0.275000X0.200000X-0.275000X0.200000X-0.275000X-0.200000X0*%
%ADD36RoundRect,0.112500X0.112500X-0.187500X0.112500X0.187500X-0.112500X0.187500X-0.112500X-0.187500X0*%
%ADD37R,1.700000X1.700000*%
%ADD38O,1.700000X1.700000*%
%ADD39C,0.600000*%
G04 APERTURE END LIST*
D10*
%TO.C,R107*%
X113680000Y-65515000D03*
X113680000Y-67340000D03*
%TD*%
D11*
%TO.C,R111*%
X77107500Y-70560000D03*
X78932500Y-70560000D03*
%TD*%
D12*
%TO.C,U101*%
X78710000Y-68175000D03*
X81250000Y-68175000D03*
X81250000Y-58645000D03*
X78710000Y-58645000D03*
%TD*%
D13*
%TO.C,C104*%
X83440000Y-81620000D03*
X85340000Y-81620000D03*
%TD*%
D14*
%TO.C,BT101*%
X97390000Y-58520000D03*
X97390000Y-60020000D03*
X97390000Y-61520000D03*
X97390000Y-63020000D03*
X97390000Y-64520000D03*
X97390000Y-66020000D03*
X97390000Y-67520000D03*
X97390000Y-69020000D03*
X97390000Y-70520000D03*
X97390000Y-72020000D03*
X97390000Y-73520000D03*
X97390000Y-75020000D03*
X97390000Y-76520000D03*
D15*
X98640000Y-78270000D03*
X100140000Y-78270000D03*
X101640000Y-78270000D03*
X103140000Y-78270000D03*
X104640000Y-78270000D03*
X106140000Y-78270000D03*
X107640000Y-78270000D03*
X109140000Y-78270000D03*
D14*
X110390000Y-76520000D03*
X110390000Y-75020000D03*
X110390000Y-73520000D03*
X110390000Y-72020000D03*
X110390000Y-70520000D03*
X110390000Y-69020000D03*
X110390000Y-67520000D03*
X110390000Y-66020000D03*
X110390000Y-64520000D03*
X110390000Y-63020000D03*
X110390000Y-61520000D03*
X110390000Y-60020000D03*
X110390000Y-58520000D03*
%TD*%
D16*
%TO.C,JP101*%
X113370000Y-59870000D03*
D17*
X113370000Y-58570000D03*
D18*
X113370000Y-57270000D03*
%TD*%
D19*
%TO.C,C105*%
X76490000Y-80280000D03*
X76490000Y-78380000D03*
%TD*%
D20*
%TO.C,U103*%
X90225000Y-65920000D03*
X90225000Y-64650000D03*
X90225000Y-63380000D03*
X90225000Y-62110000D03*
X85275000Y-62110000D03*
X85275000Y-63380000D03*
X85275000Y-64650000D03*
X85275000Y-65920000D03*
%TD*%
D21*
%TO.C,R109*%
X92920000Y-81760000D03*
X94570000Y-81760000D03*
%TD*%
D11*
%TO.C,R112*%
X80527500Y-70520000D03*
X82352500Y-70520000D03*
%TD*%
D22*
%TO.C,L101*%
X80080000Y-78417500D03*
X80080000Y-74667500D03*
%TD*%
D23*
%TO.C,R104*%
X83400000Y-83590000D03*
X81750000Y-83590000D03*
%TD*%
D24*
%TO.C,R105*%
X76070000Y-82610000D03*
X76070000Y-84260000D03*
%TD*%
D11*
%TO.C,R102*%
X92787500Y-58320000D03*
X94612500Y-58320000D03*
%TD*%
%TO.C,R101*%
X92795000Y-60320000D03*
X94620000Y-60320000D03*
%TD*%
D25*
%TO.C,H101*%
X76680000Y-51290000D03*
%TD*%
D26*
%TO.C,C103*%
X92282500Y-74890000D03*
X92282500Y-76790000D03*
%TD*%
%TO.C,C108*%
X85880000Y-73840000D03*
X85880000Y-75740000D03*
%TD*%
D27*
%TO.C,R108*%
X113680000Y-63755000D03*
X113680000Y-61930000D03*
%TD*%
D28*
%TO.C,Q101*%
X93255000Y-83320000D03*
X93255000Y-85220000D03*
X95130000Y-84270000D03*
%TD*%
D29*
%TO.C,R113*%
X81672500Y-56250000D03*
X79847500Y-56250000D03*
%TD*%
D30*
%TO.C,D101*%
X84870000Y-49172500D03*
X84870000Y-51972500D03*
%TD*%
D19*
%TO.C,C101*%
X92515000Y-65110000D03*
X92515000Y-63210000D03*
%TD*%
D26*
%TO.C,C102*%
X94392500Y-74910000D03*
X94392500Y-76810000D03*
%TD*%
D19*
%TO.C,C106*%
X94500000Y-65110000D03*
X94500000Y-63210000D03*
%TD*%
D31*
%TO.C,D102*%
X83652500Y-79400000D03*
X86552500Y-79400000D03*
%TD*%
D30*
%TO.C,D103*%
X91140000Y-49200000D03*
X91140000Y-52000000D03*
%TD*%
D27*
%TO.C,R103*%
X84900000Y-56602500D03*
X84900000Y-54777500D03*
%TD*%
D32*
%TO.C,JP103*%
X86980000Y-58020000D03*
X88280000Y-58020000D03*
%TD*%
D33*
%TO.C,U102*%
X79405000Y-80150000D03*
X79405000Y-81100000D03*
X79405000Y-82050000D03*
X81680000Y-82050000D03*
X81680000Y-81100000D03*
X81680000Y-80150000D03*
%TD*%
D34*
%TO.C,C109*%
X91460000Y-81800000D03*
X89910000Y-81800000D03*
%TD*%
D25*
%TO.C,H102*%
X111778056Y-82898056D03*
%TD*%
D35*
%TO.C,R106*%
X77640000Y-84230000D03*
X77640000Y-82580000D03*
%TD*%
D36*
%TO.C,D104*%
X91230000Y-85307500D03*
X91230000Y-83207500D03*
%TD*%
D26*
%TO.C,C107*%
X83800000Y-73860000D03*
X83800000Y-75760000D03*
%TD*%
D37*
%TO.C,J101*%
X87520000Y-68620000D03*
D38*
X84980000Y-68620000D03*
%TD*%
D37*
%TO.C,J103*%
X98090000Y-84330000D03*
%TD*%
%TO.C,J107*%
X74990000Y-66730000D03*
%TD*%
%TO.C,J102*%
X91170000Y-68620000D03*
D38*
X93710000Y-68620000D03*
%TD*%
D37*
%TO.C,J106*%
X75040000Y-70350000D03*
%TD*%
%TO.C,J104*%
X104320000Y-84320000D03*
%TD*%
%TO.C,J105*%
X74990000Y-63070000D03*
%TD*%
D39*
X76870000Y-76480000D03*
X106000000Y-69000000D03*
X85320000Y-78750000D03*
X86790000Y-77870000D03*
X80000000Y-61000000D03*
X76710000Y-81480000D03*
X80340000Y-81090000D03*
X86520000Y-82610000D03*
X102000000Y-69000000D03*
X86500000Y-81760000D03*
X92152500Y-77900000D03*
X106000000Y-73000000D03*
X76850000Y-75500000D03*
X105040000Y-76400000D03*
X86450000Y-80980000D03*
X102000000Y-65000000D03*
X94532500Y-78000000D03*
X78530000Y-81100000D03*
X81250000Y-60680000D03*
X75980000Y-76500000D03*
X108130000Y-76300000D03*
X90000000Y-56000000D03*
X87520000Y-77880000D03*
X104000000Y-65000000D03*
X85820000Y-83010000D03*
X94000000Y-56000000D03*
X88000000Y-50000000D03*
X75760000Y-81440000D03*
X77640000Y-81730000D03*
X85080000Y-83010000D03*
X102070000Y-76370000D03*
X100000000Y-69000000D03*
X88810000Y-63390000D03*
X85300000Y-79520000D03*
X87840000Y-79390000D03*
X87830000Y-78630000D03*
X88000000Y-54000000D03*
X104000000Y-69000000D03*
X93342500Y-77920000D03*
X100000000Y-73000000D03*
X92700000Y-62400000D03*
X75960000Y-75500000D03*
X102000000Y-73000000D03*
X112660000Y-60300000D03*
X78000000Y-61000000D03*
X92000000Y-56000000D03*
X106000000Y-65000000D03*
X88000000Y-56000000D03*
X104000000Y-73000000D03*
X99680000Y-76390000D03*
X79000000Y-61000000D03*
X77955000Y-81195000D03*
X100000000Y-65000000D03*
X88000000Y-52000000D03*
X87380000Y-80980000D03*
X87900000Y-80340000D03*
X94530000Y-62410000D03*
X85960000Y-77880000D03*
X88070000Y-60110000D03*
X89130000Y-64620000D03*
X92870000Y-52020000D03*
X113680000Y-64690000D03*
X86120000Y-85307500D03*
X88140000Y-85307500D03*
X89040000Y-85307500D03*
X87080000Y-85307500D03*
M02*
