%TF.GenerationSoftware,KiCad,Pcbnew,8.0.6-8.0.6-0~ubuntu24.04.1*%
%TF.CreationDate,2024-10-24T15:12:09+03:00*%
%TF.ProjectId,navigator,6e617669-6761-4746-9f72-2e6b69636164,rev?*%
%TF.SameCoordinates,Original*%
%TF.FileFunction,Copper,L2,Bot*%
%TF.FilePolarity,Positive*%
%FSLAX46Y46*%
G04 Gerber Fmt 4.6, Leading zero omitted, Abs format (unit mm)*
G04 Created by KiCad (PCBNEW 8.0.6-8.0.6-0~ubuntu24.04.1) date 2024-10-24 15:12:09*
%MOMM*%
%LPD*%
G01*
G04 APERTURE LIST*
%TA.AperFunction,ComponentPad*%
%ADD10R,1.700000X1.700000*%
%TD*%
%TA.AperFunction,ComponentPad*%
%ADD11O,1.700000X1.700000*%
%TD*%
%TA.AperFunction,ViaPad*%
%ADD12C,0.600000*%
%TD*%
%TA.AperFunction,Conductor*%
%ADD13C,0.400000*%
%TD*%
%TA.AperFunction,Conductor*%
%ADD14C,0.800000*%
%TD*%
G04 APERTURE END LIST*
D10*
%TO.P,J101,1,Pin_1*%
%TO.N,/SWDCLK*%
X87520000Y-68620000D03*
D11*
%TO.P,J101,2,Pin_2*%
%TO.N,/SWDIO*%
X84980000Y-68620000D03*
%TD*%
D10*
%TO.P,J103,1,Pin_1*%
%TO.N,Net-(J103-Pin_1)*%
X98090000Y-84330000D03*
%TD*%
%TO.P,J107,1,Pin_1*%
%TO.N,GND*%
X74990000Y-66730000D03*
%TD*%
%TO.P,J102,1,Pin_1*%
%TO.N,GND*%
X91170000Y-68620000D03*
D11*
%TO.P,J102,2,Pin_2*%
%TO.N,/3V3*%
X93710000Y-68620000D03*
%TD*%
D10*
%TO.P,J106,1,Pin_1*%
%TO.N,/Vin*%
X75040000Y-70350000D03*
%TD*%
%TO.P,J104,1,Pin_1*%
%TO.N,GND*%
X104320000Y-84320000D03*
%TD*%
%TO.P,J105,1,Pin_1*%
%TO.N,Net-(J105-Pin_1)*%
X74990000Y-63070000D03*
%TD*%
D12*
%TO.N,GND*%
X76870000Y-76480000D03*
X106000000Y-69000000D03*
X85320000Y-78750000D03*
X86790000Y-77870000D03*
X80000000Y-61000000D03*
X76710000Y-81480000D03*
X80340000Y-81090000D03*
X86520000Y-82610000D03*
X102000000Y-69000000D03*
X86500000Y-81760000D03*
X92152500Y-77900000D03*
X106000000Y-73000000D03*
X76850000Y-75500000D03*
X105040000Y-76400000D03*
X86450000Y-80980000D03*
X102000000Y-65000000D03*
X94532500Y-78000000D03*
X78530000Y-81100000D03*
X81250000Y-60680000D03*
X75980000Y-76500000D03*
X108130000Y-76300000D03*
X90000000Y-56000000D03*
X87520000Y-77880000D03*
X104000000Y-65000000D03*
X85820000Y-83010000D03*
X94000000Y-56000000D03*
X88000000Y-50000000D03*
X75760000Y-81440000D03*
X77640000Y-81730000D03*
X85080000Y-83010000D03*
X102070000Y-76370000D03*
X100000000Y-69000000D03*
X88810000Y-63390000D03*
X85300000Y-79520000D03*
X87840000Y-79390000D03*
X87830000Y-78630000D03*
X88000000Y-54000000D03*
X104000000Y-69000000D03*
X93342500Y-77920000D03*
X100000000Y-73000000D03*
X92700000Y-62400000D03*
X75960000Y-75500000D03*
X102000000Y-73000000D03*
X112660000Y-60300000D03*
X78000000Y-61000000D03*
X92000000Y-56000000D03*
X106000000Y-65000000D03*
X88000000Y-56000000D03*
X104000000Y-73000000D03*
X99680000Y-76390000D03*
X79000000Y-61000000D03*
X77955000Y-81195000D03*
X100000000Y-65000000D03*
X88000000Y-52000000D03*
X87380000Y-80980000D03*
X87900000Y-80340000D03*
X94530000Y-62410000D03*
X85960000Y-77880000D03*
%TO.N,/3V3*%
X88070000Y-60110000D03*
X89130000Y-64620000D03*
%TO.N,Net-(D103-A)*%
X92870000Y-52020000D03*
X113680000Y-64690000D03*
%TO.N,/Vin*%
X86120000Y-85307500D03*
X88140000Y-85307500D03*
X89040000Y-85307500D03*
X87080000Y-85307500D03*
%TD*%
D13*
%TO.N,/3V3*%
X87560000Y-64000000D02*
X87560000Y-60620000D01*
X89130000Y-64620000D02*
X88180000Y-64620000D01*
X88180000Y-64620000D02*
X87560000Y-64000000D01*
X87560000Y-60620000D02*
X88070000Y-60110000D01*
%TO.N,Net-(D103-A)*%
X112640000Y-52020000D02*
X114090000Y-53470000D01*
X114090000Y-63370000D02*
X113680000Y-63780000D01*
X92870000Y-52020000D02*
X112640000Y-52020000D01*
X113680000Y-63780000D02*
X113680000Y-64690000D01*
X114090000Y-53470000D02*
X114090000Y-63370000D01*
D14*
%TO.N,/Vin*%
X74650000Y-83640000D02*
X74650000Y-72420000D01*
X76317500Y-85307500D02*
X74650000Y-83640000D01*
X87080000Y-85307500D02*
X86120000Y-85307500D01*
X75040000Y-72030000D02*
X75040000Y-70350000D01*
X88140000Y-85307500D02*
X87080000Y-85307500D01*
X74650000Y-72420000D02*
X75040000Y-72030000D01*
X86120000Y-85307500D02*
X76317500Y-85307500D01*
X89040000Y-85307500D02*
X88140000Y-85307500D01*
%TD*%
%TA.AperFunction,Conductor*%
%TO.N,GND*%
G36*
X111712169Y-48250501D02*
G01*
X111774817Y-48250500D01*
X111781304Y-48250669D01*
X112086161Y-48266643D01*
X112099042Y-48267996D01*
X112397371Y-48315243D01*
X112410056Y-48317940D01*
X112701794Y-48396107D01*
X112714099Y-48400105D01*
X112996103Y-48508352D01*
X113007926Y-48513617D01*
X113277040Y-48650735D01*
X113288263Y-48657213D01*
X113541575Y-48821713D01*
X113552069Y-48829338D01*
X113786781Y-49019401D01*
X113796427Y-49028086D01*
X114009988Y-49241644D01*
X114018673Y-49251290D01*
X114208737Y-49485996D01*
X114216366Y-49496496D01*
X114380857Y-49749788D01*
X114387347Y-49761029D01*
X114524461Y-50030127D01*
X114529740Y-50041984D01*
X114637972Y-50323937D01*
X114641983Y-50336281D01*
X114720153Y-50628013D01*
X114722851Y-50640709D01*
X114770095Y-50938997D01*
X114771452Y-50951905D01*
X114787385Y-51255897D01*
X114787555Y-51262387D01*
X114787555Y-52877535D01*
X114767870Y-52944574D01*
X114715066Y-52990329D01*
X114645908Y-53000273D01*
X114582352Y-52971248D01*
X114575874Y-52965216D01*
X113086545Y-51475887D01*
X112971807Y-51399222D01*
X112844332Y-51346421D01*
X112844322Y-51346418D01*
X112708996Y-51319500D01*
X112708994Y-51319500D01*
X112708993Y-51319500D01*
X93295494Y-51319500D01*
X93229523Y-51300494D01*
X93219525Y-51294212D01*
X93049254Y-51234631D01*
X93049249Y-51234630D01*
X92870004Y-51214435D01*
X92869996Y-51214435D01*
X92690750Y-51234630D01*
X92690745Y-51234631D01*
X92520476Y-51294211D01*
X92367737Y-51390184D01*
X92240184Y-51517737D01*
X92144211Y-51670476D01*
X92084631Y-51840745D01*
X92084630Y-51840750D01*
X92064435Y-52019996D01*
X92064435Y-52020003D01*
X92084630Y-52199249D01*
X92084631Y-52199254D01*
X92144211Y-52369523D01*
X92234198Y-52512736D01*
X92240184Y-52522262D01*
X92367738Y-52649816D01*
X92422555Y-52684260D01*
X92520474Y-52745787D01*
X92520478Y-52745789D01*
X92690745Y-52805368D01*
X92690750Y-52805369D01*
X92869996Y-52825565D01*
X92870000Y-52825565D01*
X92870004Y-52825565D01*
X93049249Y-52805369D01*
X93049252Y-52805368D01*
X93049255Y-52805368D01*
X93219522Y-52745789D01*
X93220488Y-52745181D01*
X93229523Y-52739506D01*
X93295494Y-52720500D01*
X112298481Y-52720500D01*
X112365520Y-52740185D01*
X112386162Y-52756819D01*
X113353181Y-53723838D01*
X113386666Y-53785161D01*
X113389500Y-53811519D01*
X113389500Y-63028481D01*
X113369815Y-63095520D01*
X113353181Y-63116162D01*
X113135885Y-63333457D01*
X113135883Y-63333459D01*
X113116927Y-63361832D01*
X113116925Y-63361835D01*
X113059228Y-63448183D01*
X113059221Y-63448195D01*
X113006421Y-63575667D01*
X113006418Y-63575677D01*
X112979500Y-63711004D01*
X112979500Y-64264507D01*
X112960494Y-64330478D01*
X112954209Y-64340479D01*
X112894633Y-64510737D01*
X112894630Y-64510750D01*
X112874435Y-64689996D01*
X112874435Y-64690003D01*
X112894630Y-64869249D01*
X112894631Y-64869254D01*
X112954211Y-65039523D01*
X113006200Y-65122262D01*
X113050184Y-65192262D01*
X113177738Y-65319816D01*
X113219071Y-65345787D01*
X113313894Y-65405369D01*
X113330478Y-65415789D01*
X113500745Y-65475368D01*
X113500750Y-65475369D01*
X113679996Y-65495565D01*
X113680000Y-65495565D01*
X113680004Y-65495565D01*
X113859249Y-65475369D01*
X113859252Y-65475368D01*
X113859255Y-65475368D01*
X114029522Y-65415789D01*
X114182262Y-65319816D01*
X114309816Y-65192262D01*
X114405789Y-65039522D01*
X114465368Y-64869255D01*
X114485565Y-64690000D01*
X114477678Y-64620003D01*
X114465369Y-64510750D01*
X114465366Y-64510737D01*
X114405790Y-64340479D01*
X114399506Y-64330478D01*
X114380500Y-64264507D01*
X114380500Y-64121519D01*
X114400185Y-64054480D01*
X114416819Y-64033838D01*
X114575874Y-63874783D01*
X114637197Y-63841298D01*
X114706889Y-63846282D01*
X114762822Y-63888154D01*
X114787239Y-63953618D01*
X114787555Y-63962464D01*
X114787555Y-82894809D01*
X114787385Y-82901299D01*
X114771408Y-83206147D01*
X114770051Y-83219054D01*
X114722808Y-83517343D01*
X114720110Y-83530039D01*
X114641943Y-83821764D01*
X114637932Y-83834109D01*
X114529700Y-84116062D01*
X114524421Y-84127919D01*
X114387307Y-84397020D01*
X114380817Y-84408260D01*
X114216334Y-84661542D01*
X114208705Y-84672043D01*
X114018637Y-84906758D01*
X114009952Y-84916403D01*
X113796403Y-85129952D01*
X113786758Y-85138637D01*
X113552043Y-85328705D01*
X113541542Y-85336334D01*
X113288260Y-85500817D01*
X113277020Y-85507307D01*
X113007919Y-85644421D01*
X112996062Y-85649700D01*
X112714109Y-85757932D01*
X112701764Y-85761943D01*
X112410039Y-85840110D01*
X112397343Y-85842808D01*
X112099054Y-85890051D01*
X112086147Y-85891408D01*
X111781300Y-85907385D01*
X111774810Y-85907555D01*
X99108829Y-85907555D01*
X99041790Y-85887870D01*
X98996035Y-85835066D01*
X98986091Y-85765908D01*
X99015116Y-85702352D01*
X99065496Y-85667373D01*
X99182328Y-85623797D01*
X99182327Y-85623797D01*
X99182331Y-85623796D01*
X99297546Y-85537546D01*
X99383796Y-85422331D01*
X99434091Y-85287483D01*
X99440500Y-85227873D01*
X99440499Y-83432128D01*
X99434091Y-83372517D01*
X99383796Y-83237669D01*
X99383795Y-83237668D01*
X99383793Y-83237664D01*
X99297547Y-83122455D01*
X99297544Y-83122452D01*
X99182335Y-83036206D01*
X99182328Y-83036202D01*
X99047482Y-82985908D01*
X99047483Y-82985908D01*
X98987883Y-82979501D01*
X98987881Y-82979500D01*
X98987873Y-82979500D01*
X98987864Y-82979500D01*
X97192129Y-82979500D01*
X97192123Y-82979501D01*
X97132516Y-82985908D01*
X96997671Y-83036202D01*
X96997664Y-83036206D01*
X96882455Y-83122452D01*
X96882452Y-83122455D01*
X96796206Y-83237664D01*
X96796202Y-83237671D01*
X96745908Y-83372517D01*
X96739501Y-83432116D01*
X96739501Y-83432123D01*
X96739500Y-83432135D01*
X96739500Y-85227870D01*
X96739501Y-85227876D01*
X96745908Y-85287483D01*
X96796202Y-85422328D01*
X96796206Y-85422335D01*
X96882452Y-85537544D01*
X96882455Y-85537547D01*
X96997664Y-85623793D01*
X96997671Y-85623797D01*
X97114504Y-85667373D01*
X97170438Y-85709244D01*
X97194855Y-85774708D01*
X97180003Y-85842981D01*
X97130598Y-85892387D01*
X97071171Y-85907555D01*
X89951723Y-85907555D01*
X89884684Y-85887870D01*
X89838929Y-85835066D01*
X89828985Y-85765908D01*
X89837162Y-85736103D01*
X89875137Y-85644421D01*
X89905894Y-85570166D01*
X89912383Y-85537547D01*
X89928964Y-85454182D01*
X89940500Y-85396191D01*
X89940500Y-85218809D01*
X89940500Y-85218806D01*
X89940499Y-85218804D01*
X89905896Y-85044841D01*
X89905893Y-85044832D01*
X89838016Y-84880959D01*
X89838009Y-84880946D01*
X89739464Y-84733465D01*
X89739461Y-84733461D01*
X89614038Y-84608038D01*
X89614034Y-84608035D01*
X89466553Y-84509490D01*
X89466540Y-84509483D01*
X89302667Y-84441606D01*
X89302658Y-84441603D01*
X89128694Y-84407000D01*
X89128691Y-84407000D01*
X88228691Y-84407000D01*
X87168691Y-84407000D01*
X86208691Y-84407000D01*
X76741862Y-84407000D01*
X76674823Y-84387315D01*
X76654181Y-84370681D01*
X75586819Y-83303319D01*
X75553334Y-83241996D01*
X75550500Y-83215638D01*
X75550500Y-82776767D01*
X109927556Y-82776767D01*
X109927556Y-83019344D01*
X109959217Y-83259841D01*
X110022003Y-83494160D01*
X110036865Y-83530039D01*
X110114832Y-83718268D01*
X110236120Y-83928345D01*
X110236122Y-83928348D01*
X110236123Y-83928349D01*
X110383789Y-84120792D01*
X110383795Y-84120799D01*
X110555312Y-84292316D01*
X110555318Y-84292321D01*
X110747767Y-84439992D01*
X110957844Y-84561280D01*
X111181956Y-84654110D01*
X111416267Y-84716894D01*
X111596642Y-84740640D01*
X111656767Y-84748556D01*
X111656768Y-84748556D01*
X111899345Y-84748556D01*
X111947444Y-84742223D01*
X112139845Y-84716894D01*
X112374156Y-84654110D01*
X112598268Y-84561280D01*
X112808345Y-84439992D01*
X113000794Y-84292321D01*
X113172321Y-84120794D01*
X113319992Y-83928345D01*
X113441280Y-83718268D01*
X113534110Y-83494156D01*
X113596894Y-83259845D01*
X113628556Y-83019344D01*
X113628556Y-82776768D01*
X113596894Y-82536267D01*
X113534110Y-82301956D01*
X113441280Y-82077844D01*
X113319992Y-81867767D01*
X113172321Y-81675318D01*
X113172316Y-81675312D01*
X113000799Y-81503795D01*
X113000792Y-81503789D01*
X112808349Y-81356123D01*
X112808348Y-81356122D01*
X112808345Y-81356120D01*
X112598268Y-81234832D01*
X112598261Y-81234829D01*
X112374160Y-81142003D01*
X112139841Y-81079217D01*
X111899345Y-81047556D01*
X111899344Y-81047556D01*
X111656768Y-81047556D01*
X111656767Y-81047556D01*
X111416270Y-81079217D01*
X111181951Y-81142003D01*
X110957850Y-81234829D01*
X110957841Y-81234833D01*
X110747762Y-81356123D01*
X110555319Y-81503789D01*
X110555312Y-81503795D01*
X110383795Y-81675312D01*
X110383789Y-81675319D01*
X110236123Y-81867762D01*
X110114833Y-82077841D01*
X110114829Y-82077850D01*
X110022003Y-82301951D01*
X109959217Y-82536270D01*
X109927556Y-82776767D01*
X75550500Y-82776767D01*
X75550500Y-72844361D01*
X75570185Y-72777322D01*
X75586819Y-72756680D01*
X75739463Y-72604036D01*
X75739465Y-72604033D01*
X75838009Y-72456553D01*
X75838009Y-72456552D01*
X75838013Y-72456547D01*
X75905894Y-72292666D01*
X75940500Y-72118692D01*
X75940500Y-71941309D01*
X75940500Y-71801439D01*
X75960185Y-71734400D01*
X76012989Y-71688645D01*
X76021168Y-71685257D01*
X76132326Y-71643798D01*
X76132326Y-71643797D01*
X76132331Y-71643796D01*
X76247546Y-71557546D01*
X76333796Y-71442331D01*
X76384091Y-71307483D01*
X76390500Y-71247873D01*
X76390499Y-69452128D01*
X76384091Y-69392517D01*
X76333796Y-69257669D01*
X76333795Y-69257668D01*
X76333793Y-69257664D01*
X76247547Y-69142455D01*
X76247544Y-69142452D01*
X76132335Y-69056206D01*
X76132328Y-69056202D01*
X75997482Y-69005908D01*
X75997483Y-69005908D01*
X75937883Y-68999501D01*
X75937881Y-68999500D01*
X75937873Y-68999500D01*
X75937864Y-68999500D01*
X74142129Y-68999500D01*
X74142123Y-68999501D01*
X74082516Y-69005908D01*
X73947671Y-69056202D01*
X73947669Y-69056204D01*
X73848811Y-69130209D01*
X73783347Y-69154626D01*
X73715074Y-69139774D01*
X73665668Y-69090369D01*
X73650500Y-69030942D01*
X73650500Y-68619999D01*
X83624341Y-68619999D01*
X83624341Y-68620000D01*
X83644936Y-68855403D01*
X83644938Y-68855413D01*
X83706094Y-69083655D01*
X83706096Y-69083659D01*
X83706097Y-69083663D01*
X83790499Y-69264663D01*
X83805965Y-69297830D01*
X83805967Y-69297834D01*
X83914002Y-69452123D01*
X83941505Y-69491401D01*
X84108599Y-69658495D01*
X84205384Y-69726265D01*
X84302165Y-69794032D01*
X84302167Y-69794033D01*
X84302170Y-69794035D01*
X84516337Y-69893903D01*
X84744592Y-69955063D01*
X84921034Y-69970500D01*
X84979999Y-69975659D01*
X84980000Y-69975659D01*
X84980001Y-69975659D01*
X85038966Y-69970500D01*
X85215408Y-69955063D01*
X85443663Y-69893903D01*
X85657830Y-69794035D01*
X85851401Y-69658495D01*
X85973329Y-69536566D01*
X86034648Y-69503084D01*
X86104340Y-69508068D01*
X86160274Y-69549939D01*
X86177189Y-69580917D01*
X86226202Y-69712328D01*
X86226206Y-69712335D01*
X86312452Y-69827544D01*
X86312455Y-69827547D01*
X86427664Y-69913793D01*
X86427671Y-69913797D01*
X86562517Y-69964091D01*
X86562516Y-69964091D01*
X86569444Y-69964835D01*
X86622127Y-69970500D01*
X88417872Y-69970499D01*
X88477483Y-69964091D01*
X88612331Y-69913796D01*
X88727546Y-69827546D01*
X88813796Y-69712331D01*
X88864091Y-69577483D01*
X88870500Y-69517873D01*
X88870499Y-68619999D01*
X92354341Y-68619999D01*
X92354341Y-68620000D01*
X92374936Y-68855403D01*
X92374938Y-68855413D01*
X92436094Y-69083655D01*
X92436096Y-69083659D01*
X92436097Y-69083663D01*
X92520499Y-69264663D01*
X92535965Y-69297830D01*
X92535967Y-69297834D01*
X92644002Y-69452123D01*
X92671505Y-69491401D01*
X92838599Y-69658495D01*
X92935384Y-69726265D01*
X93032165Y-69794032D01*
X93032167Y-69794033D01*
X93032170Y-69794035D01*
X93246337Y-69893903D01*
X93474592Y-69955063D01*
X93651034Y-69970500D01*
X93709999Y-69975659D01*
X93710000Y-69975659D01*
X93710001Y-69975659D01*
X93768966Y-69970500D01*
X93945408Y-69955063D01*
X94173663Y-69893903D01*
X94387830Y-69794035D01*
X94581401Y-69658495D01*
X94748495Y-69491401D01*
X94884035Y-69297830D01*
X94983903Y-69083663D01*
X95045063Y-68855408D01*
X95065659Y-68620000D01*
X95045063Y-68384592D01*
X94983903Y-68156337D01*
X94884035Y-67942171D01*
X94748495Y-67748599D01*
X94748494Y-67748597D01*
X94581402Y-67581506D01*
X94581395Y-67581501D01*
X94387834Y-67445967D01*
X94387830Y-67445965D01*
X94387828Y-67445964D01*
X94173663Y-67346097D01*
X94173659Y-67346096D01*
X94173655Y-67346094D01*
X93945413Y-67284938D01*
X93945403Y-67284936D01*
X93710001Y-67264341D01*
X93709999Y-67264341D01*
X93474596Y-67284936D01*
X93474586Y-67284938D01*
X93246344Y-67346094D01*
X93246335Y-67346098D01*
X93032171Y-67445964D01*
X93032169Y-67445965D01*
X92838597Y-67581505D01*
X92671505Y-67748597D01*
X92535965Y-67942169D01*
X92535964Y-67942171D01*
X92436098Y-68156335D01*
X92436094Y-68156344D01*
X92374938Y-68384586D01*
X92374936Y-68384596D01*
X92354341Y-68619999D01*
X88870499Y-68619999D01*
X88870499Y-67722128D01*
X88864091Y-67662517D01*
X88862810Y-67659083D01*
X88813797Y-67527671D01*
X88813793Y-67527664D01*
X88727547Y-67412455D01*
X88727544Y-67412452D01*
X88612335Y-67326206D01*
X88612328Y-67326202D01*
X88477482Y-67275908D01*
X88477483Y-67275908D01*
X88417883Y-67269501D01*
X88417881Y-67269500D01*
X88417873Y-67269500D01*
X88417864Y-67269500D01*
X86622129Y-67269500D01*
X86622123Y-67269501D01*
X86562516Y-67275908D01*
X86427671Y-67326202D01*
X86427664Y-67326206D01*
X86312455Y-67412452D01*
X86312452Y-67412455D01*
X86226206Y-67527664D01*
X86226203Y-67527669D01*
X86177189Y-67659083D01*
X86135317Y-67715016D01*
X86069853Y-67739433D01*
X86001580Y-67724581D01*
X85973326Y-67703430D01*
X85851402Y-67581506D01*
X85851395Y-67581501D01*
X85657834Y-67445967D01*
X85657830Y-67445965D01*
X85657828Y-67445964D01*
X85443663Y-67346097D01*
X85443659Y-67346096D01*
X85443655Y-67346094D01*
X85215413Y-67284938D01*
X85215403Y-67284936D01*
X84980001Y-67264341D01*
X84979999Y-67264341D01*
X84744596Y-67284936D01*
X84744586Y-67284938D01*
X84516344Y-67346094D01*
X84516335Y-67346098D01*
X84302171Y-67445964D01*
X84302169Y-67445965D01*
X84108597Y-67581505D01*
X83941505Y-67748597D01*
X83805965Y-67942169D01*
X83805964Y-67942171D01*
X83706098Y-68156335D01*
X83706094Y-68156344D01*
X83644938Y-68384586D01*
X83644936Y-68384596D01*
X83624341Y-68619999D01*
X73650500Y-68619999D01*
X73650500Y-64426487D01*
X73670185Y-64359448D01*
X73722989Y-64313693D01*
X73792147Y-64303749D01*
X73848810Y-64327220D01*
X73866522Y-64340479D01*
X73897668Y-64363795D01*
X73897671Y-64363797D01*
X74032517Y-64414091D01*
X74032516Y-64414091D01*
X74039444Y-64414835D01*
X74092127Y-64420500D01*
X75887872Y-64420499D01*
X75947483Y-64414091D01*
X76082331Y-64363796D01*
X76197546Y-64277546D01*
X76283796Y-64162331D01*
X76318608Y-64068996D01*
X86859499Y-64068996D01*
X86886418Y-64204322D01*
X86886421Y-64204332D01*
X86939222Y-64331807D01*
X87015887Y-64446545D01*
X87015888Y-64446546D01*
X87635886Y-65066542D01*
X87691606Y-65122262D01*
X87733459Y-65164115D01*
X87848182Y-65240771D01*
X87848189Y-65240775D01*
X87919951Y-65270499D01*
X87919953Y-65270501D01*
X87975666Y-65293578D01*
X87975671Y-65293580D01*
X87975680Y-65293581D01*
X87975681Y-65293582D01*
X88002545Y-65298925D01*
X88002551Y-65298926D01*
X88002591Y-65298934D01*
X88092937Y-65316905D01*
X88111006Y-65320500D01*
X88111007Y-65320500D01*
X88704506Y-65320500D01*
X88770477Y-65339506D01*
X88780474Y-65345787D01*
X88780475Y-65345787D01*
X88780478Y-65345789D01*
X88950745Y-65405368D01*
X88950750Y-65405369D01*
X89129996Y-65425565D01*
X89130000Y-65425565D01*
X89130004Y-65425565D01*
X89309249Y-65405369D01*
X89309252Y-65405368D01*
X89309255Y-65405368D01*
X89479522Y-65345789D01*
X89632262Y-65249816D01*
X89759816Y-65122262D01*
X89855789Y-64969522D01*
X89915368Y-64799255D01*
X89927678Y-64690000D01*
X89935565Y-64620003D01*
X89935565Y-64619996D01*
X89915369Y-64440750D01*
X89915368Y-64440745D01*
X89875644Y-64327221D01*
X89855789Y-64270478D01*
X89759816Y-64117738D01*
X89632262Y-63990184D01*
X89596770Y-63967883D01*
X89479523Y-63894211D01*
X89309254Y-63834631D01*
X89309249Y-63834630D01*
X89130004Y-63814435D01*
X89129996Y-63814435D01*
X88950750Y-63834630D01*
X88950745Y-63834631D01*
X88780474Y-63894212D01*
X88770477Y-63900494D01*
X88704506Y-63919500D01*
X88521518Y-63919500D01*
X88454479Y-63899815D01*
X88433842Y-63883185D01*
X88296817Y-63746160D01*
X88263334Y-63684839D01*
X88260500Y-63658481D01*
X88260500Y-60979415D01*
X88280185Y-60912376D01*
X88332989Y-60866621D01*
X88343542Y-60862374D01*
X88419522Y-60835789D01*
X88572262Y-60739816D01*
X88699816Y-60612262D01*
X88795789Y-60459522D01*
X88855368Y-60289255D01*
X88868415Y-60173458D01*
X88875565Y-60110003D01*
X88875565Y-60109996D01*
X88855369Y-59930750D01*
X88855368Y-59930745D01*
X88795788Y-59760476D01*
X88699815Y-59607737D01*
X88572262Y-59480184D01*
X88419523Y-59384211D01*
X88249254Y-59324631D01*
X88249249Y-59324630D01*
X88070004Y-59304435D01*
X88069996Y-59304435D01*
X87890750Y-59324630D01*
X87890745Y-59324631D01*
X87720476Y-59384211D01*
X87567737Y-59480184D01*
X87440184Y-59607737D01*
X87344212Y-59760475D01*
X87344211Y-59760476D01*
X87307992Y-59863984D01*
X87278633Y-59910709D01*
X87015885Y-60173458D01*
X86953504Y-60266819D01*
X86953504Y-60266820D01*
X86939223Y-60288191D01*
X86939222Y-60288193D01*
X86886421Y-60415667D01*
X86886418Y-60415677D01*
X86859500Y-60551004D01*
X86859500Y-60551007D01*
X86859500Y-63931006D01*
X86859500Y-64068994D01*
X86859500Y-64068996D01*
X86859499Y-64068996D01*
X76318608Y-64068996D01*
X76334091Y-64027483D01*
X76340500Y-63967873D01*
X76340499Y-62172128D01*
X76334091Y-62112517D01*
X76283796Y-61977669D01*
X76283795Y-61977668D01*
X76283793Y-61977664D01*
X76197547Y-61862455D01*
X76197544Y-61862452D01*
X76082335Y-61776206D01*
X76082328Y-61776202D01*
X75947482Y-61725908D01*
X75947483Y-61725908D01*
X75887883Y-61719501D01*
X75887881Y-61719500D01*
X75887873Y-61719500D01*
X75887864Y-61719500D01*
X74092129Y-61719500D01*
X74092123Y-61719501D01*
X74032516Y-61725908D01*
X73897671Y-61776202D01*
X73897668Y-61776204D01*
X73848811Y-61812779D01*
X73783347Y-61837196D01*
X73715074Y-61822344D01*
X73665668Y-61772939D01*
X73650500Y-61713512D01*
X73650500Y-51263246D01*
X73650670Y-51256757D01*
X73655284Y-51168711D01*
X74829500Y-51168711D01*
X74829500Y-51411288D01*
X74861161Y-51651785D01*
X74923947Y-51886104D01*
X74979407Y-52019996D01*
X75016776Y-52110212D01*
X75138064Y-52320289D01*
X75138066Y-52320292D01*
X75138067Y-52320293D01*
X75285733Y-52512736D01*
X75285739Y-52512743D01*
X75457256Y-52684260D01*
X75457263Y-52684266D01*
X75537442Y-52745789D01*
X75649711Y-52831936D01*
X75859788Y-52953224D01*
X76083900Y-53046054D01*
X76318211Y-53108838D01*
X76498586Y-53132584D01*
X76558711Y-53140500D01*
X76558712Y-53140500D01*
X76801289Y-53140500D01*
X76849388Y-53134167D01*
X77041789Y-53108838D01*
X77276100Y-53046054D01*
X77500212Y-52953224D01*
X77710289Y-52831936D01*
X77902738Y-52684265D01*
X78074265Y-52512738D01*
X78221936Y-52320289D01*
X78343224Y-52110212D01*
X78436054Y-51886100D01*
X78498838Y-51651789D01*
X78530500Y-51411288D01*
X78530500Y-51168712D01*
X78498838Y-50928211D01*
X78436054Y-50693900D01*
X78343224Y-50469788D01*
X78221936Y-50259711D01*
X78074265Y-50067262D01*
X78074260Y-50067256D01*
X77902743Y-49895739D01*
X77902736Y-49895733D01*
X77710293Y-49748067D01*
X77710292Y-49748066D01*
X77710289Y-49748064D01*
X77500212Y-49626776D01*
X77500205Y-49626773D01*
X77276104Y-49533947D01*
X77041785Y-49471161D01*
X76801289Y-49439500D01*
X76801288Y-49439500D01*
X76558712Y-49439500D01*
X76558711Y-49439500D01*
X76318214Y-49471161D01*
X76083895Y-49533947D01*
X75859794Y-49626773D01*
X75859785Y-49626777D01*
X75649706Y-49748067D01*
X75457263Y-49895733D01*
X75457256Y-49895739D01*
X75285739Y-50067256D01*
X75285733Y-50067263D01*
X75138067Y-50259706D01*
X75016777Y-50469785D01*
X75016773Y-50469794D01*
X74923947Y-50693895D01*
X74861161Y-50928214D01*
X74829500Y-51168711D01*
X73655284Y-51168711D01*
X73666646Y-50951909D01*
X73668003Y-50939000D01*
X73715250Y-50640692D01*
X73717940Y-50628035D01*
X73796116Y-50336276D01*
X73800117Y-50323961D01*
X73908362Y-50041975D01*
X73913625Y-50030154D01*
X74050759Y-49761014D01*
X74057225Y-49749815D01*
X74221733Y-49496496D01*
X74229343Y-49486021D01*
X74419427Y-49251287D01*
X74428094Y-49241662D01*
X74641662Y-49028094D01*
X74651287Y-49019427D01*
X74886021Y-48829343D01*
X74896502Y-48821728D01*
X75149815Y-48657225D01*
X75161014Y-48650759D01*
X75430154Y-48513625D01*
X75441975Y-48508362D01*
X75723961Y-48400117D01*
X75736276Y-48396116D01*
X76028035Y-48317940D01*
X76040692Y-48315250D01*
X76339002Y-48268002D01*
X76351908Y-48266646D01*
X76490708Y-48259372D01*
X76656757Y-48250670D01*
X76663246Y-48250500D01*
X76725892Y-48250500D01*
X111712165Y-48250500D01*
X111712169Y-48250501D01*
G37*
%TD.AperFunction*%
%TD*%
M02*
