%TF.GenerationSoftware,KiCad,Pcbnew,8.0.3-8.0.3-0~ubuntu24.04.1*%
%TF.CreationDate,2024-06-26T16:28:25+03:00*%
%TF.ProjectId,navigator,6e617669-6761-4746-9f72-2e6b69636164,rev?*%
%TF.SameCoordinates,Original*%
%TF.FileFunction,Copper,L1,Top*%
%TF.FilePolarity,Positive*%
%FSLAX46Y46*%
G04 Gerber Fmt 4.6, Leading zero omitted, Abs format (unit mm)*
G04 Created by KiCad (PCBNEW 8.0.3-8.0.3-0~ubuntu24.04.1) date 2024-06-26 16:28:25*
%MOMM*%
%LPD*%
G01*
G04 APERTURE LIST*
G04 Aperture macros list*
%AMRoundRect*
0 Rectangle with rounded corners*
0 $1 Rounding radius*
0 $2 $3 $4 $5 $6 $7 $8 $9 X,Y pos of 4 corners*
0 Add a 4 corners polygon primitive as box body*
4,1,4,$2,$3,$4,$5,$6,$7,$8,$9,$2,$3,0*
0 Add four circle primitives for the rounded corners*
1,1,$1+$1,$2,$3*
1,1,$1+$1,$4,$5*
1,1,$1+$1,$6,$7*
1,1,$1+$1,$8,$9*
0 Add four rect primitives between the rounded corners*
20,1,$1+$1,$2,$3,$4,$5,0*
20,1,$1+$1,$4,$5,$6,$7,0*
20,1,$1+$1,$6,$7,$8,$9,0*
20,1,$1+$1,$8,$9,$2,$3,0*%
%AMFreePoly0*
4,1,19,0.550000,-0.750000,0.000000,-0.750000,0.000000,-0.744911,-0.071157,-0.744911,-0.207708,-0.704816,-0.327430,-0.627875,-0.420627,-0.520320,-0.479746,-0.390866,-0.500000,-0.250000,-0.500000,0.250000,-0.479746,0.390866,-0.420627,0.520320,-0.327430,0.627875,-0.207708,0.704816,-0.071157,0.744911,0.000000,0.744911,0.000000,0.750000,0.550000,0.750000,0.550000,-0.750000,0.550000,-0.750000,
$1*%
%AMFreePoly1*
4,1,19,0.000000,0.744911,0.071157,0.744911,0.207708,0.704816,0.327430,0.627875,0.420627,0.520320,0.479746,0.390866,0.500000,0.250000,0.500000,-0.250000,0.479746,-0.390866,0.420627,-0.520320,0.327430,-0.627875,0.207708,-0.704816,0.071157,-0.744911,0.000000,-0.744911,0.000000,-0.750000,-0.550000,-0.750000,-0.550000,0.750000,0.000000,0.750000,0.000000,0.744911,0.000000,0.744911,
$1*%
G04 Aperture macros list end*
%TA.AperFunction,SMDPad,CuDef*%
%ADD10RoundRect,0.250000X0.262500X0.450000X-0.262500X0.450000X-0.262500X-0.450000X0.262500X-0.450000X0*%
%TD*%
%TA.AperFunction,SMDPad,CuDef*%
%ADD11RoundRect,0.250000X0.475000X-0.250000X0.475000X0.250000X-0.475000X0.250000X-0.475000X-0.250000X0*%
%TD*%
%TA.AperFunction,SMDPad,CuDef*%
%ADD12R,2.000000X1.000000*%
%TD*%
%TA.AperFunction,SMDPad,CuDef*%
%ADD13R,1.000000X1.800000*%
%TD*%
%TA.AperFunction,SMDPad,CuDef*%
%ADD14FreePoly0,90.000000*%
%TD*%
%TA.AperFunction,SMDPad,CuDef*%
%ADD15R,1.500000X1.000000*%
%TD*%
%TA.AperFunction,SMDPad,CuDef*%
%ADD16FreePoly1,90.000000*%
%TD*%
%TA.AperFunction,SMDPad,CuDef*%
%ADD17RoundRect,0.250000X-0.475000X0.250000X-0.475000X-0.250000X0.475000X-0.250000X0.475000X0.250000X0*%
%TD*%
%TA.AperFunction,SMDPad,CuDef*%
%ADD18RoundRect,0.100000X-0.637500X-0.100000X0.637500X-0.100000X0.637500X0.100000X-0.637500X0.100000X0*%
%TD*%
%TA.AperFunction,SMDPad,CuDef*%
%ADD19RoundRect,0.250000X-0.450000X0.262500X-0.450000X-0.262500X0.450000X-0.262500X0.450000X0.262500X0*%
%TD*%
%TA.AperFunction,SMDPad,CuDef*%
%ADD20RoundRect,0.250000X0.450000X-0.262500X0.450000X0.262500X-0.450000X0.262500X-0.450000X-0.262500X0*%
%TD*%
%TA.AperFunction,SMDPad,CuDef*%
%ADD21RoundRect,0.150000X-0.587500X-0.150000X0.587500X-0.150000X0.587500X0.150000X-0.587500X0.150000X0*%
%TD*%
%TA.AperFunction,SMDPad,CuDef*%
%ADD22RoundRect,0.250000X-0.625000X0.375000X-0.625000X-0.375000X0.625000X-0.375000X0.625000X0.375000X0*%
%TD*%
%TA.AperFunction,SMDPad,CuDef*%
%ADD23RoundRect,0.250000X0.850000X0.350000X-0.850000X0.350000X-0.850000X-0.350000X0.850000X-0.350000X0*%
%TD*%
%TA.AperFunction,SMDPad,CuDef*%
%ADD24RoundRect,0.250000X1.275000X1.125000X-1.275000X1.125000X-1.275000X-1.125000X1.275000X-1.125000X0*%
%TD*%
%TA.AperFunction,SMDPad,CuDef*%
%ADD25RoundRect,0.249997X2.950003X2.650003X-2.950003X2.650003X-2.950003X-2.650003X2.950003X-2.650003X0*%
%TD*%
%TA.AperFunction,ComponentPad*%
%ADD26R,1.700000X1.700000*%
%TD*%
%TA.AperFunction,ComponentPad*%
%ADD27O,1.700000X1.700000*%
%TD*%
%TA.AperFunction,ViaPad*%
%ADD28C,1.200000*%
%TD*%
%TA.AperFunction,Conductor*%
%ADD29C,0.500000*%
%TD*%
%TA.AperFunction,Conductor*%
%ADD30C,1.000000*%
%TD*%
%TA.AperFunction,Conductor*%
%ADD31C,0.400000*%
%TD*%
G04 APERTURE END LIST*
D10*
%TO.P,R107,1*%
%TO.N,Net-(D103-A)*%
X112055000Y-64430000D03*
%TO.P,R107,2*%
%TO.N,Net-(BT101-LED1)*%
X110230000Y-64430000D03*
%TD*%
D11*
%TO.P,C104,1*%
%TO.N,/5V*%
X87150000Y-79990000D03*
%TO.P,C104,2*%
%TO.N,GND*%
X87150000Y-78090000D03*
%TD*%
D12*
%TO.P,BT101,1,TXD*%
%TO.N,Net-(BT101-TXD)*%
X94077500Y-58370000D03*
%TO.P,BT101,2,RXD*%
%TO.N,Net-(BT101-RXD)*%
X94077500Y-59870000D03*
%TO.P,BT101,3*%
%TO.N,N/C*%
X94077500Y-61370000D03*
%TO.P,BT101,4*%
X94077500Y-62870000D03*
%TO.P,BT101,5*%
X94077500Y-64370000D03*
%TO.P,BT101,6*%
X94077500Y-65870000D03*
%TO.P,BT101,7*%
X94077500Y-67370000D03*
%TO.P,BT101,8*%
X94077500Y-68870000D03*
%TO.P,BT101,9*%
X94077500Y-70370000D03*
%TO.P,BT101,10*%
X94077500Y-71870000D03*
%TO.P,BT101,11*%
X94077500Y-73370000D03*
%TO.P,BT101,12,VCC*%
%TO.N,/3V3*%
X94077500Y-74870000D03*
%TO.P,BT101,13,GND*%
%TO.N,GND*%
X94077500Y-76370000D03*
D13*
%TO.P,BT101,14*%
%TO.N,N/C*%
X95327500Y-78120000D03*
%TO.P,BT101,15*%
X96827500Y-78120000D03*
%TO.P,BT101,16*%
X98327500Y-78120000D03*
%TO.P,BT101,17*%
X99827500Y-78120000D03*
%TO.P,BT101,18*%
X101327500Y-78120000D03*
%TO.P,BT101,19*%
X102827500Y-78120000D03*
%TO.P,BT101,20*%
X104327500Y-78120000D03*
%TO.P,BT101,21*%
X105827500Y-78120000D03*
D12*
%TO.P,BT101,22*%
X107077500Y-76370000D03*
%TO.P,BT101,23*%
X107077500Y-74870000D03*
%TO.P,BT101,24*%
X107077500Y-73370000D03*
%TO.P,BT101,25*%
X107077500Y-71870000D03*
%TO.P,BT101,26,Key2*%
%TO.N,unconnected-(BT101-Key2-Pad26)*%
X107077500Y-70370000D03*
%TO.P,BT101,27*%
%TO.N,N/C*%
X107077500Y-68870000D03*
%TO.P,BT101,28*%
X107077500Y-67370000D03*
%TO.P,BT101,29*%
X107077500Y-65870000D03*
%TO.P,BT101,30*%
X107077500Y-64370000D03*
%TO.P,BT101,31,LED1*%
%TO.N,Net-(BT101-LED1)*%
X107077500Y-62870000D03*
%TO.P,BT101,32,LED2*%
%TO.N,Net-(BT101-LED2)*%
X107077500Y-61370000D03*
%TO.P,BT101,33*%
%TO.N,N/C*%
X107077500Y-59870000D03*
%TO.P,BT101,34,KEY1*%
%TO.N,Net-(BT101-KEY1)*%
X107077500Y-58370000D03*
%TD*%
D14*
%TO.P,JP101,1,A*%
%TO.N,GND*%
X109957500Y-59650000D03*
D15*
%TO.P,JP101,2,C*%
%TO.N,Net-(BT101-KEY1)*%
X109957500Y-58350000D03*
D16*
%TO.P,JP101,3,B*%
%TO.N,/3V3*%
X109957500Y-57050000D03*
%TD*%
D17*
%TO.P,C105,1*%
%TO.N,/3V3*%
X87100000Y-74610000D03*
%TO.P,C105,2*%
%TO.N,GND*%
X87100000Y-76510000D03*
%TD*%
D18*
%TO.P,U101,1,PB7/PB8*%
%TO.N,/USART1_RX*%
X81065000Y-65110000D03*
%TO.P,U101,2,PC14/PB9*%
%TO.N,unconnected-(U101-PC14{slash}PB9-Pad2)*%
X81065000Y-65760000D03*
%TO.P,U101,3,PC15*%
%TO.N,unconnected-(U101-PC15-Pad3)*%
X81065000Y-66410000D03*
%TO.P,U101,4,VDD*%
%TO.N,/3V3*%
X81065000Y-67060000D03*
%TO.P,U101,5,VSS*%
%TO.N,GND*%
X81065000Y-67710000D03*
%TO.P,U101,6,NRST*%
%TO.N,Net-(U101-NRST)*%
X81065000Y-68360000D03*
%TO.P,U101,7,PA0*%
%TO.N,unconnected-(U101-PA0-Pad7)*%
X81065000Y-69010000D03*
%TO.P,U101,8,PA1*%
%TO.N,unconnected-(U101-PA1-Pad8)*%
X81065000Y-69660000D03*
%TO.P,U101,9,PA2*%
%TO.N,/USART2_TX*%
X81065000Y-70310000D03*
%TO.P,U101,10,PA3*%
%TO.N,/USART2_RX*%
X81065000Y-70960000D03*
%TO.P,U101,11,PA4*%
%TO.N,unconnected-(U101-PA4-Pad11)*%
X86790000Y-70960000D03*
%TO.P,U101,12,PA5*%
%TO.N,unconnected-(U101-PA5-Pad12)*%
X86790000Y-70310000D03*
%TO.P,U101,13,PA6*%
%TO.N,unconnected-(U101-PA6-Pad13)*%
X86790000Y-69660000D03*
%TO.P,U101,14,PA7*%
%TO.N,/INPUT*%
X86790000Y-69010000D03*
%TO.P,U101,15,PB0/PB1/PB2/PA8*%
%TO.N,unconnected-(U101-PB0{slash}PB1{slash}PB2{slash}PA8-Pad15)*%
X86790000Y-68360000D03*
%TO.P,U101,16,PA11/PA9*%
%TO.N,unconnected-(U101-PA11{slash}PA9-Pad16)*%
X86790000Y-67710000D03*
%TO.P,U101,17,PA12/PA10*%
%TO.N,unconnected-(U101-PA12{slash}PA10-Pad17)*%
X86790000Y-67060000D03*
%TO.P,U101,18,PA13*%
%TO.N,/SWDIO*%
X86790000Y-66410000D03*
%TO.P,U101,19,PA14/PA15*%
%TO.N,/SWDCLK*%
X86790000Y-65760000D03*
%TO.P,U101,20,PB3/PB4/PB5/PB6*%
%TO.N,/USART1_TX*%
X86790000Y-65110000D03*
%TD*%
D19*
%TO.P,R104,1*%
%TO.N,Net-(J105-Pin_1)*%
X80440000Y-60287500D03*
%TO.P,R104,2*%
%TO.N,/INPUT*%
X80440000Y-62112500D03*
%TD*%
D10*
%TO.P,R105,1*%
%TO.N,Net-(J105-Pin_1)*%
X84222500Y-53800000D03*
%TO.P,R105,2*%
%TO.N,Net-(D102-A)*%
X82397500Y-53800000D03*
%TD*%
D20*
%TO.P,R102,1*%
%TO.N,/USART1_RX*%
X82750000Y-63032500D03*
%TO.P,R102,2*%
%TO.N,Net-(BT101-TXD)*%
X82750000Y-61207500D03*
%TD*%
%TO.P,R101,1*%
%TO.N,/USART1_TX*%
X85730000Y-62972500D03*
%TO.P,R101,2*%
%TO.N,Net-(BT101-RXD)*%
X85730000Y-61147500D03*
%TD*%
D17*
%TO.P,C103,1*%
%TO.N,/3V3*%
X89200000Y-74710000D03*
%TO.P,C103,2*%
%TO.N,GND*%
X89200000Y-76610000D03*
%TD*%
D10*
%TO.P,R108,1*%
%TO.N,Net-(D103-A)*%
X112095000Y-62440000D03*
%TO.P,R108,2*%
%TO.N,Net-(BT101-LED2)*%
X110270000Y-62440000D03*
%TD*%
D21*
%TO.P,D101,1,A*%
%TO.N,GND*%
X76512500Y-60967500D03*
%TO.P,D101,2,NC*%
%TO.N,unconnected-(D101-NC-Pad2)*%
X76512500Y-62867500D03*
%TO.P,D101,3,K*%
%TO.N,/INPUT*%
X78387500Y-61917500D03*
%TD*%
D17*
%TO.P,C101,1*%
%TO.N,/3V3*%
X78830000Y-66370000D03*
%TO.P,C101,2*%
%TO.N,GND*%
X78830000Y-68270000D03*
%TD*%
%TO.P,C102,1*%
%TO.N,/3V3*%
X91310000Y-74730000D03*
%TO.P,C102,2*%
%TO.N,GND*%
X91310000Y-76630000D03*
%TD*%
D22*
%TO.P,D103,1,K*%
%TO.N,GND*%
X89710000Y-49120000D03*
%TO.P,D103,2,A*%
%TO.N,Net-(D103-A)*%
X89710000Y-51920000D03*
%TD*%
D10*
%TO.P,R103,1*%
%TO.N,/3V3*%
X84580000Y-72670000D03*
%TO.P,R103,2*%
%TO.N,Net-(U101-NRST)*%
X82755000Y-72670000D03*
%TD*%
D22*
%TO.P,D102,1,K*%
%TO.N,GND*%
X82650000Y-49060000D03*
%TO.P,D102,2,A*%
%TO.N,Net-(D102-A)*%
X82650000Y-51860000D03*
%TD*%
D23*
%TO.P,U102,1,IN*%
%TO.N,/5V*%
X84615000Y-80015000D03*
%TO.P,U102,2,GND*%
%TO.N,GND*%
X84615000Y-77735000D03*
D24*
X79990000Y-79260000D03*
X79990000Y-76210000D03*
D25*
X78315000Y-77735000D03*
D24*
X76640000Y-79260000D03*
X76640000Y-76210000D03*
D23*
%TO.P,U102,3,OUT*%
%TO.N,/3V3*%
X84615000Y-75455000D03*
%TD*%
D19*
%TO.P,R106,1*%
%TO.N,Net-(J105-Pin_1)*%
X86000000Y-53625000D03*
%TO.P,R106,2*%
%TO.N,/5V*%
X86000000Y-55450000D03*
%TD*%
D26*
%TO.P,J101,1,Pin_1*%
%TO.N,/SWDCLK*%
X89990000Y-64505000D03*
D27*
%TO.P,J101,2,Pin_2*%
%TO.N,/SWDIO*%
X89990000Y-67045000D03*
%TD*%
D26*
%TO.P,J103,1,Pin_1*%
%TO.N,/5V*%
X90910000Y-82660000D03*
%TD*%
%TO.P,J107,1,Pin_1*%
%TO.N,GND*%
X101260000Y-82750000D03*
%TD*%
%TO.P,J102,1,Pin_1*%
%TO.N,GND*%
X76480000Y-68430000D03*
D27*
%TO.P,J102,2,Pin_2*%
%TO.N,/3V3*%
X76480000Y-65890000D03*
%TD*%
D26*
%TO.P,J106,1,Pin_1*%
%TO.N,/5V*%
X87250000Y-82660000D03*
%TD*%
%TO.P,J104,1,Pin_1*%
%TO.N,GND*%
X97590000Y-82760000D03*
%TD*%
%TO.P,J105,1,Pin_1*%
%TO.N,Net-(J105-Pin_1)*%
X86060000Y-51720000D03*
%TD*%
D28*
%TO.N,/5V*%
X88590000Y-79990000D03*
X86000000Y-56670000D03*
%TD*%
D29*
%TO.N,Net-(BT101-RXD)*%
X85730000Y-60430000D02*
X85730000Y-61147500D01*
X94077500Y-59870000D02*
X86290000Y-59870000D01*
X86290000Y-59870000D02*
X85730000Y-60430000D01*
%TO.N,Net-(BT101-TXD)*%
X82750000Y-59760000D02*
X84140000Y-58370000D01*
X82750000Y-61207500D02*
X82750000Y-59760000D01*
X84140000Y-58370000D02*
X94077500Y-58370000D01*
D30*
%TO.N,GND*%
X86795000Y-77735000D02*
X87150000Y-78090000D01*
X87100000Y-76510000D02*
X91190000Y-76510000D01*
X87150000Y-76560000D02*
X87100000Y-76510000D01*
X91190000Y-76510000D02*
X91310000Y-76630000D01*
X84615000Y-77735000D02*
X86795000Y-77735000D01*
D31*
X79390000Y-67710000D02*
X78830000Y-68270000D01*
X81065000Y-67710000D02*
X79390000Y-67710000D01*
X78830000Y-68270000D02*
X76640000Y-68270000D01*
D29*
X89200000Y-76610000D02*
X91290000Y-76610000D01*
X94077500Y-76370000D02*
X91570000Y-76370000D01*
D30*
X87150000Y-78090000D02*
X87150000Y-76560000D01*
D29*
X91570000Y-76370000D02*
X91310000Y-76630000D01*
%TO.N,Net-(BT101-KEY1)*%
X107077500Y-58370000D02*
X109937500Y-58370000D01*
D31*
%TO.N,/3V3*%
X84580000Y-71600000D02*
X83820000Y-70840000D01*
D29*
X94077500Y-74870000D02*
X91450000Y-74870000D01*
D31*
X104070000Y-57680000D02*
X104700000Y-57050000D01*
D30*
X76960000Y-66370000D02*
X76480000Y-65890000D01*
D31*
X101140000Y-74870000D02*
X104070000Y-71940000D01*
X81065000Y-67060000D02*
X79520000Y-67060000D01*
D30*
X84615000Y-75455000D02*
X84615000Y-72705000D01*
D31*
X84580000Y-72670000D02*
X84580000Y-71600000D01*
X79520000Y-67060000D02*
X78830000Y-66370000D01*
X83820000Y-67520000D02*
X83360000Y-67060000D01*
D30*
X84615000Y-72705000D02*
X84580000Y-72670000D01*
D31*
X104070000Y-71940000D02*
X104070000Y-57680000D01*
X104700000Y-57050000D02*
X109957500Y-57050000D01*
D30*
X85340000Y-74730000D02*
X84615000Y-75455000D01*
X89220000Y-74730000D02*
X89200000Y-74710000D01*
X91310000Y-74730000D02*
X85340000Y-74730000D01*
D31*
X83360000Y-67060000D02*
X81065000Y-67060000D01*
X94077500Y-74870000D02*
X101140000Y-74870000D01*
X83820000Y-70840000D02*
X83820000Y-67520000D01*
D30*
X78830000Y-66370000D02*
X76960000Y-66370000D01*
D31*
%TO.N,/SWDCLK*%
X86790000Y-65760000D02*
X88735000Y-65760000D01*
X88735000Y-65760000D02*
X89990000Y-64505000D01*
%TO.N,/SWDIO*%
X89355000Y-66410000D02*
X89990000Y-67045000D01*
X86790000Y-66410000D02*
X89355000Y-66410000D01*
%TO.N,Net-(U101-NRST)*%
X82365000Y-68360000D02*
X82755000Y-68750000D01*
X81065000Y-68360000D02*
X82365000Y-68360000D01*
X82755000Y-68750000D02*
X82755000Y-72670000D01*
%TO.N,/INPUT*%
X83476166Y-62120000D02*
X84240000Y-62883834D01*
X81470000Y-62120000D02*
X81462500Y-62112500D01*
X78387500Y-61917500D02*
X80245000Y-61917500D01*
X85160000Y-65780000D02*
X85160000Y-68640000D01*
X84240000Y-62883834D02*
X84240000Y-64860000D01*
X85530000Y-69010000D02*
X86790000Y-69010000D01*
X81470000Y-62120000D02*
X83476166Y-62120000D01*
X84240000Y-64860000D02*
X85160000Y-65780000D01*
X85160000Y-68640000D02*
X85530000Y-69010000D01*
X81462500Y-62112500D02*
X80440000Y-62112500D01*
%TO.N,/USART1_TX*%
X86790000Y-65110000D02*
X86000000Y-65110000D01*
X85730000Y-62972500D02*
X85730000Y-64840000D01*
X85730000Y-64840000D02*
X86000000Y-65110000D01*
%TO.N,/USART1_RX*%
X82020000Y-65110000D02*
X82750000Y-64380000D01*
X82750000Y-64380000D02*
X82750000Y-63032500D01*
X81065000Y-65110000D02*
X82020000Y-65110000D01*
D30*
%TO.N,/5V*%
X87250000Y-80090000D02*
X87150000Y-79990000D01*
X87250000Y-82660000D02*
X90910000Y-82660000D01*
X84615000Y-80015000D02*
X87125000Y-80015000D01*
X87250000Y-82660000D02*
X87250000Y-80090000D01*
X86000000Y-55450000D02*
X86000000Y-56670000D01*
X87150000Y-79990000D02*
X88590000Y-79990000D01*
X87125000Y-80015000D02*
X87150000Y-79990000D01*
D29*
%TO.N,Net-(J105-Pin_1)*%
X85570000Y-53800000D02*
X86060000Y-53310000D01*
X86060000Y-53310000D02*
X86060000Y-51720000D01*
X84222500Y-56047500D02*
X84222500Y-53800000D01*
X81570000Y-56760000D02*
X83510000Y-56760000D01*
D30*
X86000000Y-53625000D02*
X86000000Y-51780000D01*
D29*
X83510000Y-56760000D02*
X84222500Y-56047500D01*
X80440000Y-57890000D02*
X81570000Y-56760000D01*
X84222500Y-53800000D02*
X85570000Y-53800000D01*
X80440000Y-60287500D02*
X80440000Y-57890000D01*
%TO.N,Net-(D102-A)*%
X82650000Y-51860000D02*
X82650000Y-53547500D01*
%TO.N,Net-(BT101-LED1)*%
X108670000Y-62870000D02*
X110230000Y-64430000D01*
X107077500Y-62870000D02*
X108670000Y-62870000D01*
%TO.N,Net-(BT101-LED2)*%
X109200000Y-61370000D02*
X110270000Y-62440000D01*
X107077500Y-61370000D02*
X109200000Y-61370000D01*
%TO.N,Net-(D103-A)*%
X89710000Y-53170000D02*
X90340000Y-53800000D01*
X89710000Y-51920000D02*
X89710000Y-53170000D01*
X110990000Y-53800000D02*
X113120000Y-55930000D01*
X90340000Y-53800000D02*
X110990000Y-53800000D01*
X113120000Y-61050000D02*
X113120000Y-55930000D01*
X112055000Y-64430000D02*
X112055000Y-62480000D01*
X112095000Y-62075000D02*
X113120000Y-61050000D01*
%TD*%
%TA.AperFunction,Conductor*%
%TO.N,GND*%
G36*
X111712169Y-48250501D02*
G01*
X111774817Y-48250500D01*
X111781304Y-48250669D01*
X112086161Y-48266643D01*
X112099042Y-48267996D01*
X112397371Y-48315243D01*
X112410056Y-48317940D01*
X112701794Y-48396107D01*
X112714099Y-48400105D01*
X112996103Y-48508352D01*
X113007926Y-48513617D01*
X113277040Y-48650735D01*
X113288263Y-48657213D01*
X113541575Y-48821713D01*
X113552069Y-48829338D01*
X113786781Y-49019401D01*
X113796427Y-49028086D01*
X114009988Y-49241644D01*
X114018673Y-49251290D01*
X114208737Y-49485996D01*
X114216366Y-49496496D01*
X114380857Y-49749788D01*
X114387347Y-49761029D01*
X114524461Y-50030127D01*
X114529740Y-50041984D01*
X114637972Y-50323937D01*
X114641983Y-50336281D01*
X114720153Y-50628013D01*
X114722851Y-50640709D01*
X114770095Y-50938997D01*
X114771452Y-50951905D01*
X114787385Y-51255897D01*
X114787555Y-51262387D01*
X114787555Y-82894809D01*
X114787385Y-82901299D01*
X114771408Y-83206147D01*
X114770051Y-83219054D01*
X114722808Y-83517343D01*
X114720110Y-83530039D01*
X114641943Y-83821764D01*
X114637932Y-83834109D01*
X114529700Y-84116062D01*
X114524421Y-84127919D01*
X114387307Y-84397020D01*
X114380817Y-84408260D01*
X114216334Y-84661542D01*
X114208705Y-84672043D01*
X114018637Y-84906758D01*
X114009952Y-84916403D01*
X113796403Y-85129952D01*
X113786758Y-85138637D01*
X113552043Y-85328705D01*
X113541542Y-85336334D01*
X113288260Y-85500817D01*
X113277020Y-85507307D01*
X113007919Y-85644421D01*
X112996062Y-85649700D01*
X112714109Y-85757932D01*
X112701764Y-85761943D01*
X112410039Y-85840110D01*
X112397343Y-85842808D01*
X112099054Y-85890051D01*
X112086147Y-85891408D01*
X111781300Y-85907385D01*
X111774810Y-85907555D01*
X76663246Y-85907555D01*
X76656756Y-85907385D01*
X76351910Y-85891408D01*
X76339002Y-85890051D01*
X76040718Y-85842807D01*
X76028022Y-85840109D01*
X75736295Y-85761940D01*
X75723951Y-85757929D01*
X75442002Y-85649699D01*
X75430144Y-85644419D01*
X75161051Y-85507307D01*
X75149811Y-85500818D01*
X74896522Y-85336329D01*
X74886022Y-85328700D01*
X74651320Y-85138640D01*
X74641674Y-85129955D01*
X74428119Y-84916397D01*
X74419434Y-84906751D01*
X74229374Y-84672043D01*
X74221745Y-84661542D01*
X74156634Y-84561278D01*
X74057252Y-84408240D01*
X74050775Y-84397020D01*
X73913659Y-84127908D01*
X73908388Y-84116069D01*
X73800154Y-83834101D01*
X73796150Y-83821780D01*
X73717982Y-83530039D01*
X73715287Y-83517365D01*
X73668040Y-83219038D01*
X73666687Y-83206147D01*
X73650670Y-82900439D01*
X73650500Y-82893949D01*
X73650501Y-82832169D01*
X73650500Y-82832164D01*
X73650500Y-79614983D01*
X83014500Y-79614983D01*
X83014500Y-80415001D01*
X83014501Y-80415019D01*
X83025000Y-80517796D01*
X83025001Y-80517799D01*
X83080185Y-80684331D01*
X83080186Y-80684334D01*
X83172288Y-80833656D01*
X83296344Y-80957712D01*
X83445666Y-81049814D01*
X83612203Y-81104999D01*
X83714991Y-81115500D01*
X85515008Y-81115499D01*
X85617797Y-81104999D01*
X85784334Y-81049814D01*
X85810036Y-81033960D01*
X85875132Y-81015500D01*
X86125500Y-81015500D01*
X86192539Y-81035185D01*
X86238294Y-81087989D01*
X86249500Y-81139500D01*
X86249500Y-81245858D01*
X86229815Y-81312897D01*
X86177011Y-81358652D01*
X86168847Y-81362034D01*
X86157669Y-81366204D01*
X86157664Y-81366206D01*
X86042455Y-81452452D01*
X86042452Y-81452455D01*
X85956206Y-81567664D01*
X85956202Y-81567671D01*
X85905908Y-81702517D01*
X85899501Y-81762116D01*
X85899501Y-81762123D01*
X85899500Y-81762135D01*
X85899500Y-83557870D01*
X85899501Y-83557876D01*
X85905908Y-83617483D01*
X85956202Y-83752328D01*
X85956206Y-83752335D01*
X86042452Y-83867544D01*
X86042455Y-83867547D01*
X86157664Y-83953793D01*
X86157671Y-83953797D01*
X86292517Y-84004091D01*
X86292516Y-84004091D01*
X86299444Y-84004835D01*
X86352127Y-84010500D01*
X88147872Y-84010499D01*
X88207483Y-84004091D01*
X88342331Y-83953796D01*
X88457546Y-83867546D01*
X88543796Y-83752331D01*
X88547960Y-83741165D01*
X88589829Y-83685234D01*
X88655293Y-83660816D01*
X88664141Y-83660500D01*
X89495859Y-83660500D01*
X89562898Y-83680185D01*
X89608653Y-83732989D01*
X89612030Y-83741140D01*
X89616204Y-83752331D01*
X89616205Y-83752332D01*
X89616206Y-83752335D01*
X89702452Y-83867544D01*
X89702455Y-83867547D01*
X89817664Y-83953793D01*
X89817671Y-83953797D01*
X89952517Y-84004091D01*
X89952516Y-84004091D01*
X89959444Y-84004835D01*
X90012127Y-84010500D01*
X91807872Y-84010499D01*
X91867483Y-84004091D01*
X92002331Y-83953796D01*
X92117546Y-83867546D01*
X92203796Y-83752331D01*
X92254091Y-83617483D01*
X92260500Y-83557873D01*
X92260500Y-82776767D01*
X109927556Y-82776767D01*
X109927556Y-83019344D01*
X109959217Y-83259841D01*
X110022003Y-83494160D01*
X110101149Y-83685234D01*
X110114832Y-83718268D01*
X110236120Y-83928345D01*
X110236122Y-83928348D01*
X110236123Y-83928349D01*
X110383789Y-84120792D01*
X110383795Y-84120799D01*
X110555312Y-84292316D01*
X110555318Y-84292321D01*
X110747767Y-84439992D01*
X110957844Y-84561280D01*
X111181956Y-84654110D01*
X111416267Y-84716894D01*
X111596642Y-84740640D01*
X111656767Y-84748556D01*
X111656768Y-84748556D01*
X111899345Y-84748556D01*
X111947444Y-84742223D01*
X112139845Y-84716894D01*
X112374156Y-84654110D01*
X112598268Y-84561280D01*
X112808345Y-84439992D01*
X113000794Y-84292321D01*
X113172321Y-84120794D01*
X113319992Y-83928345D01*
X113441280Y-83718268D01*
X113534110Y-83494156D01*
X113596894Y-83259845D01*
X113628556Y-83019344D01*
X113628556Y-82776768D01*
X113596894Y-82536267D01*
X113534110Y-82301956D01*
X113441280Y-82077844D01*
X113319992Y-81867767D01*
X113238923Y-81762116D01*
X113172322Y-81675319D01*
X113172316Y-81675312D01*
X113000799Y-81503795D01*
X113000792Y-81503789D01*
X112808349Y-81356123D01*
X112808348Y-81356122D01*
X112808345Y-81356120D01*
X112598268Y-81234832D01*
X112598261Y-81234829D01*
X112374160Y-81142003D01*
X112236056Y-81104998D01*
X112139845Y-81079218D01*
X112139844Y-81079217D01*
X112139841Y-81079217D01*
X111899345Y-81047556D01*
X111899344Y-81047556D01*
X111656768Y-81047556D01*
X111656767Y-81047556D01*
X111416270Y-81079217D01*
X111181951Y-81142003D01*
X110957850Y-81234829D01*
X110957841Y-81234833D01*
X110747762Y-81356123D01*
X110555319Y-81503789D01*
X110555312Y-81503795D01*
X110383795Y-81675312D01*
X110383789Y-81675319D01*
X110236123Y-81867762D01*
X110114833Y-82077841D01*
X110114829Y-82077850D01*
X110022003Y-82301951D01*
X109959217Y-82536270D01*
X109927556Y-82776767D01*
X92260500Y-82776767D01*
X92260499Y-81762128D01*
X92254091Y-81702517D01*
X92243946Y-81675318D01*
X92203797Y-81567671D01*
X92203793Y-81567664D01*
X92117547Y-81452455D01*
X92117544Y-81452452D01*
X92002335Y-81366206D01*
X92002328Y-81366202D01*
X91867482Y-81315908D01*
X91867483Y-81315908D01*
X91807883Y-81309501D01*
X91807881Y-81309500D01*
X91807873Y-81309500D01*
X91807864Y-81309500D01*
X90012129Y-81309500D01*
X90012123Y-81309501D01*
X89952516Y-81315908D01*
X89817671Y-81366202D01*
X89817664Y-81366206D01*
X89702455Y-81452452D01*
X89702452Y-81452455D01*
X89616206Y-81567664D01*
X89616204Y-81567668D01*
X89616204Y-81567669D01*
X89612039Y-81578834D01*
X89570171Y-81634766D01*
X89504707Y-81659184D01*
X89495859Y-81659500D01*
X88664141Y-81659500D01*
X88597102Y-81639815D01*
X88551347Y-81587011D01*
X88547969Y-81578859D01*
X88543796Y-81567669D01*
X88543793Y-81567665D01*
X88543793Y-81567664D01*
X88457547Y-81452455D01*
X88457544Y-81452452D01*
X88342335Y-81366206D01*
X88342332Y-81366205D01*
X88342331Y-81366204D01*
X88331161Y-81362038D01*
X88275231Y-81320166D01*
X88250816Y-81254701D01*
X88250500Y-81245858D01*
X88250500Y-81195426D01*
X88270185Y-81128387D01*
X88322989Y-81082632D01*
X88392147Y-81072688D01*
X88397229Y-81073527D01*
X88488024Y-81090500D01*
X88488027Y-81090500D01*
X88691974Y-81090500D01*
X88691976Y-81090500D01*
X88892456Y-81053024D01*
X89082637Y-80979348D01*
X89256041Y-80871981D01*
X89406764Y-80734579D01*
X89529673Y-80571821D01*
X89620582Y-80389250D01*
X89676397Y-80193083D01*
X89695215Y-79990000D01*
X89676397Y-79786917D01*
X89620582Y-79590750D01*
X89581470Y-79512203D01*
X89557365Y-79463793D01*
X89529673Y-79408179D01*
X89406764Y-79245421D01*
X89406762Y-79245418D01*
X89256041Y-79108019D01*
X89256039Y-79108017D01*
X89082642Y-79000655D01*
X89082635Y-79000651D01*
X88987546Y-78963814D01*
X88892456Y-78926976D01*
X88691976Y-78889500D01*
X88488024Y-78889500D01*
X88287544Y-78926976D01*
X88287541Y-78926976D01*
X88287541Y-78926977D01*
X88147763Y-78981127D01*
X88102969Y-78989500D01*
X86624998Y-78989500D01*
X86624980Y-78989501D01*
X86522203Y-79000000D01*
X86503617Y-79006159D01*
X86497441Y-79008206D01*
X86458438Y-79014500D01*
X85875132Y-79014500D01*
X85810036Y-78996039D01*
X85784334Y-78980186D01*
X85617797Y-78925001D01*
X85617795Y-78925000D01*
X85515010Y-78914500D01*
X83714998Y-78914500D01*
X83714981Y-78914501D01*
X83612203Y-78925000D01*
X83612200Y-78925001D01*
X83445668Y-78980185D01*
X83445663Y-78980187D01*
X83296342Y-79072289D01*
X83172289Y-79196342D01*
X83080187Y-79345663D01*
X83080185Y-79345668D01*
X83059471Y-79408179D01*
X83025001Y-79512203D01*
X83025001Y-79512204D01*
X83025000Y-79512204D01*
X83014500Y-79614983D01*
X73650500Y-79614983D01*
X73650500Y-65889999D01*
X75124341Y-65889999D01*
X75124341Y-65890000D01*
X75144936Y-66125403D01*
X75144938Y-66125413D01*
X75206094Y-66353655D01*
X75206096Y-66353659D01*
X75206097Y-66353663D01*
X75263836Y-66477484D01*
X75305965Y-66567830D01*
X75305967Y-66567834D01*
X75414281Y-66722521D01*
X75441505Y-66761401D01*
X75608599Y-66928495D01*
X75658153Y-66963193D01*
X75802165Y-67064032D01*
X75802167Y-67064033D01*
X75802170Y-67064035D01*
X76016337Y-67163903D01*
X76244592Y-67225063D01*
X76437458Y-67241936D01*
X76480301Y-67254679D01*
X76480458Y-67254301D01*
X76484097Y-67255808D01*
X76485111Y-67256110D01*
X76486080Y-67256628D01*
X76486086Y-67256632D01*
X76668165Y-67332052D01*
X76823680Y-67362986D01*
X76861455Y-67370500D01*
X76861458Y-67370501D01*
X76861460Y-67370501D01*
X77064655Y-67370501D01*
X77064675Y-67370500D01*
X78304991Y-67370500D01*
X78788482Y-67370500D01*
X78855521Y-67390185D01*
X78876163Y-67406819D01*
X78975886Y-67506542D01*
X79039982Y-67570638D01*
X79073459Y-67604115D01*
X79188182Y-67680771D01*
X79188186Y-67680773D01*
X79188189Y-67680775D01*
X79262866Y-67711707D01*
X79262867Y-67711707D01*
X79262869Y-67711709D01*
X79289728Y-67722834D01*
X79315671Y-67733580D01*
X79325143Y-67735464D01*
X79375488Y-67745478D01*
X79451004Y-67760500D01*
X79451007Y-67760500D01*
X79802418Y-67760500D01*
X79869457Y-67780185D01*
X79915212Y-67832989D01*
X79925156Y-67902147D01*
X79905358Y-67949154D01*
X79907028Y-67950119D01*
X79902965Y-67957156D01*
X79842456Y-68103237D01*
X79842455Y-68103239D01*
X79827000Y-68220638D01*
X79827000Y-68499363D01*
X79842453Y-68616753D01*
X79842457Y-68616765D01*
X79851066Y-68637550D01*
X79858533Y-68707019D01*
X79851066Y-68732450D01*
X79842457Y-68753234D01*
X79842455Y-68753239D01*
X79827000Y-68870638D01*
X79827000Y-69149363D01*
X79842453Y-69266753D01*
X79842457Y-69266765D01*
X79851066Y-69287550D01*
X79858533Y-69357019D01*
X79851066Y-69382450D01*
X79842457Y-69403234D01*
X79842455Y-69403239D01*
X79827000Y-69520638D01*
X79827000Y-69799363D01*
X79842453Y-69916753D01*
X79842457Y-69916765D01*
X79851066Y-69937550D01*
X79858533Y-70007019D01*
X79851066Y-70032450D01*
X79842457Y-70053234D01*
X79842455Y-70053239D01*
X79827000Y-70170638D01*
X79827000Y-70449363D01*
X79842453Y-70566753D01*
X79842457Y-70566765D01*
X79851066Y-70587550D01*
X79858533Y-70657019D01*
X79851066Y-70682450D01*
X79842457Y-70703234D01*
X79842455Y-70703239D01*
X79827000Y-70820638D01*
X79827000Y-71099363D01*
X79842453Y-71216753D01*
X79842456Y-71216762D01*
X79902964Y-71362841D01*
X79999218Y-71488282D01*
X80124659Y-71584536D01*
X80270738Y-71645044D01*
X80388139Y-71660500D01*
X81733647Y-71660499D01*
X81800686Y-71680184D01*
X81846441Y-71732987D01*
X81856385Y-71802146D01*
X81839186Y-71849595D01*
X81825980Y-71871006D01*
X81807686Y-71900666D01*
X81752501Y-72067203D01*
X81752501Y-72067204D01*
X81752500Y-72067204D01*
X81742000Y-72169983D01*
X81742000Y-73170001D01*
X81742001Y-73170019D01*
X81752500Y-73272796D01*
X81752501Y-73272799D01*
X81807685Y-73439331D01*
X81807686Y-73439334D01*
X81899788Y-73588656D01*
X82023844Y-73712712D01*
X82173166Y-73804814D01*
X82339703Y-73859999D01*
X82442491Y-73870500D01*
X83067508Y-73870499D01*
X83067516Y-73870498D01*
X83067519Y-73870498D01*
X83123802Y-73864748D01*
X83170297Y-73859999D01*
X83336834Y-73804814D01*
X83425404Y-73750183D01*
X83492796Y-73731744D01*
X83559459Y-73752667D01*
X83604229Y-73806309D01*
X83614500Y-73855723D01*
X83614500Y-74274699D01*
X83594815Y-74341738D01*
X83542011Y-74387493D01*
X83529507Y-74392403D01*
X83496962Y-74403188D01*
X83445668Y-74420185D01*
X83445663Y-74420187D01*
X83296342Y-74512289D01*
X83172289Y-74636342D01*
X83080187Y-74785663D01*
X83080186Y-74785666D01*
X83025001Y-74952203D01*
X83025001Y-74952204D01*
X83025000Y-74952204D01*
X83014500Y-75054983D01*
X83014500Y-75855001D01*
X83014501Y-75855019D01*
X83025000Y-75957796D01*
X83025001Y-75957799D01*
X83080185Y-76124331D01*
X83080186Y-76124334D01*
X83172288Y-76273656D01*
X83296344Y-76397712D01*
X83445666Y-76489814D01*
X83612203Y-76544999D01*
X83714991Y-76555500D01*
X85515008Y-76555499D01*
X85617797Y-76544999D01*
X85784334Y-76489814D01*
X85933656Y-76397712D01*
X86057712Y-76273656D01*
X86149814Y-76124334D01*
X86204999Y-75957797D01*
X86215500Y-75855009D01*
X86215500Y-75854500D01*
X86215531Y-75854394D01*
X86215660Y-75851861D01*
X86215820Y-75851869D01*
X86215821Y-75851868D01*
X86215844Y-75851870D01*
X86216265Y-75851891D01*
X86235185Y-75787461D01*
X86287989Y-75741706D01*
X86339500Y-75730500D01*
X91422975Y-75730500D01*
X91422983Y-75730499D01*
X91835002Y-75730499D01*
X91835008Y-75730499D01*
X91937797Y-75719999D01*
X92104334Y-75664814D01*
X92134253Y-75646360D01*
X92146249Y-75638961D01*
X92211345Y-75620500D01*
X92577749Y-75620500D01*
X92644788Y-75640185D01*
X92677015Y-75670188D01*
X92714304Y-75719999D01*
X92719954Y-75727546D01*
X92723899Y-75730499D01*
X92835164Y-75813793D01*
X92835171Y-75813797D01*
X92970017Y-75864091D01*
X92970016Y-75864091D01*
X92976944Y-75864835D01*
X93029627Y-75870500D01*
X95125372Y-75870499D01*
X95184983Y-75864091D01*
X95319831Y-75813796D01*
X95435046Y-75727546D01*
X95515414Y-75620188D01*
X95571347Y-75578318D01*
X95614680Y-75570500D01*
X101208996Y-75570500D01*
X101300040Y-75552389D01*
X101344328Y-75543580D01*
X101408069Y-75517177D01*
X101471807Y-75490777D01*
X101471808Y-75490776D01*
X101471811Y-75490775D01*
X101586543Y-75414114D01*
X104614114Y-72386543D01*
X104690775Y-72271811D01*
X104743580Y-72144328D01*
X104770500Y-72008994D01*
X104770500Y-71871006D01*
X104770500Y-58021519D01*
X104790185Y-57954480D01*
X104806819Y-57933838D01*
X104953838Y-57786819D01*
X105015161Y-57753334D01*
X105041519Y-57750500D01*
X105453000Y-57750500D01*
X105520039Y-57770185D01*
X105565794Y-57822989D01*
X105577000Y-57874500D01*
X105577000Y-58917870D01*
X105577001Y-58917876D01*
X105583409Y-58977484D01*
X105620401Y-59076668D01*
X105625385Y-59146360D01*
X105620401Y-59163332D01*
X105583409Y-59262514D01*
X105583408Y-59262516D01*
X105577001Y-59322116D01*
X105577000Y-59322127D01*
X105577000Y-60417870D01*
X105577001Y-60417876D01*
X105583409Y-60477484D01*
X105620401Y-60576668D01*
X105625385Y-60646360D01*
X105620401Y-60663332D01*
X105583409Y-60762514D01*
X105583408Y-60762516D01*
X105580217Y-60792203D01*
X105577001Y-60822123D01*
X105577000Y-60822135D01*
X105577000Y-61917870D01*
X105577001Y-61917876D01*
X105583409Y-61977484D01*
X105620401Y-62076668D01*
X105625385Y-62146360D01*
X105620401Y-62163332D01*
X105583409Y-62262514D01*
X105583408Y-62262516D01*
X105577001Y-62322116D01*
X105577001Y-62322123D01*
X105577000Y-62322135D01*
X105577000Y-63417870D01*
X105577001Y-63417876D01*
X105583409Y-63477484D01*
X105620401Y-63576668D01*
X105625385Y-63646360D01*
X105620401Y-63663332D01*
X105583409Y-63762514D01*
X105583408Y-63762516D01*
X105577001Y-63822116D01*
X105577001Y-63822123D01*
X105577000Y-63822135D01*
X105577000Y-64917870D01*
X105577001Y-64917876D01*
X105583409Y-64977484D01*
X105620401Y-65076668D01*
X105625385Y-65146360D01*
X105620401Y-65163332D01*
X105583409Y-65262514D01*
X105583408Y-65262516D01*
X105578675Y-65306545D01*
X105577001Y-65322123D01*
X105577000Y-65322135D01*
X105577000Y-66417870D01*
X105577001Y-66417876D01*
X105583409Y-66477484D01*
X105620401Y-66576668D01*
X105625385Y-66646360D01*
X105620401Y-66663332D01*
X105583409Y-66762514D01*
X105583408Y-66762516D01*
X105578347Y-66809596D01*
X105577001Y-66822123D01*
X105577000Y-66822135D01*
X105577000Y-67917870D01*
X105577001Y-67917876D01*
X105583409Y-67977484D01*
X105620401Y-68076668D01*
X105625385Y-68146360D01*
X105620401Y-68163332D01*
X105583409Y-68262514D01*
X105583408Y-68262516D01*
X105577346Y-68318905D01*
X105577001Y-68322123D01*
X105577000Y-68322135D01*
X105577000Y-69417870D01*
X105577001Y-69417876D01*
X105583409Y-69477484D01*
X105620401Y-69576668D01*
X105625385Y-69646360D01*
X105620401Y-69663332D01*
X105583409Y-69762514D01*
X105583408Y-69762516D01*
X105579447Y-69799363D01*
X105577001Y-69822123D01*
X105577000Y-69822135D01*
X105577000Y-70917870D01*
X105577001Y-70917876D01*
X105583409Y-70977484D01*
X105620401Y-71076668D01*
X105625385Y-71146360D01*
X105620401Y-71163332D01*
X105583409Y-71262514D01*
X105583408Y-71262516D01*
X105577001Y-71322116D01*
X105577000Y-71322127D01*
X105577000Y-72417870D01*
X105577001Y-72417876D01*
X105583409Y-72477484D01*
X105620401Y-72576668D01*
X105625385Y-72646360D01*
X105620401Y-72663332D01*
X105583409Y-72762514D01*
X105583408Y-72762516D01*
X105577001Y-72822116D01*
X105577001Y-72822123D01*
X105577000Y-72822135D01*
X105577000Y-73917870D01*
X105577001Y-73917876D01*
X105583409Y-73977484D01*
X105620401Y-74076668D01*
X105625385Y-74146360D01*
X105620401Y-74163332D01*
X105583409Y-74262514D01*
X105583408Y-74262516D01*
X105577001Y-74322116D01*
X105577001Y-74322123D01*
X105577000Y-74322135D01*
X105577000Y-75417870D01*
X105577001Y-75417876D01*
X105583409Y-75477484D01*
X105620401Y-75576668D01*
X105625385Y-75646360D01*
X105620401Y-75663332D01*
X105583409Y-75762514D01*
X105583408Y-75762516D01*
X105577001Y-75822116D01*
X105577001Y-75822123D01*
X105577000Y-75822135D01*
X105577000Y-76595500D01*
X105557315Y-76662539D01*
X105504511Y-76708294D01*
X105453001Y-76719500D01*
X105279630Y-76719500D01*
X105279623Y-76719501D01*
X105220015Y-76725909D01*
X105120832Y-76762901D01*
X105051140Y-76767885D01*
X105034168Y-76762901D01*
X104934985Y-76725909D01*
X104934983Y-76725908D01*
X104875383Y-76719501D01*
X104875381Y-76719500D01*
X104875373Y-76719500D01*
X104875364Y-76719500D01*
X103779629Y-76719500D01*
X103779623Y-76719501D01*
X103720015Y-76725909D01*
X103620832Y-76762901D01*
X103551140Y-76767885D01*
X103534168Y-76762901D01*
X103434985Y-76725909D01*
X103434983Y-76725908D01*
X103375383Y-76719501D01*
X103375381Y-76719500D01*
X103375373Y-76719500D01*
X103375364Y-76719500D01*
X102279629Y-76719500D01*
X102279623Y-76719501D01*
X102220015Y-76725909D01*
X102120832Y-76762901D01*
X102051140Y-76767885D01*
X102034168Y-76762901D01*
X101934985Y-76725909D01*
X101934983Y-76725908D01*
X101875383Y-76719501D01*
X101875381Y-76719500D01*
X101875373Y-76719500D01*
X101875364Y-76719500D01*
X100779629Y-76719500D01*
X100779623Y-76719501D01*
X100720015Y-76725909D01*
X100620832Y-76762901D01*
X100551140Y-76767885D01*
X100534168Y-76762901D01*
X100434985Y-76725909D01*
X100434983Y-76725908D01*
X100375383Y-76719501D01*
X100375381Y-76719500D01*
X100375373Y-76719500D01*
X100375364Y-76719500D01*
X99279629Y-76719500D01*
X99279623Y-76719501D01*
X99220015Y-76725909D01*
X99120832Y-76762901D01*
X99051140Y-76767885D01*
X99034168Y-76762901D01*
X98934985Y-76725909D01*
X98934983Y-76725908D01*
X98875383Y-76719501D01*
X98875381Y-76719500D01*
X98875373Y-76719500D01*
X98875364Y-76719500D01*
X97779629Y-76719500D01*
X97779623Y-76719501D01*
X97720015Y-76725909D01*
X97620832Y-76762901D01*
X97551140Y-76767885D01*
X97534168Y-76762901D01*
X97434985Y-76725909D01*
X97434983Y-76725908D01*
X97375383Y-76719501D01*
X97375381Y-76719500D01*
X97375373Y-76719500D01*
X97375364Y-76719500D01*
X96279629Y-76719500D01*
X96279623Y-76719501D01*
X96220015Y-76725909D01*
X96120832Y-76762901D01*
X96051140Y-76767885D01*
X96034168Y-76762901D01*
X95934985Y-76725909D01*
X95934983Y-76725908D01*
X95875383Y-76719501D01*
X95875381Y-76719500D01*
X95875373Y-76719500D01*
X95875364Y-76719500D01*
X94779629Y-76719500D01*
X94779623Y-76719501D01*
X94720016Y-76725908D01*
X94585171Y-76776202D01*
X94585164Y-76776206D01*
X94469955Y-76862452D01*
X94469952Y-76862455D01*
X94383706Y-76977664D01*
X94383702Y-76977671D01*
X94333408Y-77112517D01*
X94327001Y-77172116D01*
X94327000Y-77172135D01*
X94327000Y-79067870D01*
X94327001Y-79067876D01*
X94333408Y-79127483D01*
X94383702Y-79262328D01*
X94383706Y-79262335D01*
X94469952Y-79377544D01*
X94469955Y-79377547D01*
X94585164Y-79463793D01*
X94585171Y-79463797D01*
X94720017Y-79514091D01*
X94720016Y-79514091D01*
X94726944Y-79514835D01*
X94779627Y-79520500D01*
X95875372Y-79520499D01*
X95934983Y-79514091D01*
X96034169Y-79477096D01*
X96103858Y-79472113D01*
X96120819Y-79477092D01*
X96220017Y-79514091D01*
X96279627Y-79520500D01*
X97375372Y-79520499D01*
X97434983Y-79514091D01*
X97534169Y-79477096D01*
X97603858Y-79472113D01*
X97620819Y-79477092D01*
X97720017Y-79514091D01*
X97779627Y-79520500D01*
X98875372Y-79520499D01*
X98934983Y-79514091D01*
X99034169Y-79477096D01*
X99103858Y-79472113D01*
X99120819Y-79477092D01*
X99220017Y-79514091D01*
X99279627Y-79520500D01*
X100375372Y-79520499D01*
X100434983Y-79514091D01*
X100534169Y-79477096D01*
X100603858Y-79472113D01*
X100620819Y-79477092D01*
X100720017Y-79514091D01*
X100779627Y-79520500D01*
X101875372Y-79520499D01*
X101934983Y-79514091D01*
X102034169Y-79477096D01*
X102103858Y-79472113D01*
X102120819Y-79477092D01*
X102220017Y-79514091D01*
X102279627Y-79520500D01*
X103375372Y-79520499D01*
X103434983Y-79514091D01*
X103534169Y-79477096D01*
X103603858Y-79472113D01*
X103620819Y-79477092D01*
X103720017Y-79514091D01*
X103779627Y-79520500D01*
X104875372Y-79520499D01*
X104934983Y-79514091D01*
X105034169Y-79477096D01*
X105103858Y-79472113D01*
X105120819Y-79477092D01*
X105220017Y-79514091D01*
X105279627Y-79520500D01*
X106375372Y-79520499D01*
X106434983Y-79514091D01*
X106569831Y-79463796D01*
X106685046Y-79377546D01*
X106771296Y-79262331D01*
X106821591Y-79127483D01*
X106828000Y-79067873D01*
X106827999Y-77494498D01*
X106847684Y-77427460D01*
X106900487Y-77381705D01*
X106951999Y-77370499D01*
X108125371Y-77370499D01*
X108125372Y-77370499D01*
X108184983Y-77364091D01*
X108319831Y-77313796D01*
X108435046Y-77227546D01*
X108521296Y-77112331D01*
X108571591Y-76977483D01*
X108578000Y-76917873D01*
X108577999Y-75822128D01*
X108571591Y-75762517D01*
X108534596Y-75663330D01*
X108529613Y-75593642D01*
X108534592Y-75576680D01*
X108571591Y-75477483D01*
X108578000Y-75417873D01*
X108577999Y-74322128D01*
X108571591Y-74262517D01*
X108534596Y-74163330D01*
X108529613Y-74093642D01*
X108534592Y-74076680D01*
X108571591Y-73977483D01*
X108578000Y-73917873D01*
X108577999Y-72822128D01*
X108571591Y-72762517D01*
X108534596Y-72663330D01*
X108529613Y-72593642D01*
X108534592Y-72576680D01*
X108571591Y-72477483D01*
X108578000Y-72417873D01*
X108577999Y-71322128D01*
X108571591Y-71262517D01*
X108534596Y-71163330D01*
X108529613Y-71093642D01*
X108534592Y-71076680D01*
X108571591Y-70977483D01*
X108578000Y-70917873D01*
X108577999Y-69822128D01*
X108571591Y-69762517D01*
X108534596Y-69663330D01*
X108529613Y-69593642D01*
X108534592Y-69576680D01*
X108571591Y-69477483D01*
X108578000Y-69417873D01*
X108577999Y-68322128D01*
X108571591Y-68262517D01*
X108534596Y-68163330D01*
X108529613Y-68093642D01*
X108534592Y-68076680D01*
X108571591Y-67977483D01*
X108578000Y-67917873D01*
X108577999Y-66822128D01*
X108571591Y-66762517D01*
X108534596Y-66663330D01*
X108529613Y-66593642D01*
X108534592Y-66576680D01*
X108571591Y-66477483D01*
X108578000Y-66417873D01*
X108577999Y-65322128D01*
X108571591Y-65262517D01*
X108534596Y-65163330D01*
X108529613Y-65093642D01*
X108534592Y-65076680D01*
X108571591Y-64977483D01*
X108578000Y-64917873D01*
X108577999Y-64138727D01*
X108597683Y-64071689D01*
X108650487Y-64025934D01*
X108719646Y-64015990D01*
X108783202Y-64045015D01*
X108789680Y-64051047D01*
X109180681Y-64442048D01*
X109214166Y-64503371D01*
X109217000Y-64529729D01*
X109217000Y-64930001D01*
X109217001Y-64930019D01*
X109227500Y-65032796D01*
X109227501Y-65032799D01*
X109282685Y-65199331D01*
X109282687Y-65199336D01*
X109290603Y-65212170D01*
X109374788Y-65348656D01*
X109498844Y-65472712D01*
X109648166Y-65564814D01*
X109814703Y-65619999D01*
X109917491Y-65630500D01*
X110542508Y-65630499D01*
X110542516Y-65630498D01*
X110542519Y-65630498D01*
X110598802Y-65624748D01*
X110645297Y-65619999D01*
X110811834Y-65564814D01*
X110961156Y-65472712D01*
X111054819Y-65379049D01*
X111116142Y-65345564D01*
X111185834Y-65350548D01*
X111230181Y-65379049D01*
X111323844Y-65472712D01*
X111473166Y-65564814D01*
X111639703Y-65619999D01*
X111742491Y-65630500D01*
X112367508Y-65630499D01*
X112367516Y-65630498D01*
X112367519Y-65630498D01*
X112423802Y-65624748D01*
X112470297Y-65619999D01*
X112636834Y-65564814D01*
X112786156Y-65472712D01*
X112910212Y-65348656D01*
X113002314Y-65199334D01*
X113057499Y-65032797D01*
X113068000Y-64930009D01*
X113067999Y-63929992D01*
X113066959Y-63919814D01*
X113057499Y-63827203D01*
X113057498Y-63827200D01*
X113036442Y-63763657D01*
X113002314Y-63660666D01*
X112993490Y-63646360D01*
X112918693Y-63525093D01*
X112900253Y-63457701D01*
X112921176Y-63391037D01*
X112936543Y-63372324D01*
X112950212Y-63358656D01*
X113042314Y-63209334D01*
X113097499Y-63042797D01*
X113108000Y-62940009D01*
X113107999Y-62174729D01*
X113127683Y-62107691D01*
X113144318Y-62087049D01*
X113702947Y-61528421D01*
X113702947Y-61528420D01*
X113702952Y-61528416D01*
X113757739Y-61446420D01*
X113785084Y-61405495D01*
X113788484Y-61397288D01*
X113826633Y-61305186D01*
X113841658Y-61268913D01*
X113870500Y-61123918D01*
X113870500Y-55856082D01*
X113870500Y-55856079D01*
X113841659Y-55711092D01*
X113841658Y-55711091D01*
X113841658Y-55711087D01*
X113785084Y-55574505D01*
X113752186Y-55525270D01*
X113752185Y-55525268D01*
X113702956Y-55451589D01*
X113702952Y-55451584D01*
X111468421Y-53217052D01*
X111468414Y-53217046D01*
X111394729Y-53167812D01*
X111394729Y-53167813D01*
X111345491Y-53134913D01*
X111208917Y-53078343D01*
X111208907Y-53078340D01*
X111063920Y-53049500D01*
X111063918Y-53049500D01*
X90941230Y-53049500D01*
X90874191Y-53029815D01*
X90828436Y-52977011D01*
X90818492Y-52907853D01*
X90847517Y-52844297D01*
X90853549Y-52837819D01*
X90879040Y-52812328D01*
X90927712Y-52763656D01*
X91019814Y-52614334D01*
X91074999Y-52447797D01*
X91085500Y-52345009D01*
X91085499Y-51494992D01*
X91074999Y-51392203D01*
X91019814Y-51225666D01*
X90927712Y-51076344D01*
X90803656Y-50952288D01*
X90654334Y-50860186D01*
X90487797Y-50805001D01*
X90487795Y-50805000D01*
X90385010Y-50794500D01*
X89034998Y-50794500D01*
X89034981Y-50794501D01*
X88932203Y-50805000D01*
X88932200Y-50805001D01*
X88765668Y-50860185D01*
X88765663Y-50860187D01*
X88616342Y-50952289D01*
X88492289Y-51076342D01*
X88400187Y-51225663D01*
X88400186Y-51225666D01*
X88345001Y-51392203D01*
X88345001Y-51392204D01*
X88345000Y-51392204D01*
X88334500Y-51494983D01*
X88334500Y-52345001D01*
X88334501Y-52345019D01*
X88345000Y-52447796D01*
X88345001Y-52447799D01*
X88393052Y-52592806D01*
X88400186Y-52614334D01*
X88492288Y-52763656D01*
X88616344Y-52887712D01*
X88765666Y-52979814D01*
X88874505Y-53015879D01*
X88931949Y-53055652D01*
X88958772Y-53120167D01*
X88959500Y-53133585D01*
X88959500Y-53243918D01*
X88959500Y-53243920D01*
X88959499Y-53243920D01*
X88988340Y-53388907D01*
X88988342Y-53388913D01*
X89044916Y-53525494D01*
X89044918Y-53525498D01*
X89047196Y-53528907D01*
X89047198Y-53528913D01*
X89047199Y-53528913D01*
X89127046Y-53648414D01*
X89127052Y-53648421D01*
X89757049Y-54278416D01*
X89834789Y-54356156D01*
X89861585Y-54382952D01*
X89984498Y-54465080D01*
X89984511Y-54465087D01*
X90039705Y-54487949D01*
X90039706Y-54487949D01*
X90121088Y-54521659D01*
X90237241Y-54544763D01*
X90256468Y-54548587D01*
X90266081Y-54550500D01*
X90266082Y-54550500D01*
X90266083Y-54550500D01*
X90413918Y-54550500D01*
X110627770Y-54550500D01*
X110694809Y-54570185D01*
X110715451Y-54586819D01*
X112333181Y-56204549D01*
X112366666Y-56265872D01*
X112369500Y-56292230D01*
X112369500Y-60687769D01*
X112349815Y-60754808D01*
X112333181Y-60775450D01*
X111905449Y-61203181D01*
X111844126Y-61236666D01*
X111817771Y-61239500D01*
X111782500Y-61239500D01*
X111782480Y-61239501D01*
X111679703Y-61250000D01*
X111679700Y-61250001D01*
X111513168Y-61305185D01*
X111513163Y-61305187D01*
X111363842Y-61397289D01*
X111270181Y-61490951D01*
X111208858Y-61524436D01*
X111139166Y-61519452D01*
X111094819Y-61490951D01*
X111001157Y-61397289D01*
X111001156Y-61397288D01*
X110851834Y-61305186D01*
X110685297Y-61250001D01*
X110685295Y-61250000D01*
X110582516Y-61239500D01*
X110582509Y-61239500D01*
X110182230Y-61239500D01*
X110115191Y-61219815D01*
X110094549Y-61203181D01*
X109678421Y-60787052D01*
X109678420Y-60787051D01*
X109633597Y-60757102D01*
X109589363Y-60727546D01*
X109555495Y-60704916D01*
X109555488Y-60704912D01*
X109418917Y-60648343D01*
X109418907Y-60648340D01*
X109273920Y-60619500D01*
X109273918Y-60619500D01*
X108694368Y-60619500D01*
X108627329Y-60599815D01*
X108581574Y-60547011D01*
X108571079Y-60482244D01*
X108577999Y-60417881D01*
X108578000Y-60417873D01*
X108577999Y-59322128D01*
X108571591Y-59262517D01*
X108571591Y-59262516D01*
X108571079Y-59257753D01*
X108583486Y-59188994D01*
X108631097Y-59137857D01*
X108694369Y-59120500D01*
X108722722Y-59120500D01*
X108789761Y-59140185D01*
X108821989Y-59170190D01*
X108849949Y-59207541D01*
X108849952Y-59207544D01*
X108849954Y-59207546D01*
X108849957Y-59207548D01*
X108965164Y-59293793D01*
X108965171Y-59293797D01*
X109100017Y-59344091D01*
X109100016Y-59344091D01*
X109106944Y-59344835D01*
X109159627Y-59350500D01*
X110755372Y-59350499D01*
X110814983Y-59344091D01*
X110949831Y-59293796D01*
X111065046Y-59207546D01*
X111151296Y-59092331D01*
X111201591Y-58957483D01*
X111208000Y-58897873D01*
X111207999Y-57802128D01*
X111201591Y-57742517D01*
X111201589Y-57742513D01*
X111201353Y-57741511D01*
X111201260Y-57739442D01*
X111200762Y-57734804D01*
X111201052Y-57734772D01*
X111199291Y-57695346D01*
X111213000Y-57600000D01*
X111213000Y-56978111D01*
X111192524Y-56835696D01*
X111152017Y-56697741D01*
X111092247Y-56566863D01*
X111053060Y-56505887D01*
X111018123Y-56451523D01*
X111017302Y-56450081D01*
X111014511Y-56445901D01*
X110920292Y-56337169D01*
X110920289Y-56337166D01*
X110811635Y-56243018D01*
X110811632Y-56243015D01*
X110751776Y-56204549D01*
X110690594Y-56165230D01*
X110690587Y-56165227D01*
X110690581Y-56165223D01*
X110565856Y-56108263D01*
X110561557Y-56106014D01*
X110421761Y-56064966D01*
X110421751Y-56064963D01*
X110293800Y-56046567D01*
X110279441Y-56044503D01*
X110279440Y-56044503D01*
X110223101Y-56044503D01*
X110223091Y-56044500D01*
X110171736Y-56044500D01*
X109743264Y-56044500D01*
X109691927Y-56044500D01*
X109691899Y-56044503D01*
X109635559Y-56044503D01*
X109502021Y-56063703D01*
X109502019Y-56063703D01*
X109493244Y-56064964D01*
X109355186Y-56105503D01*
X109224418Y-56165223D01*
X109224408Y-56165228D01*
X109224406Y-56165230D01*
X109207019Y-56176404D01*
X109103367Y-56243015D01*
X109103363Y-56243018D01*
X109015430Y-56319213D01*
X108951875Y-56348238D01*
X108934228Y-56349500D01*
X104631004Y-56349500D01*
X104495677Y-56376418D01*
X104495667Y-56376421D01*
X104368192Y-56429222D01*
X104253454Y-56505887D01*
X103525887Y-57233454D01*
X103449223Y-57348192D01*
X103396421Y-57475668D01*
X103396418Y-57475680D01*
X103389103Y-57512455D01*
X103389103Y-57512456D01*
X103369500Y-57611004D01*
X103369500Y-71598481D01*
X103349815Y-71665520D01*
X103333181Y-71686162D01*
X100886162Y-74133181D01*
X100824839Y-74166666D01*
X100798481Y-74169500D01*
X95678567Y-74169500D01*
X95611528Y-74149815D01*
X95565773Y-74097011D01*
X95555829Y-74027853D01*
X95562385Y-74002168D01*
X95571590Y-73977485D01*
X95571591Y-73977484D01*
X95571591Y-73977483D01*
X95578000Y-73917873D01*
X95577999Y-72822128D01*
X95571591Y-72762517D01*
X95534596Y-72663330D01*
X95529613Y-72593642D01*
X95534592Y-72576680D01*
X95571591Y-72477483D01*
X95578000Y-72417873D01*
X95577999Y-71322128D01*
X95571591Y-71262517D01*
X95534596Y-71163330D01*
X95529613Y-71093642D01*
X95534592Y-71076680D01*
X95571591Y-70977483D01*
X95578000Y-70917873D01*
X95577999Y-69822128D01*
X95571591Y-69762517D01*
X95534596Y-69663330D01*
X95529613Y-69593642D01*
X95534592Y-69576680D01*
X95571591Y-69477483D01*
X95578000Y-69417873D01*
X95577999Y-68322128D01*
X95571591Y-68262517D01*
X95534596Y-68163330D01*
X95529613Y-68093642D01*
X95534592Y-68076680D01*
X95571591Y-67977483D01*
X95578000Y-67917873D01*
X95577999Y-66822128D01*
X95571591Y-66762517D01*
X95534596Y-66663330D01*
X95529613Y-66593642D01*
X95534592Y-66576680D01*
X95571591Y-66477483D01*
X95578000Y-66417873D01*
X95577999Y-65322128D01*
X95571591Y-65262517D01*
X95534596Y-65163330D01*
X95529613Y-65093642D01*
X95534592Y-65076680D01*
X95571591Y-64977483D01*
X95578000Y-64917873D01*
X95577999Y-63822128D01*
X95571591Y-63762517D01*
X95534596Y-63663330D01*
X95529613Y-63593642D01*
X95534592Y-63576680D01*
X95571591Y-63477483D01*
X95578000Y-63417873D01*
X95577999Y-62322128D01*
X95571591Y-62262517D01*
X95534596Y-62163330D01*
X95529613Y-62093642D01*
X95534592Y-62076680D01*
X95571591Y-61977483D01*
X95578000Y-61917873D01*
X95577999Y-60822128D01*
X95571591Y-60762517D01*
X95534596Y-60663330D01*
X95529613Y-60593642D01*
X95534592Y-60576680D01*
X95571591Y-60477483D01*
X95578000Y-60417873D01*
X95577999Y-59322128D01*
X95571591Y-59262517D01*
X95534596Y-59163330D01*
X95529613Y-59093642D01*
X95534592Y-59076680D01*
X95571591Y-58977483D01*
X95578000Y-58917873D01*
X95577999Y-57822128D01*
X95571591Y-57762517D01*
X95564132Y-57742519D01*
X95521297Y-57627671D01*
X95521293Y-57627664D01*
X95435047Y-57512455D01*
X95435044Y-57512452D01*
X95319835Y-57426206D01*
X95319828Y-57426202D01*
X95184982Y-57375908D01*
X95184983Y-57375908D01*
X95125383Y-57369501D01*
X95125381Y-57369500D01*
X95125373Y-57369500D01*
X95125364Y-57369500D01*
X93029629Y-57369500D01*
X93029623Y-57369501D01*
X92970016Y-57375908D01*
X92835171Y-57426202D01*
X92835164Y-57426206D01*
X92719957Y-57512451D01*
X92719951Y-57512457D01*
X92677015Y-57569812D01*
X92621081Y-57611682D01*
X92577749Y-57619500D01*
X86910787Y-57619500D01*
X86843748Y-57599815D01*
X86797993Y-57547011D01*
X86788049Y-57477853D01*
X86814459Y-57420022D01*
X86813309Y-57419154D01*
X86866899Y-57348189D01*
X86939673Y-57251821D01*
X87030582Y-57069250D01*
X87086397Y-56873083D01*
X87105215Y-56670000D01*
X87086397Y-56466917D01*
X87031915Y-56275434D01*
X87032501Y-56205568D01*
X87045639Y-56176410D01*
X87134814Y-56031834D01*
X87189999Y-55865297D01*
X87200500Y-55762509D01*
X87200499Y-55137492D01*
X87189999Y-55034703D01*
X87134814Y-54868166D01*
X87042712Y-54718844D01*
X86949049Y-54625181D01*
X86915564Y-54563858D01*
X86920548Y-54494166D01*
X86949049Y-54449819D01*
X87042712Y-54356156D01*
X87134814Y-54206834D01*
X87189999Y-54040297D01*
X87200500Y-53937509D01*
X87200499Y-53312492D01*
X87189999Y-53209703D01*
X87158583Y-53114898D01*
X87156182Y-53045071D01*
X87191914Y-52985029D01*
X87201971Y-52976635D01*
X87267546Y-52927546D01*
X87353796Y-52812331D01*
X87404091Y-52677483D01*
X87410500Y-52617873D01*
X87410499Y-50822128D01*
X87404091Y-50762517D01*
X87393641Y-50734500D01*
X87353797Y-50627671D01*
X87353793Y-50627664D01*
X87267547Y-50512455D01*
X87267544Y-50512452D01*
X87152335Y-50426206D01*
X87152328Y-50426202D01*
X87017482Y-50375908D01*
X87017483Y-50375908D01*
X86957883Y-50369501D01*
X86957881Y-50369500D01*
X86957873Y-50369500D01*
X86957864Y-50369500D01*
X85162129Y-50369500D01*
X85162123Y-50369501D01*
X85102516Y-50375908D01*
X84967671Y-50426202D01*
X84967664Y-50426206D01*
X84852455Y-50512452D01*
X84852452Y-50512455D01*
X84766206Y-50627664D01*
X84766202Y-50627671D01*
X84715908Y-50762517D01*
X84711341Y-50805000D01*
X84709501Y-50822123D01*
X84709500Y-50822135D01*
X84709500Y-52480012D01*
X84689815Y-52547051D01*
X84637011Y-52592806D01*
X84572899Y-52603370D01*
X84535021Y-52599500D01*
X84535009Y-52599500D01*
X84116567Y-52599500D01*
X84049528Y-52579815D01*
X84003773Y-52527011D01*
X83993829Y-52457853D01*
X83998858Y-52436505D01*
X84014999Y-52387797D01*
X84025500Y-52285009D01*
X84025499Y-51434992D01*
X84014999Y-51332203D01*
X83959814Y-51165666D01*
X83867712Y-51016344D01*
X83743656Y-50892288D01*
X83629919Y-50822135D01*
X83594336Y-50800187D01*
X83594331Y-50800185D01*
X83577175Y-50794500D01*
X83427797Y-50745001D01*
X83427795Y-50745000D01*
X83325010Y-50734500D01*
X81974998Y-50734500D01*
X81974981Y-50734501D01*
X81872203Y-50745000D01*
X81872200Y-50745001D01*
X81705668Y-50800185D01*
X81705663Y-50800187D01*
X81556342Y-50892289D01*
X81432289Y-51016342D01*
X81340187Y-51165663D01*
X81340185Y-51165668D01*
X81330761Y-51194108D01*
X81285001Y-51332203D01*
X81285001Y-51332204D01*
X81285000Y-51332204D01*
X81274500Y-51434983D01*
X81274500Y-52285001D01*
X81274501Y-52285019D01*
X81285000Y-52387796D01*
X81285001Y-52387799D01*
X81308215Y-52457853D01*
X81340186Y-52554334D01*
X81420328Y-52684266D01*
X81432289Y-52703657D01*
X81498781Y-52770149D01*
X81532266Y-52831472D01*
X81527282Y-52901164D01*
X81516639Y-52922926D01*
X81450190Y-53030659D01*
X81450185Y-53030668D01*
X81445087Y-53046054D01*
X81395001Y-53197203D01*
X81395001Y-53197204D01*
X81395000Y-53197204D01*
X81384500Y-53299983D01*
X81384500Y-54300001D01*
X81384501Y-54300019D01*
X81395000Y-54402796D01*
X81395001Y-54402799D01*
X81450185Y-54569331D01*
X81450187Y-54569336D01*
X81484999Y-54625776D01*
X81542288Y-54718656D01*
X81666344Y-54842712D01*
X81815666Y-54934814D01*
X81982203Y-54989999D01*
X82084991Y-55000500D01*
X82710008Y-55000499D01*
X82710016Y-55000498D01*
X82710019Y-55000498D01*
X82766302Y-54994748D01*
X82812797Y-54989999D01*
X82979334Y-54934814D01*
X83128656Y-54842712D01*
X83222319Y-54749049D01*
X83283642Y-54715564D01*
X83353334Y-54720548D01*
X83397681Y-54749049D01*
X83435681Y-54787049D01*
X83469166Y-54848372D01*
X83472000Y-54874730D01*
X83472000Y-55685270D01*
X83452315Y-55752309D01*
X83435681Y-55772951D01*
X83235451Y-55973181D01*
X83174128Y-56006666D01*
X83147770Y-56009500D01*
X81496080Y-56009500D01*
X81351092Y-56038340D01*
X81351082Y-56038343D01*
X81214511Y-56094912D01*
X81214498Y-56094919D01*
X81091584Y-56177048D01*
X81091580Y-56177051D01*
X79857052Y-57411578D01*
X79857049Y-57411581D01*
X79814297Y-57475564D01*
X79814298Y-57475565D01*
X79774914Y-57534508D01*
X79718343Y-57671082D01*
X79718340Y-57671092D01*
X79689500Y-57816079D01*
X79689500Y-59259362D01*
X79669815Y-59326401D01*
X79630598Y-59364899D01*
X79566388Y-59404505D01*
X79521342Y-59432289D01*
X79397289Y-59556342D01*
X79305187Y-59705663D01*
X79305186Y-59705666D01*
X79250001Y-59872203D01*
X79250001Y-59872204D01*
X79250000Y-59872204D01*
X79239500Y-59974983D01*
X79239500Y-60600001D01*
X79239501Y-60600019D01*
X79250000Y-60702796D01*
X79250001Y-60702799D01*
X79305185Y-60869331D01*
X79305189Y-60869340D01*
X79374178Y-60981190D01*
X79392618Y-61048583D01*
X79371695Y-61115246D01*
X79318053Y-61160015D01*
X79248722Y-61168676D01*
X79234044Y-61165362D01*
X79077573Y-61119902D01*
X79077567Y-61119901D01*
X79040701Y-61117000D01*
X79040694Y-61117000D01*
X77734306Y-61117000D01*
X77734298Y-61117000D01*
X77697432Y-61119901D01*
X77697426Y-61119902D01*
X77539606Y-61165754D01*
X77539603Y-61165755D01*
X77398137Y-61249417D01*
X77398129Y-61249423D01*
X77281923Y-61365629D01*
X77281917Y-61365637D01*
X77198255Y-61507103D01*
X77198254Y-61507106D01*
X77152402Y-61664926D01*
X77152401Y-61664932D01*
X77149500Y-61701798D01*
X77149500Y-61943000D01*
X77129815Y-62010039D01*
X77077011Y-62055794D01*
X77025500Y-62067000D01*
X75859298Y-62067000D01*
X75822432Y-62069901D01*
X75822426Y-62069902D01*
X75664606Y-62115754D01*
X75664603Y-62115755D01*
X75523137Y-62199417D01*
X75523129Y-62199423D01*
X75406923Y-62315629D01*
X75406917Y-62315637D01*
X75323255Y-62457103D01*
X75323254Y-62457106D01*
X75277402Y-62614926D01*
X75277401Y-62614932D01*
X75274500Y-62651798D01*
X75274500Y-63083201D01*
X75277401Y-63120067D01*
X75277402Y-63120073D01*
X75323254Y-63277893D01*
X75323255Y-63277896D01*
X75323256Y-63277898D01*
X75327466Y-63285016D01*
X75406917Y-63419362D01*
X75406923Y-63419370D01*
X75523129Y-63535576D01*
X75523133Y-63535579D01*
X75523135Y-63535581D01*
X75664602Y-63619244D01*
X75693601Y-63627669D01*
X75822426Y-63665097D01*
X75822429Y-63665097D01*
X75822431Y-63665098D01*
X75859306Y-63668000D01*
X75859314Y-63668000D01*
X77165686Y-63668000D01*
X77165694Y-63668000D01*
X77202569Y-63665098D01*
X77202571Y-63665097D01*
X77202573Y-63665097D01*
X77267065Y-63646360D01*
X77360398Y-63619244D01*
X77501865Y-63535581D01*
X77618081Y-63419365D01*
X77701744Y-63277898D01*
X77735733Y-63160908D01*
X77747597Y-63120073D01*
X77747598Y-63120067D01*
X77750499Y-63083201D01*
X77750500Y-63083194D01*
X77750500Y-62842000D01*
X77770185Y-62774961D01*
X77822989Y-62729206D01*
X77874500Y-62718000D01*
X79040686Y-62718000D01*
X79040694Y-62718000D01*
X79077569Y-62715098D01*
X79190855Y-62682185D01*
X79260721Y-62682384D01*
X79319392Y-62720325D01*
X79330985Y-62736162D01*
X79397288Y-62843656D01*
X79521344Y-62967712D01*
X79670666Y-63059814D01*
X79837203Y-63114999D01*
X79939991Y-63125500D01*
X80940008Y-63125499D01*
X80940016Y-63125498D01*
X80940019Y-63125498D01*
X80996302Y-63119748D01*
X81042797Y-63114999D01*
X81209334Y-63059814D01*
X81358656Y-62967712D01*
X81358659Y-62967708D01*
X81360403Y-62966633D01*
X81427795Y-62948193D01*
X81494459Y-62969115D01*
X81539229Y-63022757D01*
X81549500Y-63072172D01*
X81549500Y-63345000D01*
X81549501Y-63345019D01*
X81560000Y-63447796D01*
X81560001Y-63447799D01*
X81612798Y-63607127D01*
X81615186Y-63614334D01*
X81707288Y-63763656D01*
X81831344Y-63887712D01*
X81957818Y-63965721D01*
X82004542Y-64017667D01*
X82015765Y-64086630D01*
X81987922Y-64150712D01*
X81980402Y-64158940D01*
X81766162Y-64373181D01*
X81704839Y-64406666D01*
X81678481Y-64409500D01*
X80388136Y-64409500D01*
X80270746Y-64424953D01*
X80270737Y-64424956D01*
X80124660Y-64485463D01*
X79999218Y-64581718D01*
X79902963Y-64707160D01*
X79842456Y-64853237D01*
X79842455Y-64853239D01*
X79827000Y-64970638D01*
X79827000Y-65249355D01*
X79837478Y-65328950D01*
X79826710Y-65397985D01*
X79780329Y-65450240D01*
X79713060Y-65469124D01*
X79649443Y-65450673D01*
X79624338Y-65435188D01*
X79624335Y-65435186D01*
X79624334Y-65435186D01*
X79457797Y-65380001D01*
X79457795Y-65380000D01*
X79355016Y-65369500D01*
X79355009Y-65369500D01*
X78928543Y-65369500D01*
X78928541Y-65369500D01*
X77806395Y-65369500D01*
X77739356Y-65349815D01*
X77694014Y-65297906D01*
X77654035Y-65212171D01*
X77654033Y-65212168D01*
X77654032Y-65212166D01*
X77518494Y-65018597D01*
X77351402Y-64851506D01*
X77351395Y-64851501D01*
X77157834Y-64715967D01*
X77157830Y-64715965D01*
X77138948Y-64707160D01*
X76943663Y-64616097D01*
X76943659Y-64616096D01*
X76943655Y-64616094D01*
X76715413Y-64554938D01*
X76715403Y-64554936D01*
X76480001Y-64534341D01*
X76479999Y-64534341D01*
X76244596Y-64554936D01*
X76244586Y-64554938D01*
X76016344Y-64616094D01*
X76016335Y-64616098D01*
X75802171Y-64715964D01*
X75802169Y-64715965D01*
X75608597Y-64851505D01*
X75441505Y-65018597D01*
X75305965Y-65212169D01*
X75305964Y-65212171D01*
X75206098Y-65426335D01*
X75206094Y-65426344D01*
X75144938Y-65654586D01*
X75144936Y-65654596D01*
X75124341Y-65889999D01*
X73650500Y-65889999D01*
X73650500Y-51263246D01*
X73650670Y-51256757D01*
X73655284Y-51168711D01*
X74829500Y-51168711D01*
X74829500Y-51411288D01*
X74861161Y-51651785D01*
X74923947Y-51886104D01*
X75016773Y-52110205D01*
X75016776Y-52110212D01*
X75138064Y-52320289D01*
X75138066Y-52320292D01*
X75138067Y-52320293D01*
X75285733Y-52512736D01*
X75285739Y-52512743D01*
X75457256Y-52684260D01*
X75457262Y-52684265D01*
X75649711Y-52831936D01*
X75859788Y-52953224D01*
X76083900Y-53046054D01*
X76318211Y-53108838D01*
X76498586Y-53132584D01*
X76558711Y-53140500D01*
X76558712Y-53140500D01*
X76801289Y-53140500D01*
X76849388Y-53134167D01*
X77041789Y-53108838D01*
X77276100Y-53046054D01*
X77500212Y-52953224D01*
X77710289Y-52831936D01*
X77902738Y-52684265D01*
X78074265Y-52512738D01*
X78221936Y-52320289D01*
X78343224Y-52110212D01*
X78436054Y-51886100D01*
X78498838Y-51651789D01*
X78530500Y-51411288D01*
X78530500Y-51168712D01*
X78498838Y-50928211D01*
X78436054Y-50693900D01*
X78343224Y-50469788D01*
X78221936Y-50259711D01*
X78074265Y-50067262D01*
X78074260Y-50067256D01*
X77902743Y-49895739D01*
X77902736Y-49895733D01*
X77710293Y-49748067D01*
X77710292Y-49748066D01*
X77710289Y-49748064D01*
X77500212Y-49626776D01*
X77500205Y-49626773D01*
X77276104Y-49533947D01*
X77041785Y-49471161D01*
X76801289Y-49439500D01*
X76801288Y-49439500D01*
X76558712Y-49439500D01*
X76558711Y-49439500D01*
X76318214Y-49471161D01*
X76083895Y-49533947D01*
X75859794Y-49626773D01*
X75859785Y-49626777D01*
X75649706Y-49748067D01*
X75457263Y-49895733D01*
X75457256Y-49895739D01*
X75285739Y-50067256D01*
X75285733Y-50067263D01*
X75138067Y-50259706D01*
X75016777Y-50469785D01*
X75016773Y-50469794D01*
X74923947Y-50693895D01*
X74861161Y-50928214D01*
X74829500Y-51168711D01*
X73655284Y-51168711D01*
X73666646Y-50951909D01*
X73668003Y-50939000D01*
X73715250Y-50640692D01*
X73717940Y-50628035D01*
X73796116Y-50336276D01*
X73800117Y-50323961D01*
X73908362Y-50041975D01*
X73913625Y-50030154D01*
X74050759Y-49761014D01*
X74057225Y-49749815D01*
X74221733Y-49496496D01*
X74229343Y-49486021D01*
X74419427Y-49251287D01*
X74428094Y-49241662D01*
X74641662Y-49028094D01*
X74651287Y-49019427D01*
X74886021Y-48829343D01*
X74896502Y-48821728D01*
X75149815Y-48657225D01*
X75161014Y-48650759D01*
X75430154Y-48513625D01*
X75441975Y-48508362D01*
X75723961Y-48400117D01*
X75736276Y-48396116D01*
X76028035Y-48317940D01*
X76040692Y-48315250D01*
X76339002Y-48268002D01*
X76351908Y-48266646D01*
X76490708Y-48259372D01*
X76656757Y-48250670D01*
X76663246Y-48250500D01*
X76725892Y-48250500D01*
X111712165Y-48250500D01*
X111712169Y-48250501D01*
G37*
%TD.AperFunction*%
%TD*%
M02*
