%TF.GenerationSoftware,KiCad,Pcbnew,8.0.6-8.0.6-0~ubuntu24.04.1*%
%TF.CreationDate,2024-10-24T15:12:09+03:00*%
%TF.ProjectId,navigator,6e617669-6761-4746-9f72-2e6b69636164,rev?*%
%TF.SameCoordinates,Original*%
%TF.FileFunction,Copper,L1,Top*%
%TF.FilePolarity,Positive*%
%FSLAX46Y46*%
G04 Gerber Fmt 4.6, Leading zero omitted, Abs format (unit mm)*
G04 Created by KiCad (PCBNEW 8.0.6-8.0.6-0~ubuntu24.04.1) date 2024-10-24 15:12:09*
%MOMM*%
%LPD*%
G01*
G04 APERTURE LIST*
G04 Aperture macros list*
%AMRoundRect*
0 Rectangle with rounded corners*
0 $1 Rounding radius*
0 $2 $3 $4 $5 $6 $7 $8 $9 X,Y pos of 4 corners*
0 Add a 4 corners polygon primitive as box body*
4,1,4,$2,$3,$4,$5,$6,$7,$8,$9,$2,$3,0*
0 Add four circle primitives for the rounded corners*
1,1,$1+$1,$2,$3*
1,1,$1+$1,$4,$5*
1,1,$1+$1,$6,$7*
1,1,$1+$1,$8,$9*
0 Add four rect primitives between the rounded corners*
20,1,$1+$1,$2,$3,$4,$5,0*
20,1,$1+$1,$4,$5,$6,$7,0*
20,1,$1+$1,$6,$7,$8,$9,0*
20,1,$1+$1,$8,$9,$2,$3,0*%
%AMFreePoly0*
4,1,19,0.550000,-0.750000,0.000000,-0.750000,0.000000,-0.744911,-0.071157,-0.744911,-0.207708,-0.704816,-0.327430,-0.627875,-0.420627,-0.520320,-0.479746,-0.390866,-0.500000,-0.250000,-0.500000,0.250000,-0.479746,0.390866,-0.420627,0.520320,-0.327430,0.627875,-0.207708,0.704816,-0.071157,0.744911,0.000000,0.744911,0.000000,0.750000,0.550000,0.750000,0.550000,-0.750000,0.550000,-0.750000,
$1*%
%AMFreePoly1*
4,1,19,0.000000,0.744911,0.071157,0.744911,0.207708,0.704816,0.327430,0.627875,0.420627,0.520320,0.479746,0.390866,0.500000,0.250000,0.500000,-0.250000,0.479746,-0.390866,0.420627,-0.520320,0.327430,-0.627875,0.207708,-0.704816,0.071157,-0.744911,0.000000,-0.744911,0.000000,-0.750000,-0.550000,-0.750000,-0.550000,0.750000,0.000000,0.750000,0.000000,0.744911,0.000000,0.744911,
$1*%
G04 Aperture macros list end*
%TA.AperFunction,SMDPad,CuDef*%
%ADD10RoundRect,0.250000X-0.450000X0.262500X-0.450000X-0.262500X0.450000X-0.262500X0.450000X0.262500X0*%
%TD*%
%TA.AperFunction,SMDPad,CuDef*%
%ADD11RoundRect,0.250000X-0.262500X-0.450000X0.262500X-0.450000X0.262500X0.450000X-0.262500X0.450000X0*%
%TD*%
%TA.AperFunction,SMDPad,CuDef*%
%ADD12R,1.780000X2.000000*%
%TD*%
%TA.AperFunction,SMDPad,CuDef*%
%ADD13RoundRect,0.250000X-0.250000X-0.475000X0.250000X-0.475000X0.250000X0.475000X-0.250000X0.475000X0*%
%TD*%
%TA.AperFunction,SMDPad,CuDef*%
%ADD14R,2.000000X1.000000*%
%TD*%
%TA.AperFunction,SMDPad,CuDef*%
%ADD15R,1.000000X1.800000*%
%TD*%
%TA.AperFunction,SMDPad,CuDef*%
%ADD16FreePoly0,90.000000*%
%TD*%
%TA.AperFunction,SMDPad,CuDef*%
%ADD17R,1.500000X1.000000*%
%TD*%
%TA.AperFunction,SMDPad,CuDef*%
%ADD18FreePoly1,90.000000*%
%TD*%
%TA.AperFunction,SMDPad,CuDef*%
%ADD19RoundRect,0.250000X0.475000X-0.250000X0.475000X0.250000X-0.475000X0.250000X-0.475000X-0.250000X0*%
%TD*%
%TA.AperFunction,SMDPad,CuDef*%
%ADD20RoundRect,0.150000X0.825000X0.150000X-0.825000X0.150000X-0.825000X-0.150000X0.825000X-0.150000X0*%
%TD*%
%TA.AperFunction,SMDPad,CuDef*%
%ADD21RoundRect,0.200000X-0.200000X-0.275000X0.200000X-0.275000X0.200000X0.275000X-0.200000X0.275000X0*%
%TD*%
%TA.AperFunction,SMDPad,CuDef*%
%ADD22RoundRect,0.350000X-1.750000X-0.350000X1.750000X-0.350000X1.750000X0.350000X-1.750000X0.350000X0*%
%TD*%
%TA.AperFunction,SMDPad,CuDef*%
%ADD23RoundRect,0.200000X0.200000X0.275000X-0.200000X0.275000X-0.200000X-0.275000X0.200000X-0.275000X0*%
%TD*%
%TA.AperFunction,SMDPad,CuDef*%
%ADD24RoundRect,0.200000X-0.275000X0.200000X-0.275000X-0.200000X0.275000X-0.200000X0.275000X0.200000X0*%
%TD*%
%TA.AperFunction,SMDPad,CuDef*%
%ADD25RoundRect,0.250000X-0.475000X0.250000X-0.475000X-0.250000X0.475000X-0.250000X0.475000X0.250000X0*%
%TD*%
%TA.AperFunction,SMDPad,CuDef*%
%ADD26RoundRect,0.250000X0.450000X-0.262500X0.450000X0.262500X-0.450000X0.262500X-0.450000X-0.262500X0*%
%TD*%
%TA.AperFunction,SMDPad,CuDef*%
%ADD27RoundRect,0.150000X-0.587500X-0.150000X0.587500X-0.150000X0.587500X0.150000X-0.587500X0.150000X0*%
%TD*%
%TA.AperFunction,SMDPad,CuDef*%
%ADD28RoundRect,0.250000X0.262500X0.450000X-0.262500X0.450000X-0.262500X-0.450000X0.262500X-0.450000X0*%
%TD*%
%TA.AperFunction,SMDPad,CuDef*%
%ADD29RoundRect,0.250000X-0.625000X0.375000X-0.625000X-0.375000X0.625000X-0.375000X0.625000X0.375000X0*%
%TD*%
%TA.AperFunction,SMDPad,CuDef*%
%ADD30RoundRect,0.250000X-0.400000X-0.450000X0.400000X-0.450000X0.400000X0.450000X-0.400000X0.450000X0*%
%TD*%
%TA.AperFunction,SMDPad,CuDef*%
%ADD31R,1.000000X1.500000*%
%TD*%
%TA.AperFunction,SMDPad,CuDef*%
%ADD32RoundRect,0.150000X-0.512500X-0.150000X0.512500X-0.150000X0.512500X0.150000X-0.512500X0.150000X0*%
%TD*%
%TA.AperFunction,SMDPad,CuDef*%
%ADD33RoundRect,0.225000X0.225000X0.250000X-0.225000X0.250000X-0.225000X-0.250000X0.225000X-0.250000X0*%
%TD*%
%TA.AperFunction,SMDPad,CuDef*%
%ADD34RoundRect,0.200000X0.275000X-0.200000X0.275000X0.200000X-0.275000X0.200000X-0.275000X-0.200000X0*%
%TD*%
%TA.AperFunction,SMDPad,CuDef*%
%ADD35RoundRect,0.112500X0.112500X-0.187500X0.112500X0.187500X-0.112500X0.187500X-0.112500X-0.187500X0*%
%TD*%
%TA.AperFunction,ComponentPad*%
%ADD36R,1.700000X1.700000*%
%TD*%
%TA.AperFunction,ComponentPad*%
%ADD37O,1.700000X1.700000*%
%TD*%
%TA.AperFunction,ViaPad*%
%ADD38C,0.600000*%
%TD*%
%TA.AperFunction,Conductor*%
%ADD39C,0.500000*%
%TD*%
%TA.AperFunction,Conductor*%
%ADD40C,0.400000*%
%TD*%
%TA.AperFunction,Conductor*%
%ADD41C,1.000000*%
%TD*%
%TA.AperFunction,Conductor*%
%ADD42C,0.800000*%
%TD*%
G04 APERTURE END LIST*
D10*
%TO.P,R107,1*%
%TO.N,Net-(D103-A)*%
X113680000Y-65515000D03*
%TO.P,R107,2*%
%TO.N,Net-(BT101-LED1)*%
X113680000Y-67340000D03*
%TD*%
D11*
%TO.P,R111,1*%
%TO.N,/Vin*%
X77107500Y-70560000D03*
%TO.P,R111,2*%
%TO.N,Net-(R111-Pad2)*%
X78932500Y-70560000D03*
%TD*%
D12*
%TO.P,U101,1*%
%TO.N,Net-(R111-Pad2)*%
X78710000Y-68175000D03*
%TO.P,U101,2*%
%TO.N,Net-(J105-Pin_1)*%
X81250000Y-68175000D03*
%TO.P,U101,3*%
%TO.N,GND*%
X81250000Y-58645000D03*
%TO.P,U101,4*%
%TO.N,Net-(R113-Pad2)*%
X78710000Y-58645000D03*
%TD*%
D13*
%TO.P,C104,1*%
%TO.N,/Vin*%
X83440000Y-81620000D03*
%TO.P,C104,2*%
%TO.N,GND*%
X85340000Y-81620000D03*
%TD*%
D14*
%TO.P,BT101,1,TXD*%
%TO.N,Net-(BT101-TXD)*%
X97390000Y-58520000D03*
%TO.P,BT101,2,RXD*%
%TO.N,Net-(BT101-RXD)*%
X97390000Y-60020000D03*
%TO.P,BT101,3*%
%TO.N,N/C*%
X97390000Y-61520000D03*
%TO.P,BT101,4*%
X97390000Y-63020000D03*
%TO.P,BT101,5*%
X97390000Y-64520000D03*
%TO.P,BT101,6*%
X97390000Y-66020000D03*
%TO.P,BT101,7*%
X97390000Y-67520000D03*
%TO.P,BT101,8*%
X97390000Y-69020000D03*
%TO.P,BT101,9*%
X97390000Y-70520000D03*
%TO.P,BT101,10*%
X97390000Y-72020000D03*
%TO.P,BT101,11*%
X97390000Y-73520000D03*
%TO.P,BT101,12,VCC*%
%TO.N,/3V3*%
X97390000Y-75020000D03*
%TO.P,BT101,13,GND*%
%TO.N,GND*%
X97390000Y-76520000D03*
D15*
%TO.P,BT101,14*%
%TO.N,N/C*%
X98640000Y-78270000D03*
%TO.P,BT101,15*%
X100140000Y-78270000D03*
%TO.P,BT101,16*%
X101640000Y-78270000D03*
%TO.P,BT101,17*%
X103140000Y-78270000D03*
%TO.P,BT101,18*%
X104640000Y-78270000D03*
%TO.P,BT101,19*%
X106140000Y-78270000D03*
%TO.P,BT101,20*%
X107640000Y-78270000D03*
%TO.P,BT101,21*%
X109140000Y-78270000D03*
D14*
%TO.P,BT101,22*%
X110390000Y-76520000D03*
%TO.P,BT101,23*%
X110390000Y-75020000D03*
%TO.P,BT101,24*%
X110390000Y-73520000D03*
%TO.P,BT101,25*%
X110390000Y-72020000D03*
%TO.P,BT101,26,Key2*%
%TO.N,unconnected-(BT101-Key2-Pad26)*%
X110390000Y-70520000D03*
%TO.P,BT101,27*%
%TO.N,N/C*%
X110390000Y-69020000D03*
%TO.P,BT101,28*%
X110390000Y-67520000D03*
%TO.P,BT101,29*%
X110390000Y-66020000D03*
%TO.P,BT101,30*%
X110390000Y-64520000D03*
%TO.P,BT101,31,LED1*%
%TO.N,Net-(BT101-LED1)*%
X110390000Y-63020000D03*
%TO.P,BT101,32,LED2*%
%TO.N,Net-(BT101-LED2)*%
X110390000Y-61520000D03*
%TO.P,BT101,33*%
%TO.N,N/C*%
X110390000Y-60020000D03*
%TO.P,BT101,34,KEY1*%
%TO.N,Net-(BT101-KEY1)*%
X110390000Y-58520000D03*
%TD*%
D16*
%TO.P,JP101,1,A*%
%TO.N,GND*%
X113370000Y-59870000D03*
D17*
%TO.P,JP101,2,C*%
%TO.N,Net-(BT101-KEY1)*%
X113370000Y-58570000D03*
D18*
%TO.P,JP101,3,B*%
%TO.N,/3V3*%
X113370000Y-57270000D03*
%TD*%
D19*
%TO.P,C105,1*%
%TO.N,Net-(U102-CB)*%
X76490000Y-80280000D03*
%TO.P,C105,2*%
%TO.N,Net-(D102-K)*%
X76490000Y-78380000D03*
%TD*%
D20*
%TO.P,U103,1,PC14/PB7/PB8/PB9*%
%TO.N,/USART1_RX*%
X90225000Y-65920000D03*
%TO.P,U103,2,VDD*%
%TO.N,/3V3*%
X90225000Y-64650000D03*
%TO.P,U103,3,VSS*%
%TO.N,GND*%
X90225000Y-63380000D03*
%TO.P,U103,4,NRST/PA0/PA1/PA2*%
%TO.N,/USART2_TX*%
X90225000Y-62110000D03*
%TO.P,U103,5,PB0/PB1/PA8/PA11/PA9*%
%TO.N,/SIGNAL*%
X85275000Y-62110000D03*
%TO.P,U103,6,PA12/PA10*%
%TO.N,Net-(JP103-A)*%
X85275000Y-63380000D03*
%TO.P,U103,7,PA13*%
%TO.N,/SWDIO*%
X85275000Y-64650000D03*
%TO.P,U103,8,PA14/PA15/PB5/PB6*%
%TO.N,/SWDCLK*%
X85275000Y-65920000D03*
%TD*%
D21*
%TO.P,R109,1*%
%TO.N,Net-(D104-A)*%
X92920000Y-81760000D03*
%TO.P,R109,2*%
%TO.N,GND*%
X94570000Y-81760000D03*
%TD*%
D11*
%TO.P,R112,1*%
%TO.N,Net-(R111-Pad2)*%
X80527500Y-70520000D03*
%TO.P,R112,2*%
%TO.N,Net-(J105-Pin_1)*%
X82352500Y-70520000D03*
%TD*%
D22*
%TO.P,L101,1*%
%TO.N,Net-(D102-K)*%
X80080000Y-78417500D03*
%TO.P,L101,2*%
%TO.N,/3V3*%
X80080000Y-74667500D03*
%TD*%
D23*
%TO.P,R104,1*%
%TO.N,/Vin*%
X83400000Y-83590000D03*
%TO.P,R104,2*%
%TO.N,Net-(U102-~{SHDN})*%
X81750000Y-83590000D03*
%TD*%
D24*
%TO.P,R105,1*%
%TO.N,/3V3*%
X76070000Y-82610000D03*
%TO.P,R105,2*%
%TO.N,Net-(U102-FB)*%
X76070000Y-84260000D03*
%TD*%
D11*
%TO.P,R102,1*%
%TO.N,/USART1_RX*%
X92787500Y-58320000D03*
%TO.P,R102,2*%
%TO.N,Net-(BT101-TXD)*%
X94612500Y-58320000D03*
%TD*%
%TO.P,R101,1*%
%TO.N,/USART2_TX*%
X92795000Y-60320000D03*
%TO.P,R101,2*%
%TO.N,Net-(BT101-RXD)*%
X94620000Y-60320000D03*
%TD*%
D25*
%TO.P,C103,1*%
%TO.N,/3V3*%
X92282500Y-74890000D03*
%TO.P,C103,2*%
%TO.N,GND*%
X92282500Y-76790000D03*
%TD*%
%TO.P,C108,1*%
%TO.N,/3V3*%
X85880000Y-73840000D03*
%TO.P,C108,2*%
%TO.N,GND*%
X85880000Y-75740000D03*
%TD*%
D26*
%TO.P,R108,1*%
%TO.N,Net-(D103-A)*%
X113680000Y-63755000D03*
%TO.P,R108,2*%
%TO.N,Net-(BT101-LED2)*%
X113680000Y-61930000D03*
%TD*%
D27*
%TO.P,Q101,1,G*%
%TO.N,Net-(D104-A)*%
X93255000Y-83320000D03*
%TO.P,Q101,2,S*%
%TO.N,/Vin*%
X93255000Y-85220000D03*
%TO.P,Q101,3,D*%
%TO.N,Net-(J103-Pin_1)*%
X95130000Y-84270000D03*
%TD*%
D28*
%TO.P,R113,1*%
%TO.N,/SIGNAL*%
X81672500Y-56250000D03*
%TO.P,R113,2*%
%TO.N,Net-(R113-Pad2)*%
X79847500Y-56250000D03*
%TD*%
D29*
%TO.P,D101,1,K*%
%TO.N,GND*%
X84870000Y-49172500D03*
%TO.P,D101,2,A*%
%TO.N,Net-(D101-A)*%
X84870000Y-51972500D03*
%TD*%
D19*
%TO.P,C101,1*%
%TO.N,/3V3*%
X92515000Y-65110000D03*
%TO.P,C101,2*%
%TO.N,GND*%
X92515000Y-63210000D03*
%TD*%
D25*
%TO.P,C102,1*%
%TO.N,/3V3*%
X94392500Y-74910000D03*
%TO.P,C102,2*%
%TO.N,GND*%
X94392500Y-76810000D03*
%TD*%
D19*
%TO.P,C106,1*%
%TO.N,/3V3*%
X94500000Y-65110000D03*
%TO.P,C106,2*%
%TO.N,GND*%
X94500000Y-63210000D03*
%TD*%
D30*
%TO.P,D102,1,K*%
%TO.N,Net-(D102-K)*%
X83652500Y-79400000D03*
%TO.P,D102,2,A*%
%TO.N,GND*%
X86552500Y-79400000D03*
%TD*%
D29*
%TO.P,D103,1,K*%
%TO.N,GND*%
X91140000Y-49200000D03*
%TO.P,D103,2,A*%
%TO.N,Net-(D103-A)*%
X91140000Y-52000000D03*
%TD*%
D26*
%TO.P,R103,1*%
%TO.N,Net-(JP103-A)*%
X84900000Y-56602500D03*
%TO.P,R103,2*%
%TO.N,Net-(D101-A)*%
X84900000Y-54777500D03*
%TD*%
D31*
%TO.P,JP103,1,A*%
%TO.N,Net-(JP103-A)*%
X86980000Y-58020000D03*
%TO.P,JP103,2,B*%
%TO.N,/3V3*%
X88280000Y-58020000D03*
%TD*%
D32*
%TO.P,U102,1,CB*%
%TO.N,Net-(U102-CB)*%
X79405000Y-80150000D03*
%TO.P,U102,2,GND*%
%TO.N,GND*%
X79405000Y-81100000D03*
%TO.P,U102,3,FB*%
%TO.N,Net-(U102-FB)*%
X79405000Y-82050000D03*
%TO.P,U102,4,~{SHDN}*%
%TO.N,Net-(U102-~{SHDN})*%
X81680000Y-82050000D03*
%TO.P,U102,5,VIN*%
%TO.N,/Vin*%
X81680000Y-81100000D03*
%TO.P,U102,6,SW*%
%TO.N,Net-(D102-K)*%
X81680000Y-80150000D03*
%TD*%
D33*
%TO.P,C109,1*%
%TO.N,Net-(D104-A)*%
X91460000Y-81800000D03*
%TO.P,C109,2*%
%TO.N,GND*%
X89910000Y-81800000D03*
%TD*%
D34*
%TO.P,R106,1*%
%TO.N,Net-(U102-FB)*%
X77640000Y-84230000D03*
%TO.P,R106,2*%
%TO.N,GND*%
X77640000Y-82580000D03*
%TD*%
D35*
%TO.P,D104,1,K*%
%TO.N,/Vin*%
X91230000Y-85307500D03*
%TO.P,D104,2,A*%
%TO.N,Net-(D104-A)*%
X91230000Y-83207500D03*
%TD*%
D25*
%TO.P,C107,1*%
%TO.N,/3V3*%
X83800000Y-73860000D03*
%TO.P,C107,2*%
%TO.N,GND*%
X83800000Y-75760000D03*
%TD*%
D36*
%TO.P,J101,1,Pin_1*%
%TO.N,/SWDCLK*%
X87520000Y-68620000D03*
D37*
%TO.P,J101,2,Pin_2*%
%TO.N,/SWDIO*%
X84980000Y-68620000D03*
%TD*%
D36*
%TO.P,J103,1,Pin_1*%
%TO.N,Net-(J103-Pin_1)*%
X98090000Y-84330000D03*
%TD*%
%TO.P,J107,1,Pin_1*%
%TO.N,GND*%
X74990000Y-66730000D03*
%TD*%
%TO.P,J102,1,Pin_1*%
%TO.N,GND*%
X91170000Y-68620000D03*
D37*
%TO.P,J102,2,Pin_2*%
%TO.N,/3V3*%
X93710000Y-68620000D03*
%TD*%
D36*
%TO.P,J106,1,Pin_1*%
%TO.N,/Vin*%
X75040000Y-70350000D03*
%TD*%
%TO.P,J104,1,Pin_1*%
%TO.N,GND*%
X104320000Y-84320000D03*
%TD*%
%TO.P,J105,1,Pin_1*%
%TO.N,Net-(J105-Pin_1)*%
X74990000Y-63070000D03*
%TD*%
D38*
%TO.N,GND*%
X76870000Y-76480000D03*
X106000000Y-69000000D03*
X85320000Y-78750000D03*
X86790000Y-77870000D03*
X80000000Y-61000000D03*
X76710000Y-81480000D03*
X80340000Y-81090000D03*
X86520000Y-82610000D03*
X102000000Y-69000000D03*
X86500000Y-81760000D03*
X92152500Y-77900000D03*
X106000000Y-73000000D03*
X76850000Y-75500000D03*
X105040000Y-76400000D03*
X86450000Y-80980000D03*
X102000000Y-65000000D03*
X94532500Y-78000000D03*
X78530000Y-81100000D03*
X81250000Y-60680000D03*
X75980000Y-76500000D03*
X108130000Y-76300000D03*
X90000000Y-56000000D03*
X87520000Y-77880000D03*
X104000000Y-65000000D03*
X85820000Y-83010000D03*
X94000000Y-56000000D03*
X88000000Y-50000000D03*
X75760000Y-81440000D03*
X77640000Y-81730000D03*
X85080000Y-83010000D03*
X102070000Y-76370000D03*
X100000000Y-69000000D03*
X88810000Y-63390000D03*
X85300000Y-79520000D03*
X87840000Y-79390000D03*
X87830000Y-78630000D03*
X88000000Y-54000000D03*
X104000000Y-69000000D03*
X93342500Y-77920000D03*
X100000000Y-73000000D03*
X92700000Y-62400000D03*
X75960000Y-75500000D03*
X102000000Y-73000000D03*
X112660000Y-60300000D03*
X78000000Y-61000000D03*
X92000000Y-56000000D03*
X106000000Y-65000000D03*
X88000000Y-56000000D03*
X104000000Y-73000000D03*
X99680000Y-76390000D03*
X79000000Y-61000000D03*
X77955000Y-81195000D03*
X100000000Y-65000000D03*
X88000000Y-52000000D03*
X87380000Y-80980000D03*
X87900000Y-80340000D03*
X94530000Y-62410000D03*
X85960000Y-77880000D03*
%TO.N,/3V3*%
X88070000Y-60110000D03*
X89130000Y-64620000D03*
%TO.N,Net-(D103-A)*%
X92870000Y-52020000D03*
X113680000Y-64690000D03*
%TO.N,/Vin*%
X86120000Y-85307500D03*
X88140000Y-85307500D03*
X89040000Y-85307500D03*
X87080000Y-85307500D03*
%TD*%
D39*
%TO.N,Net-(BT101-RXD)*%
X97390000Y-60020000D02*
X94920000Y-60020000D01*
X94920000Y-60020000D02*
X94620000Y-60320000D01*
D40*
X94940000Y-60000000D02*
X94620000Y-60320000D01*
D39*
%TO.N,Net-(BT101-TXD)*%
X97390000Y-58520000D02*
X94812500Y-58520000D01*
%TO.N,GND*%
X77955000Y-81195000D02*
X78050000Y-81100000D01*
X78530000Y-81100000D02*
X79405000Y-81100000D01*
X88820000Y-63380000D02*
X88810000Y-63390000D01*
X78050000Y-81100000D02*
X78530000Y-81100000D01*
X90225000Y-63380000D02*
X88820000Y-63380000D01*
X81250000Y-58645000D02*
X81250000Y-60680000D01*
D41*
X94272500Y-76690000D02*
X94392500Y-76810000D01*
D39*
X77640000Y-81510000D02*
X77955000Y-81195000D01*
D42*
X92515000Y-62585000D02*
X92700000Y-62400000D01*
X94500000Y-63210000D02*
X94500000Y-62440000D01*
X92515000Y-63210000D02*
X94500000Y-63210000D01*
X92515000Y-63210000D02*
X92515000Y-62585000D01*
X94500000Y-62440000D02*
X94530000Y-62410000D01*
D39*
X79405000Y-81100000D02*
X80330000Y-81100000D01*
D40*
X90225000Y-63380000D02*
X92345000Y-63380000D01*
D39*
X77640000Y-82580000D02*
X77640000Y-81730000D01*
X77640000Y-81730000D02*
X77640000Y-81510000D01*
X92282500Y-76790000D02*
X94372500Y-76790000D01*
X97160000Y-76550000D02*
X94652500Y-76550000D01*
X80330000Y-81100000D02*
X80340000Y-81090000D01*
X94652500Y-76550000D02*
X94392500Y-76810000D01*
D42*
X113090000Y-59870000D02*
X112660000Y-60300000D01*
D39*
%TO.N,Net-(BT101-KEY1)*%
X110390000Y-58520000D02*
X113320000Y-58520000D01*
D40*
%TO.N,/3V3*%
X86570000Y-73840000D02*
X86600000Y-73810000D01*
D42*
X92282500Y-74890000D02*
X90170000Y-74890000D01*
D39*
X97160000Y-75050000D02*
X94532500Y-75050000D01*
D40*
X88070000Y-60110000D02*
X88070000Y-58230000D01*
D39*
X108150000Y-57690000D02*
X108150000Y-74010000D01*
D40*
X92055000Y-64650000D02*
X92515000Y-65110000D01*
D42*
X94392500Y-74910000D02*
X92302500Y-74910000D01*
D40*
X90225000Y-64650000D02*
X92055000Y-64650000D01*
D39*
X85880000Y-73840000D02*
X85880000Y-72330000D01*
X85880000Y-72330000D02*
X85720000Y-72170000D01*
X74460000Y-74730000D02*
X74460000Y-81930000D01*
X107140000Y-75020000D02*
X97390000Y-75020000D01*
X75140000Y-82610000D02*
X76070000Y-82610000D01*
D42*
X89120000Y-73840000D02*
X85880000Y-73840000D01*
D39*
X113370000Y-57270000D02*
X108570000Y-57270000D01*
X85720000Y-72170000D02*
X77020000Y-72170000D01*
X89160000Y-64650000D02*
X89130000Y-64620000D01*
X77020000Y-72170000D02*
X74460000Y-74730000D01*
X90225000Y-64650000D02*
X89160000Y-64650000D01*
D40*
X85880000Y-73840000D02*
X86570000Y-73840000D01*
D39*
X108570000Y-57270000D02*
X108150000Y-57690000D01*
X108150000Y-74010000D02*
X107140000Y-75020000D01*
D42*
X90170000Y-74890000D02*
X89120000Y-73840000D01*
D39*
X74460000Y-81930000D02*
X75140000Y-82610000D01*
%TO.N,/SWDCLK*%
X85275000Y-65920000D02*
X86320000Y-65920000D01*
X87520000Y-67120000D02*
X87520000Y-68620000D01*
X86320000Y-65920000D02*
X87520000Y-67120000D01*
%TO.N,/SWDIO*%
X85275000Y-64650000D02*
X84000000Y-64650000D01*
X83430000Y-67070000D02*
X83430000Y-65160000D01*
X84980000Y-68620000D02*
X83430000Y-67070000D01*
X83430000Y-65160000D02*
X83970000Y-64620000D01*
X83970000Y-64620000D02*
X84000000Y-64650000D01*
%TO.N,/USART2_TX*%
X91005000Y-62110000D02*
X92795000Y-60320000D01*
X90225000Y-62110000D02*
X91005000Y-62110000D01*
%TO.N,Net-(D101-A)*%
X84900000Y-54777500D02*
X84900000Y-52002500D01*
%TO.N,/USART1_RX*%
X88050000Y-61780000D02*
X91510000Y-58320000D01*
X88050000Y-65250000D02*
X88050000Y-61780000D01*
X91510000Y-58320000D02*
X92787500Y-58320000D01*
X90225000Y-65920000D02*
X88720000Y-65920000D01*
X88720000Y-65920000D02*
X88050000Y-65250000D01*
%TO.N,Net-(D104-A)*%
X91460000Y-81800000D02*
X92880000Y-81800000D01*
X91230000Y-83207500D02*
X91230000Y-82030000D01*
X91230000Y-82030000D02*
X91460000Y-81800000D01*
X91230000Y-83207500D02*
X93142500Y-83207500D01*
X93142500Y-83207500D02*
X93255000Y-83320000D01*
%TO.N,Net-(BT101-LED1)*%
X112260000Y-64040000D02*
X111240000Y-63020000D01*
X112260000Y-64040000D02*
X112260000Y-66880000D01*
X113680000Y-67340000D02*
X112720000Y-67340000D01*
X112260000Y-66880000D02*
X112720000Y-67340000D01*
X111240000Y-63020000D02*
X110390000Y-63020000D01*
%TO.N,Net-(BT101-LED2)*%
X113270000Y-61520000D02*
X113680000Y-61930000D01*
X110390000Y-61520000D02*
X113270000Y-61520000D01*
D40*
%TO.N,Net-(D103-A)*%
X92870000Y-52020000D02*
X91160000Y-52020000D01*
X113680000Y-65515000D02*
X113680000Y-64690000D01*
D39*
X113680000Y-64690000D02*
X113680000Y-63755000D01*
D40*
%TO.N,Net-(JP103-A)*%
X84900000Y-56602500D02*
X84900000Y-57760000D01*
X85275000Y-63380000D02*
X86790000Y-63380000D01*
X86980000Y-58020000D02*
X85160000Y-58020000D01*
X86790000Y-63380000D02*
X86980000Y-63190000D01*
X86980000Y-63190000D02*
X86980000Y-58020000D01*
X85160000Y-58020000D02*
X84900000Y-57760000D01*
D39*
%TO.N,Net-(U102-CB)*%
X79405000Y-80150000D02*
X76620000Y-80150000D01*
D42*
%TO.N,Net-(J103-Pin_1)*%
X98090000Y-84330000D02*
X95190000Y-84330000D01*
X95190000Y-84330000D02*
X95130000Y-84270000D01*
D39*
%TO.N,Net-(J105-Pin_1)*%
X82352500Y-69277500D02*
X81250000Y-68175000D01*
X78570000Y-63070000D02*
X81250000Y-65750000D01*
X74990000Y-63070000D02*
X78570000Y-63070000D01*
X82352500Y-70520000D02*
X82352500Y-69277500D01*
X81250000Y-65750000D02*
X81250000Y-68175000D01*
D40*
%TO.N,Net-(U102-~{SHDN})*%
X81680000Y-82050000D02*
X81680000Y-83520000D01*
%TO.N,Net-(U102-FB)*%
X79405000Y-82050000D02*
X79405000Y-82465000D01*
X79405000Y-82465000D02*
X77640000Y-84230000D01*
D39*
X76070000Y-84260000D02*
X77610000Y-84260000D01*
D42*
%TO.N,/Vin*%
X91317500Y-85220000D02*
X91230000Y-85307500D01*
D39*
X75040000Y-70350000D02*
X76897500Y-70350000D01*
D42*
X91230000Y-85307500D02*
X89040000Y-85307500D01*
D39*
X81680000Y-81100000D02*
X82920000Y-81100000D01*
X82920000Y-81100000D02*
X83440000Y-81620000D01*
D42*
X93255000Y-85220000D02*
X91317500Y-85220000D01*
X84677500Y-85307500D02*
X83440000Y-84070000D01*
X89040000Y-85307500D02*
X84677500Y-85307500D01*
X83440000Y-84070000D02*
X83440000Y-81620000D01*
D39*
%TO.N,Net-(R111-Pad2)*%
X78932500Y-70560000D02*
X78932500Y-68397500D01*
X78932500Y-70560000D02*
X80487500Y-70560000D01*
%TO.N,Net-(R113-Pad2)*%
X78710000Y-58645000D02*
X78710000Y-57387500D01*
X78710000Y-57387500D02*
X79847500Y-56250000D01*
D40*
%TO.N,/SIGNAL*%
X83310000Y-56840000D02*
X82720000Y-56250000D01*
X83650000Y-62110000D02*
X83310000Y-61770000D01*
X82720000Y-56250000D02*
X81672500Y-56250000D01*
X83310000Y-61770000D02*
X83310000Y-56840000D01*
X85275000Y-62110000D02*
X83650000Y-62110000D01*
%TD*%
%TA.AperFunction,Conductor*%
%TO.N,/3V3*%
G36*
X91646325Y-64098961D02*
G01*
X91720659Y-64144810D01*
X91720660Y-64144810D01*
X91720666Y-64144814D01*
X91887203Y-64199999D01*
X91989991Y-64210500D01*
X93040008Y-64210499D01*
X93040016Y-64210498D01*
X93040019Y-64210498D01*
X93096302Y-64204748D01*
X93142797Y-64199999D01*
X93309334Y-64144814D01*
X93335036Y-64128960D01*
X93400132Y-64110500D01*
X93614868Y-64110500D01*
X93679963Y-64128960D01*
X93705666Y-64144814D01*
X93872203Y-64199999D01*
X93974991Y-64210500D01*
X95025008Y-64210499D01*
X95025016Y-64210498D01*
X95025019Y-64210498D01*
X95048896Y-64208058D01*
X95127797Y-64199999D01*
X95155521Y-64190811D01*
X95206472Y-64185095D01*
X95558456Y-64219194D01*
X95623285Y-64245251D01*
X95663735Y-64302221D01*
X95670498Y-64342064D01*
X95719436Y-75333470D01*
X95700050Y-75400596D01*
X95647450Y-75446586D01*
X95593484Y-75458007D01*
X88176466Y-75341204D01*
X88109745Y-75320466D01*
X88066751Y-75271128D01*
X87852339Y-74826989D01*
X87820000Y-74760000D01*
X87819999Y-74759999D01*
X86618049Y-74779230D01*
X86577062Y-74772952D01*
X86507800Y-74750001D01*
X86405010Y-74739500D01*
X85354998Y-74739500D01*
X85354980Y-74739501D01*
X85252203Y-74750000D01*
X85252196Y-74750002D01*
X85108248Y-74797701D01*
X85071229Y-74803979D01*
X84576279Y-74811898D01*
X84535292Y-74805620D01*
X84427800Y-74770001D01*
X84325010Y-74759500D01*
X83274998Y-74759500D01*
X83274980Y-74759501D01*
X83172203Y-74770000D01*
X83172200Y-74770001D01*
X83005660Y-74825187D01*
X83003328Y-74826275D01*
X83000224Y-74826989D01*
X82998812Y-74827457D01*
X82998767Y-74827324D01*
X82952919Y-74837872D01*
X82820000Y-74839999D01*
X82819998Y-74840000D01*
X82257181Y-75515383D01*
X82199142Y-75554282D01*
X82161922Y-75560000D01*
X77773139Y-75560000D01*
X77706100Y-75540315D01*
X77660345Y-75487511D01*
X77649919Y-75449883D01*
X77635370Y-75320755D01*
X77633937Y-75314480D01*
X77630828Y-75286447D01*
X77639559Y-72824256D01*
X77659481Y-72757289D01*
X77712447Y-72711722D01*
X77764253Y-72700700D01*
X88280000Y-72760000D01*
X88280020Y-72759999D01*
X88280038Y-72760000D01*
X92070500Y-72741000D01*
X92270000Y-72740000D01*
X92191506Y-70029655D01*
X92209241Y-69962078D01*
X92256033Y-69917234D01*
X92262321Y-69913799D01*
X92262331Y-69913796D01*
X92377546Y-69827546D01*
X92463796Y-69712331D01*
X92514091Y-69577483D01*
X92520500Y-69517873D01*
X92520499Y-67722128D01*
X92514091Y-67662517D01*
X92463796Y-67527669D01*
X92463795Y-67527668D01*
X92463793Y-67527664D01*
X92377547Y-67412455D01*
X92377544Y-67412452D01*
X92262335Y-67326206D01*
X92262330Y-67326203D01*
X92189781Y-67299144D01*
X92133848Y-67257272D01*
X92109431Y-67191808D01*
X92109168Y-67186578D01*
X92100000Y-66870000D01*
X91449162Y-66856152D01*
X91382557Y-66835046D01*
X91337935Y-66781280D01*
X91329465Y-66711926D01*
X91359836Y-66649002D01*
X91388674Y-66625451D01*
X91451865Y-66588081D01*
X91568081Y-66471865D01*
X91651744Y-66330398D01*
X91697598Y-66172569D01*
X91700500Y-66135694D01*
X91700500Y-65704306D01*
X91697598Y-65667431D01*
X91689168Y-65638416D01*
X91651745Y-65509606D01*
X91651744Y-65509603D01*
X91651744Y-65509602D01*
X91568081Y-65368135D01*
X91568079Y-65368133D01*
X91568076Y-65368129D01*
X91451870Y-65251923D01*
X91451862Y-65251917D01*
X91310396Y-65168255D01*
X91310393Y-65168254D01*
X91152573Y-65122402D01*
X91152567Y-65122401D01*
X91115701Y-65119500D01*
X91115694Y-65119500D01*
X89334306Y-65119500D01*
X89334298Y-65119500D01*
X89297432Y-65122401D01*
X89297426Y-65122402D01*
X89152267Y-65164576D01*
X89117672Y-65169500D01*
X89082229Y-65169500D01*
X89015190Y-65149815D01*
X88994552Y-65133185D01*
X88836816Y-64975449D01*
X88803334Y-64914128D01*
X88800500Y-64887770D01*
X88800500Y-64307448D01*
X88820185Y-64240409D01*
X88872989Y-64194654D01*
X88910616Y-64184228D01*
X88989255Y-64175368D01*
X89088124Y-64140771D01*
X89157900Y-64137209D01*
X89163659Y-64138733D01*
X89297431Y-64177598D01*
X89334306Y-64180500D01*
X89334314Y-64180500D01*
X91115686Y-64180500D01*
X91115694Y-64180500D01*
X91152569Y-64177598D01*
X91152571Y-64177597D01*
X91152573Y-64177597D01*
X91194191Y-64165505D01*
X91310398Y-64131744D01*
X91367848Y-64097767D01*
X91430969Y-64080500D01*
X91581229Y-64080500D01*
X91646325Y-64098961D01*
G37*
%TD.AperFunction*%
%TD*%
%TA.AperFunction,Conductor*%
%TO.N,Net-(D102-K)*%
G36*
X84565879Y-77369350D02*
G01*
X84632812Y-77389385D01*
X84678290Y-77442427D01*
X84689226Y-77494121D01*
X84684693Y-78221519D01*
X84665690Y-78286716D01*
X84594209Y-78400480D01*
X84534633Y-78570737D01*
X84534630Y-78570750D01*
X84514435Y-78749996D01*
X84514435Y-78750003D01*
X84534630Y-78929249D01*
X84534633Y-78929262D01*
X84583281Y-79068288D01*
X84586843Y-79138067D01*
X84576097Y-79163660D01*
X84577231Y-79164206D01*
X84574210Y-79170478D01*
X84514633Y-79340737D01*
X84514630Y-79340750D01*
X84494435Y-79519996D01*
X84494435Y-79520003D01*
X84514630Y-79699249D01*
X84514631Y-79699254D01*
X84574211Y-79869523D01*
X84654212Y-79996843D01*
X84673216Y-80063587D01*
X84670785Y-80453932D01*
X84650683Y-80520848D01*
X84623683Y-80550438D01*
X84620514Y-80552943D01*
X84555714Y-80579074D01*
X84543292Y-80579665D01*
X84235029Y-80578854D01*
X84168041Y-80558993D01*
X84158819Y-80552389D01*
X84158657Y-80552289D01*
X84158656Y-80552288D01*
X84009334Y-80460186D01*
X83842797Y-80405001D01*
X83842795Y-80405000D01*
X83740016Y-80394500D01*
X83740009Y-80394500D01*
X83202588Y-80394500D01*
X83155137Y-80385062D01*
X83138913Y-80378342D01*
X83138911Y-80378341D01*
X82993920Y-80349500D01*
X82993918Y-80349500D01*
X82474828Y-80349500D01*
X82440233Y-80344576D01*
X82295073Y-80302402D01*
X82295067Y-80302401D01*
X82258201Y-80299500D01*
X82258194Y-80299500D01*
X81101806Y-80299500D01*
X81101798Y-80299500D01*
X81064932Y-80302401D01*
X81064926Y-80302402D01*
X81038592Y-80310053D01*
X80968723Y-80309852D01*
X80910053Y-80271908D01*
X80881212Y-80208269D01*
X80880000Y-80190976D01*
X80880000Y-79470000D01*
X80879999Y-79469999D01*
X80336735Y-79471876D01*
X80273186Y-79454609D01*
X80269552Y-79452460D01*
X80177898Y-79398256D01*
X80177897Y-79398255D01*
X80177896Y-79398255D01*
X80177893Y-79398254D01*
X80020073Y-79352402D01*
X80020067Y-79352401D01*
X79983201Y-79349500D01*
X79983194Y-79349500D01*
X78826806Y-79349500D01*
X78826798Y-79349500D01*
X78789932Y-79352401D01*
X78789926Y-79352402D01*
X78644767Y-79394576D01*
X78610172Y-79399500D01*
X77407558Y-79399500D01*
X77342462Y-79381039D01*
X77284340Y-79345189D01*
X77284335Y-79345187D01*
X77284334Y-79345186D01*
X77117797Y-79290001D01*
X77117795Y-79290000D01*
X77015010Y-79279500D01*
X75964998Y-79279500D01*
X75964980Y-79279501D01*
X75862203Y-79290000D01*
X75862200Y-79290001D01*
X75695668Y-79345185D01*
X75695663Y-79345187D01*
X75546337Y-79437292D01*
X75531170Y-79452460D01*
X75469846Y-79485944D01*
X75443920Y-79488776D01*
X75334929Y-79489153D01*
X75267822Y-79469701D01*
X75221884Y-79417055D01*
X75210500Y-79365154D01*
X75210500Y-77445070D01*
X75230185Y-77378031D01*
X75282989Y-77332276D01*
X75335144Y-77321072D01*
X84565879Y-77369350D01*
G37*
%TD.AperFunction*%
%TD*%
%TA.AperFunction,Conductor*%
%TO.N,GND*%
G36*
X112095701Y-67777516D02*
G01*
X112102180Y-67783548D01*
X112241580Y-67922948D01*
X112241584Y-67922951D01*
X112364498Y-68005080D01*
X112364511Y-68005087D01*
X112501082Y-68061656D01*
X112501087Y-68061658D01*
X112622359Y-68085781D01*
X112684270Y-68118166D01*
X112685849Y-68119717D01*
X112761344Y-68195212D01*
X112910666Y-68287314D01*
X113077203Y-68342499D01*
X113179991Y-68353000D01*
X114180008Y-68352999D01*
X114180016Y-68352998D01*
X114180019Y-68352998D01*
X114236302Y-68347248D01*
X114282797Y-68342499D01*
X114449334Y-68287314D01*
X114598461Y-68195332D01*
X114665851Y-68176893D01*
X114732514Y-68197816D01*
X114777284Y-68251457D01*
X114787555Y-68300872D01*
X114787555Y-82894809D01*
X114787385Y-82901299D01*
X114771408Y-83206147D01*
X114770051Y-83219054D01*
X114722808Y-83517343D01*
X114720110Y-83530039D01*
X114641943Y-83821764D01*
X114637932Y-83834109D01*
X114529700Y-84116062D01*
X114524421Y-84127919D01*
X114387307Y-84397020D01*
X114380817Y-84408260D01*
X114216334Y-84661542D01*
X114208705Y-84672043D01*
X114018637Y-84906758D01*
X114009952Y-84916403D01*
X113796403Y-85129952D01*
X113786758Y-85138637D01*
X113552043Y-85328705D01*
X113541542Y-85336334D01*
X113288260Y-85500817D01*
X113277020Y-85507307D01*
X113007919Y-85644421D01*
X112996062Y-85649700D01*
X112714109Y-85757932D01*
X112701764Y-85761943D01*
X112410039Y-85840110D01*
X112397343Y-85842808D01*
X112099054Y-85890051D01*
X112086147Y-85891408D01*
X111781300Y-85907385D01*
X111774810Y-85907555D01*
X99108829Y-85907555D01*
X99041790Y-85887870D01*
X98996035Y-85835066D01*
X98986091Y-85765908D01*
X99015116Y-85702352D01*
X99065496Y-85667373D01*
X99164635Y-85630396D01*
X99182331Y-85623796D01*
X99297546Y-85537546D01*
X99383796Y-85422331D01*
X99434091Y-85287483D01*
X99440500Y-85227873D01*
X99440499Y-83432128D01*
X99434091Y-83372517D01*
X99431463Y-83365472D01*
X99383797Y-83237671D01*
X99383793Y-83237664D01*
X99297547Y-83122455D01*
X99297544Y-83122452D01*
X99182335Y-83036206D01*
X99182328Y-83036202D01*
X99047482Y-82985908D01*
X99047483Y-82985908D01*
X98987883Y-82979501D01*
X98987881Y-82979500D01*
X98987873Y-82979500D01*
X98987864Y-82979500D01*
X97192129Y-82979500D01*
X97192123Y-82979501D01*
X97132516Y-82985908D01*
X96997671Y-83036202D01*
X96997664Y-83036206D01*
X96882455Y-83122452D01*
X96882452Y-83122455D01*
X96796206Y-83237664D01*
X96796202Y-83237671D01*
X96754742Y-83348833D01*
X96712871Y-83404767D01*
X96647407Y-83429184D01*
X96638560Y-83429500D01*
X95478639Y-83429500D01*
X95431187Y-83420061D01*
X95392666Y-83404105D01*
X95392658Y-83404103D01*
X95218696Y-83369500D01*
X95218692Y-83369500D01*
X95041308Y-83369500D01*
X95041303Y-83369500D01*
X94867341Y-83404103D01*
X94867333Y-83404105D01*
X94732246Y-83460061D01*
X94684793Y-83469500D01*
X94617000Y-83469500D01*
X94549961Y-83449815D01*
X94504206Y-83397011D01*
X94493000Y-83345500D01*
X94493000Y-83104313D01*
X94492999Y-83104298D01*
X94490098Y-83067432D01*
X94490097Y-83067426D01*
X94444808Y-82911543D01*
X94444244Y-82909602D01*
X94365686Y-82776767D01*
X109927556Y-82776767D01*
X109927556Y-83019344D01*
X109959025Y-83258386D01*
X109959218Y-83259845D01*
X109977123Y-83326666D01*
X110022003Y-83494160D01*
X110114829Y-83718261D01*
X110114832Y-83718268D01*
X110236120Y-83928345D01*
X110236122Y-83928348D01*
X110236123Y-83928349D01*
X110383789Y-84120792D01*
X110383795Y-84120799D01*
X110555312Y-84292316D01*
X110555319Y-84292322D01*
X110565570Y-84300188D01*
X110747767Y-84439992D01*
X110957844Y-84561280D01*
X111181956Y-84654110D01*
X111416267Y-84716894D01*
X111596642Y-84740640D01*
X111656767Y-84748556D01*
X111656768Y-84748556D01*
X111899345Y-84748556D01*
X111947444Y-84742223D01*
X112139845Y-84716894D01*
X112374156Y-84654110D01*
X112598268Y-84561280D01*
X112808345Y-84439992D01*
X113000794Y-84292321D01*
X113172321Y-84120794D01*
X113319992Y-83928345D01*
X113441280Y-83718268D01*
X113534110Y-83494156D01*
X113596894Y-83259845D01*
X113628556Y-83019344D01*
X113628556Y-82776768D01*
X113627419Y-82768135D01*
X113612120Y-82651923D01*
X113596894Y-82536267D01*
X113534110Y-82301956D01*
X113441280Y-82077844D01*
X113319992Y-81867767D01*
X113172321Y-81675318D01*
X113172316Y-81675312D01*
X113000799Y-81503795D01*
X113000792Y-81503789D01*
X112808349Y-81356123D01*
X112808348Y-81356122D01*
X112808345Y-81356120D01*
X112598268Y-81234832D01*
X112598261Y-81234829D01*
X112374160Y-81142003D01*
X112206055Y-81096959D01*
X112139845Y-81079218D01*
X112139844Y-81079217D01*
X112139841Y-81079217D01*
X111899345Y-81047556D01*
X111899344Y-81047556D01*
X111656768Y-81047556D01*
X111656767Y-81047556D01*
X111416270Y-81079217D01*
X111181951Y-81142003D01*
X110957850Y-81234829D01*
X110957841Y-81234833D01*
X110747762Y-81356123D01*
X110555319Y-81503789D01*
X110555312Y-81503795D01*
X110383795Y-81675312D01*
X110383789Y-81675319D01*
X110236123Y-81867762D01*
X110114833Y-82077841D01*
X110114829Y-82077850D01*
X110022003Y-82301951D01*
X109959217Y-82536270D01*
X109927556Y-82776767D01*
X94365686Y-82776767D01*
X94360581Y-82768135D01*
X94360579Y-82768133D01*
X94360576Y-82768129D01*
X94244370Y-82651923D01*
X94244362Y-82651917D01*
X94102896Y-82568255D01*
X94102893Y-82568254D01*
X93945073Y-82522402D01*
X93945067Y-82522401D01*
X93908201Y-82519500D01*
X93908194Y-82519500D01*
X93865518Y-82519500D01*
X93798479Y-82499815D01*
X93752724Y-82447011D01*
X93742780Y-82377853D01*
X93759400Y-82331352D01*
X93759720Y-82330822D01*
X93763478Y-82324606D01*
X93814086Y-82162196D01*
X93820500Y-82091616D01*
X93820500Y-81428384D01*
X93814086Y-81357804D01*
X93763478Y-81195394D01*
X93675472Y-81049815D01*
X93675470Y-81049813D01*
X93675469Y-81049811D01*
X93555188Y-80929530D01*
X93535941Y-80917895D01*
X93409606Y-80841522D01*
X93247196Y-80790914D01*
X93247194Y-80790913D01*
X93247192Y-80790913D01*
X93197778Y-80786423D01*
X93176616Y-80784500D01*
X92663384Y-80784500D01*
X92644145Y-80786248D01*
X92592807Y-80790913D01*
X92430393Y-80841522D01*
X92284814Y-80929528D01*
X92268768Y-80945574D01*
X92207444Y-80979058D01*
X92137753Y-80974072D01*
X92115992Y-80963430D01*
X91993699Y-80887998D01*
X91993694Y-80887996D01*
X91832709Y-80834651D01*
X91733346Y-80824500D01*
X91186662Y-80824500D01*
X91186644Y-80824501D01*
X91087292Y-80834650D01*
X91087289Y-80834651D01*
X90926305Y-80887996D01*
X90926294Y-80888001D01*
X90781959Y-80977029D01*
X90781955Y-80977032D01*
X90662032Y-81096955D01*
X90662029Y-81096959D01*
X90573001Y-81241294D01*
X90572996Y-81241305D01*
X90519651Y-81402290D01*
X90509500Y-81501647D01*
X90509500Y-81793051D01*
X90507117Y-81817243D01*
X90479500Y-81956079D01*
X90479500Y-83281421D01*
X90502117Y-83395123D01*
X90504500Y-83419311D01*
X90504500Y-83456903D01*
X90507234Y-83491652D01*
X90507234Y-83491655D01*
X90507235Y-83491656D01*
X90550445Y-83640387D01*
X90569139Y-83671996D01*
X90629282Y-83773694D01*
X90629289Y-83773703D01*
X90738796Y-83883210D01*
X90738800Y-83883213D01*
X90738802Y-83883215D01*
X90872113Y-83962055D01*
X91020844Y-84005265D01*
X91055595Y-84008000D01*
X91404404Y-84007999D01*
X91439156Y-84005265D01*
X91584901Y-83962922D01*
X91619492Y-83958000D01*
X92184400Y-83958000D01*
X92251439Y-83977685D01*
X92260401Y-83984021D01*
X92265636Y-83988082D01*
X92299316Y-84008000D01*
X92407102Y-84071744D01*
X92407103Y-84071744D01*
X92407104Y-84071745D01*
X92423209Y-84076424D01*
X92482094Y-84114030D01*
X92511300Y-84177503D01*
X92501554Y-84246690D01*
X92455950Y-84299624D01*
X92388966Y-84319499D01*
X92388613Y-84319500D01*
X91228804Y-84319500D01*
X91054839Y-84354103D01*
X91054827Y-84354107D01*
X90983517Y-84383644D01*
X90949919Y-84397561D01*
X90902468Y-84407000D01*
X85101861Y-84407000D01*
X85034822Y-84387315D01*
X85014180Y-84370681D01*
X84376819Y-83733319D01*
X84343334Y-83671996D01*
X84340500Y-83645638D01*
X84340500Y-82505132D01*
X84358960Y-82440036D01*
X84374814Y-82414334D01*
X84429999Y-82247797D01*
X84440500Y-82145009D01*
X84440499Y-81208687D01*
X84460183Y-81141649D01*
X84512987Y-81095894D01*
X84561723Y-81084719D01*
X84567315Y-81084594D01*
X84579737Y-81084003D01*
X84605028Y-81082163D01*
X84744767Y-81047891D01*
X84809567Y-81021760D01*
X84933988Y-80949509D01*
X84937157Y-80947004D01*
X84997094Y-80891164D01*
X85024094Y-80861574D01*
X85074226Y-80796786D01*
X85134810Y-80666283D01*
X85154912Y-80599367D01*
X85154912Y-80599366D01*
X85176275Y-80457080D01*
X85178706Y-80066735D01*
X85159393Y-79925158D01*
X85140389Y-79858414D01*
X85082230Y-79727899D01*
X85039963Y-79660633D01*
X85027919Y-79635624D01*
X85015187Y-79599238D01*
X85009011Y-79572177D01*
X85004696Y-79533870D01*
X85004697Y-79506113D01*
X85009012Y-79467816D01*
X85015191Y-79440744D01*
X85025132Y-79412335D01*
X85049881Y-79341605D01*
X85052601Y-79334536D01*
X85052925Y-79333766D01*
X85054228Y-79329778D01*
X85056824Y-79322594D01*
X85059260Y-79316450D01*
X85059261Y-79316443D01*
X85061035Y-79310042D01*
X85061231Y-79310096D01*
X85062894Y-79303279D01*
X85078496Y-79255571D01*
X85091686Y-79112296D01*
X85088285Y-79045670D01*
X85088233Y-79043647D01*
X85088125Y-79042545D01*
X85088124Y-79042517D01*
X85088124Y-79042516D01*
X85060413Y-78901330D01*
X85035188Y-78829244D01*
X85029011Y-78802179D01*
X85024696Y-78763871D01*
X85024696Y-78736122D01*
X85029012Y-78697811D01*
X85035185Y-78670763D01*
X85047919Y-78634371D01*
X85059960Y-78609368D01*
X85093712Y-78555654D01*
X85150996Y-78428168D01*
X85150997Y-78428164D01*
X85150999Y-78428160D01*
X85169998Y-78362976D01*
X85169999Y-78362971D01*
X85190183Y-78224669D01*
X85194716Y-77497271D01*
X85194714Y-77497260D01*
X85194715Y-77497256D01*
X85183781Y-77389507D01*
X85183780Y-77389497D01*
X85172844Y-77337803D01*
X85139200Y-77234841D01*
X85062046Y-77113396D01*
X85023023Y-77067883D01*
X85016570Y-77060356D01*
X85016568Y-77060354D01*
X84908331Y-76965570D01*
X84777768Y-76905114D01*
X84777758Y-76905111D01*
X84710848Y-76885082D01*
X84710836Y-76885079D01*
X84710835Y-76885079D01*
X84710830Y-76885078D01*
X84568518Y-76863856D01*
X84568522Y-76863856D01*
X75334426Y-76815561D01*
X75334434Y-76813971D01*
X75272614Y-76799044D01*
X75224345Y-76748528D01*
X75210500Y-76691591D01*
X75210500Y-75092229D01*
X75230185Y-75025190D01*
X75246814Y-75004553D01*
X76920267Y-73331099D01*
X76981588Y-73297616D01*
X77051280Y-73302600D01*
X77107213Y-73344472D01*
X77131630Y-73409936D01*
X77131945Y-73419222D01*
X77125376Y-75271867D01*
X77125331Y-75284654D01*
X77125332Y-75284664D01*
X77125332Y-75284673D01*
X77128406Y-75342157D01*
X77128407Y-75342167D01*
X77131518Y-75370211D01*
X77133121Y-75379691D01*
X77134076Y-75386479D01*
X77147594Y-75506459D01*
X77147598Y-75506487D01*
X77162773Y-75584863D01*
X77162776Y-75584876D01*
X77173199Y-75622491D01*
X77173201Y-75622498D01*
X77184155Y-75652566D01*
X77200526Y-75697504D01*
X77242188Y-75762331D01*
X77278310Y-75818537D01*
X77278318Y-75818548D01*
X77324062Y-75871340D01*
X77324065Y-75871343D01*
X77324069Y-75871347D01*
X77432803Y-75965567D01*
X77432806Y-75965568D01*
X77432807Y-75965569D01*
X77553086Y-76020500D01*
X77563680Y-76025338D01*
X77630719Y-76045023D01*
X77630723Y-76045024D01*
X77773139Y-76065500D01*
X77773142Y-76065500D01*
X82161922Y-76065500D01*
X82238680Y-76059638D01*
X82275900Y-76053920D01*
X82350873Y-76036473D01*
X82480576Y-75974193D01*
X82538615Y-75935294D01*
X82645517Y-75838995D01*
X82658076Y-75823925D01*
X83025461Y-75383059D01*
X83043224Y-75361742D01*
X83101264Y-75322843D01*
X83110691Y-75320279D01*
X83112104Y-75319955D01*
X83112103Y-75319954D01*
X83119796Y-75318186D01*
X83119836Y-75318175D01*
X83125008Y-75316985D01*
X83128036Y-75317165D01*
X83131154Y-75316132D01*
X83142371Y-75312991D01*
X83143082Y-75312827D01*
X83152595Y-75309027D01*
X83153689Y-75308665D01*
X83153729Y-75308653D01*
X83157846Y-75307288D01*
X83157849Y-75307288D01*
X83159261Y-75306820D01*
X83159260Y-75306819D01*
X83164664Y-75305029D01*
X83265768Y-75271525D01*
X83292195Y-75265872D01*
X83294498Y-75265637D01*
X83307055Y-75265000D01*
X84292940Y-75265000D01*
X84305492Y-75265637D01*
X84307815Y-75265874D01*
X84334238Y-75271527D01*
X84376290Y-75285462D01*
X84458757Y-75305293D01*
X84458770Y-75305295D01*
X84458775Y-75305296D01*
X84499736Y-75311570D01*
X84499738Y-75311570D01*
X84499744Y-75311571D01*
X84584366Y-75317333D01*
X84584381Y-75317332D01*
X84584383Y-75317333D01*
X84682787Y-75315758D01*
X85079316Y-75309414D01*
X85155749Y-75302363D01*
X85192768Y-75296085D01*
X85267250Y-75277543D01*
X85345755Y-75251528D01*
X85372169Y-75245876D01*
X85374472Y-75245641D01*
X85387060Y-75245000D01*
X86372938Y-75245000D01*
X86385493Y-75245637D01*
X86387812Y-75245874D01*
X86414243Y-75251529D01*
X86418059Y-75252794D01*
X86500527Y-75272625D01*
X86500540Y-75272627D01*
X86500545Y-75272628D01*
X86541506Y-75278902D01*
X86541508Y-75278902D01*
X86541514Y-75278903D01*
X86626136Y-75284665D01*
X86626151Y-75284664D01*
X86626153Y-75284665D01*
X86943855Y-75279581D01*
X87425963Y-75271867D01*
X87493308Y-75290476D01*
X87539614Y-75341942D01*
X87611519Y-75490889D01*
X87611521Y-75490892D01*
X87611522Y-75490894D01*
X87685648Y-75603228D01*
X87728642Y-75652566D01*
X87829787Y-75741362D01*
X87959707Y-75803186D01*
X88025261Y-75823561D01*
X88026259Y-75823883D01*
X88026431Y-75823925D01*
X88168506Y-75846641D01*
X95585524Y-75963444D01*
X95698146Y-75952553D01*
X95752112Y-75941132D01*
X95859489Y-75905465D01*
X95899549Y-75879466D01*
X95966500Y-75859483D01*
X96033626Y-75878868D01*
X96041351Y-75884206D01*
X96147199Y-75963444D01*
X96147668Y-75963795D01*
X96147671Y-75963797D01*
X96282517Y-76014091D01*
X96282516Y-76014091D01*
X96289444Y-76014835D01*
X96342127Y-76020500D01*
X98437872Y-76020499D01*
X98497483Y-76014091D01*
X98632331Y-75963796D01*
X98747546Y-75877546D01*
X98787688Y-75823924D01*
X98790485Y-75820188D01*
X98846419Y-75778318D01*
X98889751Y-75770500D01*
X107213920Y-75770500D01*
X107311462Y-75751096D01*
X107358913Y-75741658D01*
X107495495Y-75685084D01*
X107579946Y-75628656D01*
X107618416Y-75602952D01*
X108677819Y-74543549D01*
X108739142Y-74510064D01*
X108808834Y-74515048D01*
X108864767Y-74556920D01*
X108889184Y-74622384D01*
X108889500Y-74631230D01*
X108889500Y-75567870D01*
X108889501Y-75567876D01*
X108895909Y-75627484D01*
X108932901Y-75726668D01*
X108937885Y-75796360D01*
X108932901Y-75813332D01*
X108895909Y-75912514D01*
X108895908Y-75912516D01*
X108890205Y-75965566D01*
X108889501Y-75972123D01*
X108889500Y-75972135D01*
X108889500Y-76745500D01*
X108869815Y-76812539D01*
X108817011Y-76858294D01*
X108765501Y-76869500D01*
X108592130Y-76869500D01*
X108592123Y-76869501D01*
X108532515Y-76875909D01*
X108433332Y-76912901D01*
X108363640Y-76917885D01*
X108346668Y-76912901D01*
X108247485Y-76875909D01*
X108247483Y-76875908D01*
X108187883Y-76869501D01*
X108187881Y-76869500D01*
X108187873Y-76869500D01*
X108187864Y-76869500D01*
X107092129Y-76869500D01*
X107092123Y-76869501D01*
X107032515Y-76875909D01*
X106933332Y-76912901D01*
X106863640Y-76917885D01*
X106846668Y-76912901D01*
X106747485Y-76875909D01*
X106747483Y-76875908D01*
X106687883Y-76869501D01*
X106687881Y-76869500D01*
X106687873Y-76869500D01*
X106687864Y-76869500D01*
X105592129Y-76869500D01*
X105592123Y-76869501D01*
X105532515Y-76875909D01*
X105433332Y-76912901D01*
X105363640Y-76917885D01*
X105346668Y-76912901D01*
X105247485Y-76875909D01*
X105247483Y-76875908D01*
X105187883Y-76869501D01*
X105187881Y-76869500D01*
X105187873Y-76869500D01*
X105187864Y-76869500D01*
X104092129Y-76869500D01*
X104092123Y-76869501D01*
X104032515Y-76875909D01*
X103933332Y-76912901D01*
X103863640Y-76917885D01*
X103846668Y-76912901D01*
X103747485Y-76875909D01*
X103747483Y-76875908D01*
X103687883Y-76869501D01*
X103687881Y-76869500D01*
X103687873Y-76869500D01*
X103687864Y-76869500D01*
X102592129Y-76869500D01*
X102592123Y-76869501D01*
X102532515Y-76875909D01*
X102433332Y-76912901D01*
X102363640Y-76917885D01*
X102346668Y-76912901D01*
X102247485Y-76875909D01*
X102247483Y-76875908D01*
X102187883Y-76869501D01*
X102187881Y-76869500D01*
X102187873Y-76869500D01*
X102187864Y-76869500D01*
X101092129Y-76869500D01*
X101092123Y-76869501D01*
X101032515Y-76875909D01*
X100933332Y-76912901D01*
X100863640Y-76917885D01*
X100846668Y-76912901D01*
X100747485Y-76875909D01*
X100747483Y-76875908D01*
X100687883Y-76869501D01*
X100687881Y-76869500D01*
X100687873Y-76869500D01*
X100687864Y-76869500D01*
X99592129Y-76869500D01*
X99592123Y-76869501D01*
X99532515Y-76875909D01*
X99433332Y-76912901D01*
X99363640Y-76917885D01*
X99346668Y-76912901D01*
X99247485Y-76875909D01*
X99247483Y-76875908D01*
X99187883Y-76869501D01*
X99187881Y-76869500D01*
X99187873Y-76869500D01*
X99187864Y-76869500D01*
X98092129Y-76869500D01*
X98092123Y-76869501D01*
X98032516Y-76875908D01*
X97897671Y-76926202D01*
X97897664Y-76926206D01*
X97782455Y-77012452D01*
X97782452Y-77012455D01*
X97696206Y-77127664D01*
X97696202Y-77127671D01*
X97645908Y-77262517D01*
X97639501Y-77322116D01*
X97639500Y-77322135D01*
X97639500Y-79217870D01*
X97639501Y-79217876D01*
X97645908Y-79277483D01*
X97696202Y-79412328D01*
X97696206Y-79412335D01*
X97782452Y-79527544D01*
X97782455Y-79527547D01*
X97897664Y-79613793D01*
X97897671Y-79613797D01*
X98032517Y-79664091D01*
X98032516Y-79664091D01*
X98039444Y-79664835D01*
X98092127Y-79670500D01*
X99187872Y-79670499D01*
X99247483Y-79664091D01*
X99346669Y-79627096D01*
X99416358Y-79622113D01*
X99433319Y-79627092D01*
X99532517Y-79664091D01*
X99592127Y-79670500D01*
X100687872Y-79670499D01*
X100747483Y-79664091D01*
X100846669Y-79627096D01*
X100916358Y-79622113D01*
X100933319Y-79627092D01*
X101032517Y-79664091D01*
X101092127Y-79670500D01*
X102187872Y-79670499D01*
X102247483Y-79664091D01*
X102346669Y-79627096D01*
X102416358Y-79622113D01*
X102433319Y-79627092D01*
X102532517Y-79664091D01*
X102592127Y-79670500D01*
X103687872Y-79670499D01*
X103747483Y-79664091D01*
X103846669Y-79627096D01*
X103916358Y-79622113D01*
X103933319Y-79627092D01*
X104032517Y-79664091D01*
X104092127Y-79670500D01*
X105187872Y-79670499D01*
X105247483Y-79664091D01*
X105346669Y-79627096D01*
X105416358Y-79622113D01*
X105433319Y-79627092D01*
X105532517Y-79664091D01*
X105592127Y-79670500D01*
X106687872Y-79670499D01*
X106747483Y-79664091D01*
X106846669Y-79627096D01*
X106916358Y-79622113D01*
X106933319Y-79627092D01*
X107032517Y-79664091D01*
X107092127Y-79670500D01*
X108187872Y-79670499D01*
X108247483Y-79664091D01*
X108346669Y-79627096D01*
X108416358Y-79622113D01*
X108433319Y-79627092D01*
X108532517Y-79664091D01*
X108592127Y-79670500D01*
X109687872Y-79670499D01*
X109747483Y-79664091D01*
X109882331Y-79613796D01*
X109997546Y-79527546D01*
X110083796Y-79412331D01*
X110134091Y-79277483D01*
X110140500Y-79217873D01*
X110140499Y-77644498D01*
X110160184Y-77577460D01*
X110212987Y-77531705D01*
X110264499Y-77520499D01*
X111437871Y-77520499D01*
X111437872Y-77520499D01*
X111497483Y-77514091D01*
X111632331Y-77463796D01*
X111747546Y-77377546D01*
X111833796Y-77262331D01*
X111884091Y-77127483D01*
X111890500Y-77067873D01*
X111890499Y-75972128D01*
X111884091Y-75912517D01*
X111847096Y-75813330D01*
X111842113Y-75743642D01*
X111847092Y-75726680D01*
X111884091Y-75627483D01*
X111890500Y-75567873D01*
X111890499Y-74472128D01*
X111884091Y-74412517D01*
X111847096Y-74313330D01*
X111842113Y-74243642D01*
X111847092Y-74226680D01*
X111884091Y-74127483D01*
X111890500Y-74067873D01*
X111890499Y-72972128D01*
X111884091Y-72912517D01*
X111847096Y-72813330D01*
X111842113Y-72743642D01*
X111847092Y-72726680D01*
X111884091Y-72627483D01*
X111890500Y-72567873D01*
X111890499Y-71472128D01*
X111884091Y-71412517D01*
X111847096Y-71313330D01*
X111842113Y-71243642D01*
X111847092Y-71226680D01*
X111884091Y-71127483D01*
X111890500Y-71067873D01*
X111890499Y-69972128D01*
X111884091Y-69912517D01*
X111847096Y-69813330D01*
X111842113Y-69743642D01*
X111847092Y-69726680D01*
X111884091Y-69627483D01*
X111890500Y-69567873D01*
X111890499Y-68472128D01*
X111884091Y-68412517D01*
X111847096Y-68313330D01*
X111842113Y-68243642D01*
X111847092Y-68226680D01*
X111884091Y-68127483D01*
X111890500Y-68067873D01*
X111890499Y-67871227D01*
X111910183Y-67804190D01*
X111962987Y-67758435D01*
X112032145Y-67748491D01*
X112095701Y-67777516D01*
G37*
%TD.AperFunction*%
%TA.AperFunction,Conductor*%
G36*
X80450550Y-80808059D02*
G01*
X80500796Y-80856609D01*
X80517000Y-80917895D01*
X80517000Y-81282104D01*
X80497315Y-81349143D01*
X80444511Y-81394898D01*
X80375353Y-81404842D01*
X80327002Y-81384330D01*
X80326080Y-81385890D01*
X80177896Y-81298255D01*
X80177893Y-81298254D01*
X80020073Y-81252402D01*
X80020067Y-81252401D01*
X79983201Y-81249500D01*
X79983194Y-81249500D01*
X78826806Y-81249500D01*
X78826798Y-81249500D01*
X78789932Y-81252401D01*
X78789926Y-81252402D01*
X78632106Y-81298254D01*
X78632103Y-81298255D01*
X78490637Y-81381917D01*
X78490629Y-81381923D01*
X78374423Y-81498129D01*
X78374417Y-81498137D01*
X78290755Y-81639603D01*
X78290754Y-81639606D01*
X78244902Y-81797426D01*
X78244901Y-81797432D01*
X78242000Y-81834298D01*
X78242000Y-82265701D01*
X78244901Y-82302567D01*
X78244902Y-82302573D01*
X78290754Y-82460393D01*
X78293853Y-82467554D01*
X78292017Y-82468348D01*
X78306614Y-82525885D01*
X78284454Y-82592147D01*
X78270381Y-82608961D01*
X77586162Y-83293181D01*
X77524839Y-83326666D01*
X77498481Y-83329500D01*
X77308384Y-83329500D01*
X77289145Y-83331248D01*
X77237807Y-83335913D01*
X77237804Y-83335914D01*
X77075394Y-83386522D01*
X77075392Y-83386523D01*
X77068233Y-83388754D01*
X77067380Y-83386017D01*
X77011326Y-83393740D01*
X76947943Y-83364340D01*
X76910516Y-83305340D01*
X76910928Y-83235472D01*
X76923578Y-83206961D01*
X76988478Y-83099606D01*
X77039086Y-82937196D01*
X77045500Y-82866616D01*
X77045500Y-82353384D01*
X77039086Y-82282804D01*
X76988478Y-82120394D01*
X76900472Y-81974815D01*
X76900470Y-81974813D01*
X76900469Y-81974811D01*
X76780188Y-81854530D01*
X76746720Y-81834298D01*
X76634606Y-81766522D01*
X76472196Y-81715914D01*
X76472194Y-81715913D01*
X76472192Y-81715913D01*
X76422778Y-81711423D01*
X76401616Y-81709500D01*
X75738384Y-81709500D01*
X75719145Y-81711248D01*
X75667807Y-81715913D01*
X75505393Y-81766522D01*
X75496597Y-81771840D01*
X75429042Y-81789674D01*
X75362569Y-81768154D01*
X75344775Y-81753408D01*
X75246817Y-81655449D01*
X75213334Y-81594127D01*
X75210500Y-81567770D01*
X75210500Y-81086230D01*
X75230185Y-81019191D01*
X75282989Y-80973436D01*
X75352147Y-80963492D01*
X75415703Y-80992517D01*
X75422181Y-80998549D01*
X75422288Y-80998656D01*
X75546344Y-81122712D01*
X75695666Y-81214814D01*
X75862203Y-81269999D01*
X75964991Y-81280500D01*
X77015008Y-81280499D01*
X77015016Y-81280498D01*
X77015019Y-81280498D01*
X77071302Y-81274748D01*
X77117797Y-81269999D01*
X77284334Y-81214814D01*
X77433656Y-81122712D01*
X77557712Y-80998656D01*
X77581923Y-80959402D01*
X77633871Y-80912679D01*
X77687462Y-80900500D01*
X78610172Y-80900500D01*
X78644767Y-80905424D01*
X78789926Y-80947597D01*
X78789929Y-80947597D01*
X78789931Y-80947598D01*
X78826806Y-80950500D01*
X78826814Y-80950500D01*
X79983186Y-80950500D01*
X79983194Y-80950500D01*
X80020069Y-80947598D01*
X80020071Y-80947597D01*
X80020073Y-80947597D01*
X80082259Y-80929530D01*
X80177898Y-80901744D01*
X80319365Y-80818081D01*
X80319364Y-80818081D01*
X80326080Y-80814110D01*
X80327155Y-80815928D01*
X80382032Y-80794381D01*
X80450550Y-80808059D01*
G37*
%TD.AperFunction*%
%TA.AperFunction,Conductor*%
G36*
X111712169Y-48250501D02*
G01*
X111774817Y-48250500D01*
X111781304Y-48250669D01*
X112086161Y-48266643D01*
X112099042Y-48267996D01*
X112397371Y-48315243D01*
X112410056Y-48317940D01*
X112701794Y-48396107D01*
X112714099Y-48400105D01*
X112996103Y-48508352D01*
X113007926Y-48513617D01*
X113277040Y-48650735D01*
X113288263Y-48657213D01*
X113541575Y-48821713D01*
X113552069Y-48829338D01*
X113786781Y-49019401D01*
X113796427Y-49028086D01*
X114009988Y-49241644D01*
X114018673Y-49251290D01*
X114208737Y-49485996D01*
X114216366Y-49496496D01*
X114380857Y-49749788D01*
X114387347Y-49761029D01*
X114524461Y-50030127D01*
X114529740Y-50041984D01*
X114637972Y-50323937D01*
X114641983Y-50336281D01*
X114720153Y-50628013D01*
X114722851Y-50640709D01*
X114770095Y-50938997D01*
X114771452Y-50951905D01*
X114787385Y-51255897D01*
X114787555Y-51262387D01*
X114787555Y-56836107D01*
X114767870Y-56903146D01*
X114715066Y-56948901D01*
X114645908Y-56958845D01*
X114582352Y-56929820D01*
X114550761Y-56887618D01*
X114504753Y-56786874D01*
X114504746Y-56786861D01*
X114430623Y-56671523D01*
X114429802Y-56670081D01*
X114427011Y-56665901D01*
X114332792Y-56557169D01*
X114332789Y-56557166D01*
X114224135Y-56463018D01*
X114224132Y-56463015D01*
X114197264Y-56445749D01*
X114103094Y-56385230D01*
X114103087Y-56385227D01*
X114103081Y-56385223D01*
X113978356Y-56328263D01*
X113974057Y-56326014D01*
X113834261Y-56284966D01*
X113834251Y-56284963D01*
X113706300Y-56266567D01*
X113691941Y-56264503D01*
X113691940Y-56264503D01*
X113635601Y-56264503D01*
X113635591Y-56264500D01*
X113584236Y-56264500D01*
X113155764Y-56264500D01*
X113104427Y-56264500D01*
X113104399Y-56264503D01*
X113048059Y-56264503D01*
X112914521Y-56283703D01*
X112914519Y-56283703D01*
X112905744Y-56284964D01*
X112767686Y-56325503D01*
X112636918Y-56385223D01*
X112636908Y-56385228D01*
X112636906Y-56385230D01*
X112593653Y-56413026D01*
X112515869Y-56463014D01*
X112496655Y-56479662D01*
X112485633Y-56489213D01*
X112422079Y-56518238D01*
X112404432Y-56519500D01*
X108496076Y-56519500D01*
X108467242Y-56525234D01*
X108467243Y-56525235D01*
X108351093Y-56548339D01*
X108351083Y-56548342D01*
X108271081Y-56581479D01*
X108271082Y-56581480D01*
X108214506Y-56604915D01*
X108214498Y-56604919D01*
X108168476Y-56635671D01*
X108168475Y-56635671D01*
X108091585Y-56687046D01*
X108091578Y-56687052D01*
X107567052Y-57211578D01*
X107567046Y-57211585D01*
X107523146Y-57277287D01*
X107523147Y-57277288D01*
X107484913Y-57334508D01*
X107428343Y-57471082D01*
X107428340Y-57471092D01*
X107399500Y-57616079D01*
X107399500Y-73647770D01*
X107379815Y-73714809D01*
X107363181Y-73735451D01*
X106865451Y-74233181D01*
X106804128Y-74266666D01*
X106777770Y-74269500D01*
X99006868Y-74269500D01*
X98939829Y-74249815D01*
X98894074Y-74197011D01*
X98883579Y-74132244D01*
X98890499Y-74067881D01*
X98890500Y-74067873D01*
X98890499Y-72972128D01*
X98884091Y-72912517D01*
X98847096Y-72813330D01*
X98842113Y-72743642D01*
X98847092Y-72726680D01*
X98884091Y-72627483D01*
X98890500Y-72567873D01*
X98890499Y-71472128D01*
X98884091Y-71412517D01*
X98847096Y-71313330D01*
X98842113Y-71243642D01*
X98847092Y-71226680D01*
X98884091Y-71127483D01*
X98890500Y-71067873D01*
X98890499Y-69972128D01*
X98884091Y-69912517D01*
X98847096Y-69813330D01*
X98842113Y-69743642D01*
X98847092Y-69726680D01*
X98884091Y-69627483D01*
X98890500Y-69567873D01*
X98890499Y-68472128D01*
X98884091Y-68412517D01*
X98847096Y-68313330D01*
X98842113Y-68243642D01*
X98847092Y-68226680D01*
X98884091Y-68127483D01*
X98890500Y-68067873D01*
X98890499Y-66972128D01*
X98884091Y-66912517D01*
X98847096Y-66813330D01*
X98842113Y-66743642D01*
X98847092Y-66726680D01*
X98884091Y-66627483D01*
X98890500Y-66567873D01*
X98890499Y-65472128D01*
X98884091Y-65412517D01*
X98847096Y-65313330D01*
X98842113Y-65243642D01*
X98847092Y-65226680D01*
X98884091Y-65127483D01*
X98890500Y-65067873D01*
X98890499Y-63972128D01*
X98884091Y-63912517D01*
X98847096Y-63813330D01*
X98842113Y-63743642D01*
X98847092Y-63726680D01*
X98884091Y-63627483D01*
X98890500Y-63567873D01*
X98890499Y-62472128D01*
X98884091Y-62412517D01*
X98847096Y-62313330D01*
X98842113Y-62243642D01*
X98847092Y-62226680D01*
X98884091Y-62127483D01*
X98890500Y-62067873D01*
X98890499Y-60972128D01*
X98884091Y-60912517D01*
X98847096Y-60813330D01*
X98842113Y-60743642D01*
X98847092Y-60726680D01*
X98884091Y-60627483D01*
X98890500Y-60567873D01*
X98890499Y-59472128D01*
X98884091Y-59412517D01*
X98847096Y-59313330D01*
X98842113Y-59243642D01*
X98847092Y-59226680D01*
X98884091Y-59127483D01*
X98890500Y-59067873D01*
X98890499Y-57972128D01*
X98884091Y-57912517D01*
X98849584Y-57820000D01*
X98833797Y-57777671D01*
X98833793Y-57777664D01*
X98747546Y-57662454D01*
X98747544Y-57662452D01*
X98632335Y-57576206D01*
X98632328Y-57576202D01*
X98497482Y-57525908D01*
X98497483Y-57525908D01*
X98437883Y-57519501D01*
X98437881Y-57519500D01*
X98437873Y-57519500D01*
X98437864Y-57519500D01*
X96342129Y-57519500D01*
X96342123Y-57519501D01*
X96282516Y-57525908D01*
X96147671Y-57576202D01*
X96147664Y-57576206D01*
X96032457Y-57662451D01*
X96032451Y-57662457D01*
X95989515Y-57719812D01*
X95933581Y-57761682D01*
X95890249Y-57769500D01*
X95721870Y-57769500D01*
X95654831Y-57749815D01*
X95609076Y-57697011D01*
X95604164Y-57684505D01*
X95594358Y-57654913D01*
X95559814Y-57550666D01*
X95467712Y-57401344D01*
X95343656Y-57277288D01*
X95237132Y-57211584D01*
X95194336Y-57185187D01*
X95194331Y-57185185D01*
X95192862Y-57184698D01*
X95027797Y-57130001D01*
X95027795Y-57130000D01*
X94925010Y-57119500D01*
X94299998Y-57119500D01*
X94299980Y-57119501D01*
X94197203Y-57130000D01*
X94197200Y-57130001D01*
X94030668Y-57185185D01*
X94030663Y-57185187D01*
X93881342Y-57277289D01*
X93787681Y-57370951D01*
X93726358Y-57404436D01*
X93656666Y-57399452D01*
X93612319Y-57370951D01*
X93518657Y-57277289D01*
X93518656Y-57277288D01*
X93412132Y-57211584D01*
X93369336Y-57185187D01*
X93369331Y-57185185D01*
X93367862Y-57184698D01*
X93202797Y-57130001D01*
X93202795Y-57130000D01*
X93100010Y-57119500D01*
X92474998Y-57119500D01*
X92474980Y-57119501D01*
X92372203Y-57130000D01*
X92372200Y-57130001D01*
X92205668Y-57185185D01*
X92205663Y-57185187D01*
X92056342Y-57277289D01*
X91932289Y-57401342D01*
X91930381Y-57404436D01*
X91889268Y-57471092D01*
X91864901Y-57510597D01*
X91812953Y-57557321D01*
X91759362Y-57569500D01*
X91436080Y-57569500D01*
X91291092Y-57598340D01*
X91291082Y-57598343D01*
X91154509Y-57654913D01*
X91154500Y-57654918D01*
X91143226Y-57662452D01*
X91143224Y-57662454D01*
X91031579Y-57737051D01*
X88987684Y-59780946D01*
X88926361Y-59814431D01*
X88856669Y-59809447D01*
X88800736Y-59767575D01*
X88795009Y-59759237D01*
X88789505Y-59750478D01*
X88770500Y-59684507D01*
X88770500Y-59388051D01*
X88790185Y-59321012D01*
X88842989Y-59275257D01*
X88881251Y-59264761D01*
X88883891Y-59264477D01*
X88887483Y-59264091D01*
X89022331Y-59213796D01*
X89137546Y-59127546D01*
X89223796Y-59012331D01*
X89274091Y-58877483D01*
X89280500Y-58817873D01*
X89280499Y-57222128D01*
X89274091Y-57162517D01*
X89267371Y-57144501D01*
X89223797Y-57027671D01*
X89223793Y-57027664D01*
X89137547Y-56912455D01*
X89137544Y-56912452D01*
X89022335Y-56826206D01*
X89022328Y-56826202D01*
X88887482Y-56775908D01*
X88887483Y-56775908D01*
X88827883Y-56769501D01*
X88827881Y-56769500D01*
X88827873Y-56769500D01*
X88827864Y-56769500D01*
X87732129Y-56769500D01*
X87732123Y-56769501D01*
X87672520Y-56775908D01*
X87664974Y-56777692D01*
X87664628Y-56776230D01*
X87603622Y-56780584D01*
X87588600Y-56776172D01*
X87587482Y-56775908D01*
X87527883Y-56769501D01*
X87527881Y-56769500D01*
X87527873Y-56769500D01*
X87527864Y-56769500D01*
X86432129Y-56769500D01*
X86432123Y-56769501D01*
X86372515Y-56775909D01*
X86267831Y-56814953D01*
X86198140Y-56819937D01*
X86136817Y-56786451D01*
X86103333Y-56725128D01*
X86100499Y-56698777D01*
X86100499Y-56289992D01*
X86099985Y-56284965D01*
X86089999Y-56187203D01*
X86089998Y-56187200D01*
X86066073Y-56115000D01*
X86034814Y-56020666D01*
X85942712Y-55871344D01*
X85849049Y-55777681D01*
X85815564Y-55716358D01*
X85820548Y-55646666D01*
X85849049Y-55602319D01*
X85874950Y-55576418D01*
X85942712Y-55508656D01*
X86034814Y-55359334D01*
X86089999Y-55192797D01*
X86100500Y-55090009D01*
X86100499Y-54464992D01*
X86089999Y-54362203D01*
X86034814Y-54195666D01*
X85942712Y-54046344D01*
X85818656Y-53922288D01*
X85709402Y-53854900D01*
X85662679Y-53802953D01*
X85650500Y-53749362D01*
X85650500Y-53176143D01*
X85670185Y-53109104D01*
X85722989Y-53063349D01*
X85735482Y-53058442D01*
X85814334Y-53032314D01*
X85963656Y-52940212D01*
X86087712Y-52816156D01*
X86179814Y-52666834D01*
X86234999Y-52500297D01*
X86245500Y-52397509D01*
X86245499Y-51574983D01*
X89764500Y-51574983D01*
X89764500Y-52425001D01*
X89764501Y-52425019D01*
X89775000Y-52527796D01*
X89775001Y-52527799D01*
X89830185Y-52694331D01*
X89830187Y-52694336D01*
X89864063Y-52749258D01*
X89922288Y-52843656D01*
X90046344Y-52967712D01*
X90195666Y-53059814D01*
X90362203Y-53114999D01*
X90464991Y-53125500D01*
X91815008Y-53125499D01*
X91917797Y-53114999D01*
X92084334Y-53059814D01*
X92233656Y-52967712D01*
X92357712Y-52843656D01*
X92383897Y-52801202D01*
X92435845Y-52754478D01*
X92504807Y-52743255D01*
X92530391Y-52749258D01*
X92690737Y-52805366D01*
X92690743Y-52805367D01*
X92690745Y-52805368D01*
X92690746Y-52805368D01*
X92690750Y-52805369D01*
X92869996Y-52825565D01*
X92870000Y-52825565D01*
X92870004Y-52825565D01*
X93049249Y-52805369D01*
X93049252Y-52805368D01*
X93049255Y-52805368D01*
X93219522Y-52745789D01*
X93372262Y-52649816D01*
X93499816Y-52522262D01*
X93595789Y-52369522D01*
X93655368Y-52199255D01*
X93655369Y-52199249D01*
X93675565Y-52020003D01*
X93675565Y-52019996D01*
X93655369Y-51840750D01*
X93655368Y-51840745D01*
X93595788Y-51670476D01*
X93518515Y-51547498D01*
X93499816Y-51517738D01*
X93372262Y-51390184D01*
X93219523Y-51294211D01*
X93049254Y-51234631D01*
X93049249Y-51234630D01*
X92870004Y-51214435D01*
X92869996Y-51214435D01*
X92690750Y-51234630D01*
X92690742Y-51234632D01*
X92550682Y-51283641D01*
X92480903Y-51287202D01*
X92420276Y-51252473D01*
X92404189Y-51231696D01*
X92357712Y-51156344D01*
X92233656Y-51032288D01*
X92084334Y-50940186D01*
X91917797Y-50885001D01*
X91917795Y-50885000D01*
X91815010Y-50874500D01*
X90464998Y-50874500D01*
X90464981Y-50874501D01*
X90362203Y-50885000D01*
X90362200Y-50885001D01*
X90195668Y-50940185D01*
X90195663Y-50940187D01*
X90046342Y-51032289D01*
X89922289Y-51156342D01*
X89830187Y-51305663D01*
X89830186Y-51305666D01*
X89775001Y-51472203D01*
X89775001Y-51472204D01*
X89775000Y-51472204D01*
X89764500Y-51574983D01*
X86245499Y-51574983D01*
X86245499Y-51547492D01*
X86242459Y-51517737D01*
X86234999Y-51444703D01*
X86234998Y-51444700D01*
X86216933Y-51390184D01*
X86179814Y-51278166D01*
X86087712Y-51128844D01*
X85963656Y-51004788D01*
X85867403Y-50945419D01*
X85814336Y-50912687D01*
X85814331Y-50912685D01*
X85812862Y-50912198D01*
X85647797Y-50857501D01*
X85647795Y-50857500D01*
X85545010Y-50847000D01*
X84194998Y-50847000D01*
X84194981Y-50847001D01*
X84092203Y-50857500D01*
X84092200Y-50857501D01*
X83925668Y-50912685D01*
X83925663Y-50912687D01*
X83776342Y-51004789D01*
X83652289Y-51128842D01*
X83560187Y-51278163D01*
X83560185Y-51278168D01*
X83546489Y-51319500D01*
X83505001Y-51444703D01*
X83505001Y-51444704D01*
X83505000Y-51444704D01*
X83494500Y-51547483D01*
X83494500Y-52397501D01*
X83494501Y-52397519D01*
X83505000Y-52500296D01*
X83505001Y-52500299D01*
X83514114Y-52527799D01*
X83560186Y-52666834D01*
X83652288Y-52816156D01*
X83776344Y-52940212D01*
X83925666Y-53032314D01*
X84064505Y-53078320D01*
X84121949Y-53118093D01*
X84148772Y-53182608D01*
X84149500Y-53196026D01*
X84149500Y-53749362D01*
X84129815Y-53816401D01*
X84090598Y-53854899D01*
X84022288Y-53897033D01*
X83981342Y-53922289D01*
X83857289Y-54046342D01*
X83765187Y-54195663D01*
X83765186Y-54195666D01*
X83710001Y-54362203D01*
X83710001Y-54362204D01*
X83710000Y-54362204D01*
X83699500Y-54464983D01*
X83699500Y-55090001D01*
X83699501Y-55090019D01*
X83710000Y-55192796D01*
X83710001Y-55192799D01*
X83714803Y-55207289D01*
X83765186Y-55359334D01*
X83843815Y-55486813D01*
X83857289Y-55508657D01*
X83950951Y-55602319D01*
X83984436Y-55663642D01*
X83979452Y-55733334D01*
X83950951Y-55777681D01*
X83857289Y-55871342D01*
X83765187Y-56020663D01*
X83765184Y-56020670D01*
X83757768Y-56043051D01*
X83717994Y-56100495D01*
X83653478Y-56127316D01*
X83584702Y-56115000D01*
X83552382Y-56091725D01*
X83166546Y-55705888D01*
X83166545Y-55705887D01*
X83051807Y-55629222D01*
X82924332Y-55576421D01*
X82924322Y-55576418D01*
X82788996Y-55549500D01*
X82788994Y-55549500D01*
X82788993Y-55549500D01*
X82730908Y-55549500D01*
X82663869Y-55529815D01*
X82625363Y-55485728D01*
X82623605Y-55486813D01*
X82619812Y-55480663D01*
X82527712Y-55331344D01*
X82403656Y-55207288D01*
X82254334Y-55115186D01*
X82087797Y-55060001D01*
X82087795Y-55060000D01*
X81985010Y-55049500D01*
X81359998Y-55049500D01*
X81359980Y-55049501D01*
X81257203Y-55060000D01*
X81257200Y-55060001D01*
X81090668Y-55115185D01*
X81090663Y-55115187D01*
X80941342Y-55207289D01*
X80847681Y-55300951D01*
X80786358Y-55334436D01*
X80716666Y-55329452D01*
X80672319Y-55300951D01*
X80578657Y-55207289D01*
X80578656Y-55207288D01*
X80429334Y-55115186D01*
X80262797Y-55060001D01*
X80262795Y-55060000D01*
X80160010Y-55049500D01*
X79534998Y-55049500D01*
X79534980Y-55049501D01*
X79432203Y-55060000D01*
X79432200Y-55060001D01*
X79265668Y-55115185D01*
X79265663Y-55115187D01*
X79116342Y-55207289D01*
X78992289Y-55331342D01*
X78900187Y-55480663D01*
X78900185Y-55480668D01*
X78877377Y-55549500D01*
X78845001Y-55647203D01*
X78845001Y-55647204D01*
X78845000Y-55647204D01*
X78834500Y-55749983D01*
X78834500Y-56150269D01*
X78814815Y-56217308D01*
X78798181Y-56237950D01*
X78127050Y-56909081D01*
X78127044Y-56909089D01*
X78087453Y-56968342D01*
X78087453Y-56968343D01*
X78044919Y-57031998D01*
X78044911Y-57032013D01*
X78030024Y-57067954D01*
X77986183Y-57122357D01*
X77919888Y-57144421D01*
X77915465Y-57144500D01*
X77772130Y-57144500D01*
X77772123Y-57144501D01*
X77712516Y-57150908D01*
X77577671Y-57201202D01*
X77577664Y-57201206D01*
X77462455Y-57287452D01*
X77462452Y-57287455D01*
X77376206Y-57402664D01*
X77376202Y-57402671D01*
X77325908Y-57537517D01*
X77321749Y-57576206D01*
X77319501Y-57597123D01*
X77319500Y-57597135D01*
X77319500Y-59692870D01*
X77319501Y-59692876D01*
X77325908Y-59752483D01*
X77376202Y-59887328D01*
X77376206Y-59887335D01*
X77462452Y-60002544D01*
X77462455Y-60002547D01*
X77577664Y-60088793D01*
X77577671Y-60088797D01*
X77712517Y-60139091D01*
X77712516Y-60139091D01*
X77719444Y-60139835D01*
X77772127Y-60145500D01*
X79647872Y-60145499D01*
X79707483Y-60139091D01*
X79842331Y-60088796D01*
X79957546Y-60002546D01*
X80043796Y-59887331D01*
X80094091Y-59752483D01*
X80100500Y-59692873D01*
X80100499Y-57597128D01*
X80098878Y-57582047D01*
X80111285Y-57513288D01*
X80158896Y-57462151D01*
X80209566Y-57445436D01*
X80262797Y-57439999D01*
X80429334Y-57384814D01*
X80578656Y-57292712D01*
X80672319Y-57199049D01*
X80733642Y-57165564D01*
X80803334Y-57170548D01*
X80847681Y-57199049D01*
X80941344Y-57292712D01*
X81090666Y-57384814D01*
X81257203Y-57439999D01*
X81359991Y-57450500D01*
X81985008Y-57450499D01*
X81985016Y-57450498D01*
X81985019Y-57450498D01*
X82041302Y-57444748D01*
X82087797Y-57439999D01*
X82254334Y-57384814D01*
X82403656Y-57292712D01*
X82403663Y-57292704D01*
X82408587Y-57288812D01*
X82473382Y-57262671D01*
X82542025Y-57275710D01*
X82592721Y-57323789D01*
X82609500Y-57386077D01*
X82609500Y-61701006D01*
X82609500Y-61838994D01*
X82609500Y-61838996D01*
X82609499Y-61838996D01*
X82636418Y-61974322D01*
X82636421Y-61974332D01*
X82689222Y-62101807D01*
X82765887Y-62216545D01*
X83203454Y-62654112D01*
X83318192Y-62730777D01*
X83445667Y-62783578D01*
X83445672Y-62783580D01*
X83445676Y-62783580D01*
X83445677Y-62783581D01*
X83581003Y-62810500D01*
X83581006Y-62810500D01*
X83581007Y-62810500D01*
X83729327Y-62810500D01*
X83796366Y-62830185D01*
X83842121Y-62882989D01*
X83852065Y-62952147D01*
X83848403Y-62969095D01*
X83802402Y-63127426D01*
X83802401Y-63127432D01*
X83799500Y-63164298D01*
X83799500Y-63595701D01*
X83802401Y-63632567D01*
X83802402Y-63632573D01*
X83835016Y-63744829D01*
X83834817Y-63814699D01*
X83796875Y-63873369D01*
X83756527Y-63895559D01*
X83756714Y-63896011D01*
X83752632Y-63897701D01*
X83751939Y-63898083D01*
X83751089Y-63898340D01*
X83614511Y-63954912D01*
X83614499Y-63954919D01*
X83582323Y-63976419D01*
X83582322Y-63976419D01*
X83491585Y-64037046D01*
X83491584Y-64037047D01*
X83458249Y-64070383D01*
X83387048Y-64141584D01*
X82847047Y-64681584D01*
X82834523Y-64700328D01*
X82822053Y-64718993D01*
X82793386Y-64761895D01*
X82764914Y-64804507D01*
X82708343Y-64941082D01*
X82708340Y-64941092D01*
X82679500Y-65086079D01*
X82679500Y-66705942D01*
X82659815Y-66772981D01*
X82607011Y-66818736D01*
X82537853Y-66828680D01*
X82481189Y-66805209D01*
X82438438Y-66773206D01*
X82382331Y-66731204D01*
X82382329Y-66731203D01*
X82382328Y-66731202D01*
X82247482Y-66680908D01*
X82247483Y-66680908D01*
X82187883Y-66674501D01*
X82187881Y-66674500D01*
X82187873Y-66674500D01*
X82187865Y-66674500D01*
X82124500Y-66674500D01*
X82057461Y-66654815D01*
X82011706Y-66602011D01*
X82000500Y-66550500D01*
X82000500Y-65676079D01*
X81971659Y-65531092D01*
X81971658Y-65531091D01*
X81971658Y-65531087D01*
X81947237Y-65472129D01*
X81915087Y-65394511D01*
X81915080Y-65394498D01*
X81832952Y-65271585D01*
X81783928Y-65222561D01*
X81728416Y-65167049D01*
X79048416Y-62487048D01*
X79048415Y-62487047D01*
X79048413Y-62487045D01*
X78999179Y-62454150D01*
X78966355Y-62432218D01*
X78925495Y-62404916D01*
X78925494Y-62404915D01*
X78925492Y-62404914D01*
X78925490Y-62404913D01*
X78788917Y-62348343D01*
X78788907Y-62348340D01*
X78643920Y-62319500D01*
X78643918Y-62319500D01*
X76464499Y-62319500D01*
X76397460Y-62299815D01*
X76351705Y-62247011D01*
X76340499Y-62195500D01*
X76340499Y-62172129D01*
X76340498Y-62172123D01*
X76334091Y-62112516D01*
X76283797Y-61977671D01*
X76283793Y-61977664D01*
X76197547Y-61862455D01*
X76197544Y-61862452D01*
X76082335Y-61776206D01*
X76082328Y-61776202D01*
X75947482Y-61725908D01*
X75947483Y-61725908D01*
X75887883Y-61719501D01*
X75887881Y-61719500D01*
X75887873Y-61719500D01*
X75887864Y-61719500D01*
X74092129Y-61719500D01*
X74092123Y-61719501D01*
X74032516Y-61725908D01*
X73897671Y-61776202D01*
X73897668Y-61776204D01*
X73848811Y-61812779D01*
X73783347Y-61837196D01*
X73715074Y-61822344D01*
X73665668Y-61772939D01*
X73650500Y-61713512D01*
X73650500Y-51263246D01*
X73650670Y-51256757D01*
X73655284Y-51168711D01*
X74829500Y-51168711D01*
X74829500Y-51411288D01*
X74861161Y-51651785D01*
X74923947Y-51886104D01*
X74979407Y-52019996D01*
X75016776Y-52110212D01*
X75138064Y-52320289D01*
X75138066Y-52320292D01*
X75138067Y-52320293D01*
X75285733Y-52512736D01*
X75285739Y-52512743D01*
X75457256Y-52684260D01*
X75457263Y-52684266D01*
X75570321Y-52771018D01*
X75649711Y-52831936D01*
X75859788Y-52953224D01*
X76083900Y-53046054D01*
X76318211Y-53108838D01*
X76498586Y-53132584D01*
X76558711Y-53140500D01*
X76558712Y-53140500D01*
X76801289Y-53140500D01*
X76849388Y-53134167D01*
X77041789Y-53108838D01*
X77276100Y-53046054D01*
X77500212Y-52953224D01*
X77710289Y-52831936D01*
X77902738Y-52684265D01*
X78074265Y-52512738D01*
X78221936Y-52320289D01*
X78343224Y-52110212D01*
X78436054Y-51886100D01*
X78498838Y-51651789D01*
X78530500Y-51411288D01*
X78530500Y-51168712D01*
X78528871Y-51156342D01*
X78512540Y-51032288D01*
X78498838Y-50928211D01*
X78436054Y-50693900D01*
X78343224Y-50469788D01*
X78221936Y-50259711D01*
X78074265Y-50067262D01*
X78074260Y-50067256D01*
X77902743Y-49895739D01*
X77902736Y-49895733D01*
X77710293Y-49748067D01*
X77710292Y-49748066D01*
X77710289Y-49748064D01*
X77500212Y-49626776D01*
X77500205Y-49626773D01*
X77276104Y-49533947D01*
X77041785Y-49471161D01*
X76801289Y-49439500D01*
X76801288Y-49439500D01*
X76558712Y-49439500D01*
X76558711Y-49439500D01*
X76318214Y-49471161D01*
X76083895Y-49533947D01*
X75859794Y-49626773D01*
X75859785Y-49626777D01*
X75649706Y-49748067D01*
X75457263Y-49895733D01*
X75457256Y-49895739D01*
X75285739Y-50067256D01*
X75285733Y-50067263D01*
X75138067Y-50259706D01*
X75016777Y-50469785D01*
X75016773Y-50469794D01*
X74923947Y-50693895D01*
X74861161Y-50928214D01*
X74829500Y-51168711D01*
X73655284Y-51168711D01*
X73666646Y-50951909D01*
X73668003Y-50939000D01*
X73715250Y-50640692D01*
X73717940Y-50628035D01*
X73796116Y-50336276D01*
X73800117Y-50323961D01*
X73908362Y-50041975D01*
X73913625Y-50030154D01*
X74050759Y-49761014D01*
X74057225Y-49749815D01*
X74221733Y-49496496D01*
X74229343Y-49486021D01*
X74419427Y-49251287D01*
X74428094Y-49241662D01*
X74641662Y-49028094D01*
X74651287Y-49019427D01*
X74886021Y-48829343D01*
X74896502Y-48821728D01*
X75149815Y-48657225D01*
X75161014Y-48650759D01*
X75430154Y-48513625D01*
X75441975Y-48508362D01*
X75723961Y-48400117D01*
X75736276Y-48396116D01*
X76028035Y-48317940D01*
X76040692Y-48315250D01*
X76339002Y-48268002D01*
X76351908Y-48266646D01*
X76490708Y-48259372D01*
X76656757Y-48250670D01*
X76663246Y-48250500D01*
X76725892Y-48250500D01*
X111712165Y-48250500D01*
X111712169Y-48250501D01*
G37*
%TD.AperFunction*%
%TA.AperFunction,Conductor*%
G36*
X88342121Y-66570128D02*
G01*
X88364498Y-66585080D01*
X88364511Y-66585087D01*
X88466865Y-66627483D01*
X88501087Y-66641658D01*
X88501091Y-66641658D01*
X88501092Y-66641659D01*
X88646079Y-66670500D01*
X88646082Y-66670500D01*
X88646083Y-66670500D01*
X88793917Y-66670500D01*
X89117672Y-66670500D01*
X89152267Y-66675424D01*
X89297426Y-66717597D01*
X89297429Y-66717597D01*
X89297431Y-66717598D01*
X89334306Y-66720500D01*
X90711479Y-66720500D01*
X90778518Y-66740185D01*
X90824273Y-66792989D01*
X90834563Y-66829459D01*
X90835248Y-66835073D01*
X90835317Y-66836203D01*
X90836162Y-66842559D01*
X90873753Y-66981446D01*
X90948946Y-67104107D01*
X90993567Y-67157873D01*
X90993569Y-67157875D01*
X90993571Y-67157877D01*
X91100279Y-67254390D01*
X91229856Y-67316930D01*
X91296461Y-67338036D01*
X91438409Y-67361538D01*
X91551191Y-67363937D01*
X91617796Y-67385043D01*
X91656640Y-67430835D01*
X91658097Y-67430040D01*
X91666793Y-67445965D01*
X91729171Y-67560202D01*
X91830908Y-67661942D01*
X91886841Y-67703814D01*
X91886848Y-67703819D01*
X91950425Y-67738534D01*
X91999830Y-67787938D01*
X92014999Y-67847366D01*
X92014999Y-69405428D01*
X91995314Y-69472467D01*
X91965313Y-69504692D01*
X91959394Y-69509124D01*
X91937106Y-69525809D01*
X91937090Y-69525845D01*
X91916656Y-69544667D01*
X91906270Y-69552272D01*
X91906268Y-69552274D01*
X91861345Y-69595327D01*
X91859476Y-69597119D01*
X91859475Y-69597120D01*
X91859474Y-69597120D01*
X91776257Y-69701204D01*
X91776254Y-69701208D01*
X91720301Y-69833752D01*
X91720295Y-69833770D01*
X91702575Y-69901292D01*
X91702562Y-69901341D01*
X91686218Y-70044288D01*
X91746046Y-72110149D01*
X91728310Y-72177731D01*
X91676853Y-72224995D01*
X91622720Y-72237737D01*
X88280846Y-72254488D01*
X88279525Y-72254488D01*
X86729509Y-72245747D01*
X86662581Y-72225685D01*
X86617125Y-72172624D01*
X86608591Y-72145940D01*
X86601659Y-72111094D01*
X86601658Y-72111087D01*
X86601656Y-72111082D01*
X86545087Y-71974511D01*
X86545080Y-71974498D01*
X86462951Y-71851584D01*
X86462948Y-71851580D01*
X86417004Y-71805637D01*
X86417001Y-71805632D01*
X86198421Y-71587052D01*
X86198414Y-71587046D01*
X86098818Y-71520499D01*
X86098817Y-71520499D01*
X86075495Y-71504916D01*
X86075488Y-71504912D01*
X85938917Y-71448343D01*
X85938907Y-71448340D01*
X85793920Y-71419500D01*
X85793918Y-71419500D01*
X83428401Y-71419500D01*
X83361362Y-71399815D01*
X83315607Y-71347011D01*
X83305663Y-71277853D01*
X83310695Y-71256496D01*
X83313553Y-71247872D01*
X83354999Y-71122797D01*
X83365500Y-71020009D01*
X83365499Y-70019992D01*
X83358866Y-69955063D01*
X83354999Y-69917203D01*
X83354998Y-69917200D01*
X83349743Y-69901341D01*
X83299814Y-69750666D01*
X83207712Y-69601344D01*
X83139319Y-69532951D01*
X83105834Y-69471628D01*
X83103000Y-69445270D01*
X83103000Y-69203579D01*
X83074159Y-69058592D01*
X83074158Y-69058591D01*
X83074158Y-69058587D01*
X83049684Y-68999501D01*
X83017587Y-68922011D01*
X83017580Y-68921998D01*
X82935452Y-68799085D01*
X82935451Y-68799084D01*
X82830916Y-68694549D01*
X82676818Y-68540451D01*
X82643333Y-68479128D01*
X82640499Y-68452770D01*
X82640499Y-67641229D01*
X82660184Y-67574190D01*
X82712988Y-67528435D01*
X82782146Y-67518491D01*
X82845702Y-67547516D01*
X82852180Y-67553548D01*
X83607130Y-68308498D01*
X83640615Y-68369821D01*
X83642977Y-68406986D01*
X83624341Y-68619997D01*
X83624341Y-68620000D01*
X83644936Y-68855403D01*
X83644938Y-68855413D01*
X83706094Y-69083655D01*
X83706096Y-69083659D01*
X83706097Y-69083663D01*
X83805965Y-69297830D01*
X83805967Y-69297834D01*
X83881306Y-69405428D01*
X83941505Y-69491401D01*
X84108599Y-69658495D01*
X84205384Y-69726265D01*
X84302165Y-69794032D01*
X84302167Y-69794033D01*
X84302170Y-69794035D01*
X84516337Y-69893903D01*
X84516343Y-69893904D01*
X84516344Y-69893905D01*
X84544096Y-69901341D01*
X84744592Y-69955063D01*
X84921034Y-69970500D01*
X84979999Y-69975659D01*
X84980000Y-69975659D01*
X84980001Y-69975659D01*
X85038966Y-69970500D01*
X85215408Y-69955063D01*
X85443663Y-69893903D01*
X85657830Y-69794035D01*
X85851401Y-69658495D01*
X85973329Y-69536566D01*
X86034648Y-69503084D01*
X86104340Y-69508068D01*
X86160274Y-69549939D01*
X86177189Y-69580917D01*
X86226202Y-69712328D01*
X86226206Y-69712335D01*
X86312452Y-69827544D01*
X86312455Y-69827547D01*
X86427664Y-69913793D01*
X86427671Y-69913797D01*
X86562517Y-69964091D01*
X86562516Y-69964091D01*
X86569444Y-69964835D01*
X86622127Y-69970500D01*
X88417872Y-69970499D01*
X88477483Y-69964091D01*
X88612331Y-69913796D01*
X88727546Y-69827546D01*
X88813796Y-69712331D01*
X88864091Y-69577483D01*
X88870500Y-69517873D01*
X88870499Y-67722128D01*
X88864091Y-67662517D01*
X88863877Y-67661944D01*
X88813797Y-67527671D01*
X88813793Y-67527664D01*
X88727547Y-67412455D01*
X88727544Y-67412452D01*
X88612335Y-67326206D01*
X88612328Y-67326202D01*
X88477482Y-67275908D01*
X88477483Y-67275908D01*
X88417883Y-67269501D01*
X88417881Y-67269500D01*
X88417873Y-67269500D01*
X88417865Y-67269500D01*
X88394500Y-67269500D01*
X88327461Y-67249815D01*
X88281706Y-67197011D01*
X88270500Y-67145500D01*
X88270500Y-67046079D01*
X88241659Y-66901092D01*
X88241658Y-66901091D01*
X88241658Y-66901087D01*
X88241656Y-66901082D01*
X88185087Y-66764511D01*
X88185080Y-66764498D01*
X88170128Y-66742121D01*
X88149250Y-66675444D01*
X88167734Y-66608064D01*
X88219713Y-66561373D01*
X88288683Y-66550197D01*
X88342121Y-66570128D01*
G37*
%TD.AperFunction*%
%TA.AperFunction,Conductor*%
G36*
X78274809Y-63840185D02*
G01*
X78295451Y-63856819D01*
X80463181Y-66024548D01*
X80496666Y-66085871D01*
X80499500Y-66112229D01*
X80499500Y-66550500D01*
X80479815Y-66617539D01*
X80427011Y-66663294D01*
X80375502Y-66674500D01*
X80312130Y-66674500D01*
X80312123Y-66674501D01*
X80252516Y-66680908D01*
X80117671Y-66731202D01*
X80117669Y-66731203D01*
X80054311Y-66778634D01*
X79988847Y-66803051D01*
X79920574Y-66788200D01*
X79905689Y-66778634D01*
X79842330Y-66731203D01*
X79842328Y-66731202D01*
X79707482Y-66680908D01*
X79707483Y-66680908D01*
X79647883Y-66674501D01*
X79647881Y-66674500D01*
X79647873Y-66674500D01*
X79647864Y-66674500D01*
X77772129Y-66674500D01*
X77772123Y-66674501D01*
X77712516Y-66680908D01*
X77577671Y-66731202D01*
X77577664Y-66731206D01*
X77462455Y-66817452D01*
X77462452Y-66817455D01*
X77376206Y-66932664D01*
X77376202Y-66932671D01*
X77325908Y-67067517D01*
X77319501Y-67127116D01*
X77319500Y-67127135D01*
X77319500Y-69222870D01*
X77319679Y-69226196D01*
X77318718Y-69226247D01*
X77307013Y-69291033D01*
X77259389Y-69342158D01*
X77196143Y-69359500D01*
X76794998Y-69359500D01*
X76794980Y-69359501D01*
X76692203Y-69370000D01*
X76692200Y-69370001D01*
X76523936Y-69425759D01*
X76454108Y-69428161D01*
X76394066Y-69392429D01*
X76368750Y-69351385D01*
X76333798Y-69257673D01*
X76333793Y-69257664D01*
X76247547Y-69142455D01*
X76247544Y-69142452D01*
X76132335Y-69056206D01*
X76132328Y-69056202D01*
X75997482Y-69005908D01*
X75997483Y-69005908D01*
X75937883Y-68999501D01*
X75937881Y-68999500D01*
X75937873Y-68999500D01*
X75937864Y-68999500D01*
X74142129Y-68999500D01*
X74142123Y-68999501D01*
X74082516Y-69005908D01*
X73947671Y-69056202D01*
X73947669Y-69056204D01*
X73848811Y-69130209D01*
X73783347Y-69154626D01*
X73715074Y-69139774D01*
X73665668Y-69090369D01*
X73650500Y-69030942D01*
X73650500Y-64426487D01*
X73670185Y-64359448D01*
X73722989Y-64313693D01*
X73792147Y-64303749D01*
X73848810Y-64327220D01*
X73891861Y-64359448D01*
X73897668Y-64363795D01*
X73897671Y-64363797D01*
X74032517Y-64414091D01*
X74032516Y-64414091D01*
X74039444Y-64414835D01*
X74092127Y-64420500D01*
X75887872Y-64420499D01*
X75947483Y-64414091D01*
X76082331Y-64363796D01*
X76197546Y-64277546D01*
X76283796Y-64162331D01*
X76334091Y-64027483D01*
X76340500Y-63967873D01*
X76340500Y-63944500D01*
X76360185Y-63877461D01*
X76412989Y-63831706D01*
X76464500Y-63820500D01*
X78207770Y-63820500D01*
X78274809Y-63840185D01*
G37*
%TD.AperFunction*%
%TA.AperFunction,Conductor*%
G36*
X95840171Y-60790185D02*
G01*
X95885926Y-60842989D01*
X95896421Y-60907756D01*
X95889500Y-60972118D01*
X95889500Y-62067870D01*
X95889501Y-62067876D01*
X95895909Y-62127484D01*
X95932901Y-62226668D01*
X95937885Y-62296360D01*
X95932901Y-62313332D01*
X95895909Y-62412514D01*
X95895908Y-62412516D01*
X95889501Y-62472116D01*
X95889501Y-62472123D01*
X95889500Y-62472135D01*
X95889500Y-63567870D01*
X95889501Y-63567876D01*
X95894589Y-63615207D01*
X95882182Y-63683967D01*
X95834571Y-63735103D01*
X95766871Y-63752381D01*
X95741899Y-63748924D01*
X95607199Y-63716050D01*
X95607196Y-63716049D01*
X95255230Y-63681951D01*
X95255200Y-63681950D01*
X95150132Y-63682745D01*
X95150118Y-63682745D01*
X95150115Y-63682746D01*
X95150108Y-63682746D01*
X95150105Y-63682747D01*
X95099167Y-63688461D01*
X95099153Y-63688463D01*
X95052034Y-63698796D01*
X95038077Y-63701032D01*
X95021339Y-63702742D01*
X95005527Y-63704357D01*
X94992928Y-63704999D01*
X94007065Y-63704999D01*
X93994456Y-63704356D01*
X93992157Y-63704121D01*
X93965763Y-63698470D01*
X93900564Y-63676865D01*
X93886301Y-63672139D01*
X93875367Y-63667932D01*
X93817882Y-63642638D01*
X93817873Y-63642635D01*
X93752781Y-63624176D01*
X93614872Y-63605000D01*
X93614868Y-63605000D01*
X93400132Y-63605000D01*
X93400127Y-63605000D01*
X93262220Y-63624176D01*
X93197127Y-63642635D01*
X93197125Y-63642636D01*
X93139634Y-63667932D01*
X93128701Y-63672138D01*
X93049238Y-63698470D01*
X93022853Y-63704120D01*
X93020556Y-63704355D01*
X93007936Y-63704999D01*
X92022065Y-63704999D01*
X92009466Y-63704357D01*
X92007165Y-63704122D01*
X91980762Y-63698470D01*
X91949506Y-63688113D01*
X91923415Y-63675947D01*
X91921880Y-63675000D01*
X91911697Y-63668719D01*
X91810462Y-63624176D01*
X91784249Y-63612642D01*
X91784247Y-63612641D01*
X91784244Y-63612640D01*
X91757304Y-63605000D01*
X91719149Y-63594179D01*
X91581231Y-63575000D01*
X91581229Y-63575000D01*
X91430969Y-63575000D01*
X91430962Y-63575000D01*
X91297593Y-63592913D01*
X91297588Y-63592914D01*
X91234473Y-63610179D01*
X91234466Y-63610181D01*
X91111653Y-63662186D01*
X91097908Y-63667074D01*
X91087589Y-63670073D01*
X91052983Y-63675000D01*
X89397012Y-63675000D01*
X89362416Y-63670076D01*
X89304710Y-63653310D01*
X89292945Y-63650044D01*
X89287214Y-63648528D01*
X89275404Y-63645554D01*
X89132126Y-63632365D01*
X89062349Y-63635928D01*
X89055359Y-63637246D01*
X89054550Y-63637459D01*
X88948383Y-63658297D01*
X88878807Y-63651893D01*
X88823739Y-63608890D01*
X88800661Y-63542942D01*
X88800500Y-63536619D01*
X88800500Y-62877895D01*
X88820185Y-62810856D01*
X88872989Y-62765101D01*
X88942147Y-62755157D01*
X88990496Y-62775671D01*
X88991420Y-62774110D01*
X89007430Y-62783578D01*
X89139602Y-62861744D01*
X89181224Y-62873836D01*
X89297426Y-62907597D01*
X89297429Y-62907597D01*
X89297431Y-62907598D01*
X89334306Y-62910500D01*
X89334314Y-62910500D01*
X91115686Y-62910500D01*
X91115694Y-62910500D01*
X91152569Y-62907598D01*
X91152571Y-62907597D01*
X91152573Y-62907597D01*
X91227480Y-62885834D01*
X91310398Y-62861744D01*
X91451865Y-62778081D01*
X91568081Y-62661865D01*
X91637658Y-62544214D01*
X91656699Y-62519667D01*
X92619548Y-61556817D01*
X92680871Y-61523333D01*
X92707229Y-61520499D01*
X93107502Y-61520499D01*
X93107508Y-61520499D01*
X93210297Y-61509999D01*
X93376834Y-61454814D01*
X93526156Y-61362712D01*
X93619819Y-61269049D01*
X93681142Y-61235564D01*
X93750834Y-61240548D01*
X93795181Y-61269049D01*
X93888844Y-61362712D01*
X94038166Y-61454814D01*
X94204703Y-61509999D01*
X94307491Y-61520500D01*
X94932508Y-61520499D01*
X94932516Y-61520498D01*
X94932519Y-61520498D01*
X94988802Y-61514748D01*
X95035297Y-61509999D01*
X95201834Y-61454814D01*
X95351156Y-61362712D01*
X95475212Y-61238656D01*
X95567314Y-61089334D01*
X95622499Y-60922797D01*
X95626677Y-60881896D01*
X95653073Y-60817207D01*
X95710253Y-60777055D01*
X95750035Y-60770500D01*
X95773132Y-60770500D01*
X95840171Y-60790185D01*
G37*
%TD.AperFunction*%
%TA.AperFunction,Conductor*%
G36*
X114751237Y-59298303D02*
G01*
X114784721Y-59359627D01*
X114787555Y-59385984D01*
X114787555Y-60969127D01*
X114767870Y-61036166D01*
X114715066Y-61081921D01*
X114645908Y-61091865D01*
X114598459Y-61074666D01*
X114449340Y-60982689D01*
X114449335Y-60982687D01*
X114449334Y-60982686D01*
X114282797Y-60927501D01*
X114282795Y-60927500D01*
X114180016Y-60917000D01*
X114180009Y-60917000D01*
X113756025Y-60917000D01*
X113688986Y-60897315D01*
X113687136Y-60896103D01*
X113659363Y-60877546D01*
X113659362Y-60877545D01*
X113625502Y-60854920D01*
X113625488Y-60854912D01*
X113488917Y-60798343D01*
X113488907Y-60798340D01*
X113343920Y-60769500D01*
X113343918Y-60769500D01*
X112006868Y-60769500D01*
X111939829Y-60749815D01*
X111894074Y-60697011D01*
X111883579Y-60632244D01*
X111890499Y-60567881D01*
X111890500Y-60567873D01*
X111890499Y-59472128D01*
X111884091Y-59412517D01*
X111883579Y-59407753D01*
X111895986Y-59338994D01*
X111943597Y-59287857D01*
X112006869Y-59270500D01*
X112082820Y-59270500D01*
X112149859Y-59290185D01*
X112182085Y-59320187D01*
X112262454Y-59427546D01*
X112308643Y-59462123D01*
X112377664Y-59513793D01*
X112377671Y-59513797D01*
X112512517Y-59564091D01*
X112512516Y-59564091D01*
X112519444Y-59564835D01*
X112572127Y-59570500D01*
X114167872Y-59570499D01*
X114227483Y-59564091D01*
X114362331Y-59513796D01*
X114477546Y-59427546D01*
X114563796Y-59312331D01*
X114563796Y-59312329D01*
X114564288Y-59311673D01*
X114620222Y-59269802D01*
X114689914Y-59264818D01*
X114751237Y-59298303D01*
G37*
%TD.AperFunction*%
%TD*%
M02*
